<?xml version="1.0" standalone="no"?>
<!DOCTYPE svg PUBLIC "-//W3C//DTD SVG 20010904//EN"
 "http://www.w3.org/TR/2001/REC-SVG-20010904/DTD/svg10.dtd">
<svg version="1.0" xmlns="http://www.w3.org/2000/svg"
 width="600.000000pt" height="199.000000pt" viewBox="0 0 600.000000 199.000000"
 preserveAspectRatio="xMidYMid meet">

<g transform="translate(0.000000,199.000000) scale(0.100000,-0.100000)"
fill="#000000" stroke="none">
<path d="M1045 1779 c-4 -13 -45 -112 -91 -220 -46 -108 -84 -200 -84 -205 0
-12 88 -97 153 -149 26 -21 46 -40 43 -42 -6 -6 -142 63 -192 98 l-40 27 -48
-96 c-64 -130 -202 -388 -388 -728 l-155 -281 153 79 c144 74 312 146 379 162
17 4 46 11 66 16 l36 10 -5 81 c-16 279 187 434 320 244 39 -55 58 -133 58
-238 0 -61 4 -89 13 -91 142 -39 279 -93 426 -168 96 -48 175 -87 177 -86 1 2
-26 54 -61 117 -56 101 -70 119 -136 171 -40 32 -103 76 -141 97 -37 21 -68
41 -68 44 0 9 136 -33 178 -55 17 -9 32 -14 32 -11 0 3 -59 117 -132 253 -172
323 -295 575 -392 797 -43 99 -81 184 -86 189 -4 4 -11 -3 -15 -15z"/>
<path d="M3293 1461 l-63 -14 0 -370 0 -370 50 7 c86 11 80 -2 80 190 0 116 4
179 13 195 37 72 162 96 217 41 19 -19 20 -34 20 -223 0 -112 2 -206 5 -209 3
-3 33 0 68 6 l62 11 0 227 c0 257 3 248 -90 296 -43 23 -62 27 -140 27 -98 0
-116 -6 -190 -62 -50 -37 -47 -26 7 33 28 30 29 33 26 130 l-3 99 -62 -14z"/>
<path d="M3888 1463 c-17 -4 -18 -31 -18 -375 l0 -370 23 6 c12 3 25 6 30 6 4
0 7 167 7 370 0 290 -3 370 -12 369 -7 -1 -21 -3 -30 -6z"/>
<path d="M4050 1445 c-11 -13 -11 -19 1 -31 12 -12 18 -12 33 -1 16 12 16 14
-2 30 -17 16 -20 16 -32 2z"/>
<path d="M1902 1300 c-23 -5 -46 -11 -51 -14 -10 -7 -35 -126 -27 -133 3 -3
29 1 58 8 121 29 228 9 228 -41 0 -19 -2 -20 -30 -5 -17 9 -55 15 -93 15 -180
0 -271 -111 -226 -275 14 -51 81 -116 136 -133 98 -29 190 -3 260 76 51 57 57
42 8 -22 -43 -57 -44 -69 -5 -62 17 3 43 8 59 11 27 6 28 8 35 82 9 117 7 296
-5 353 -13 62 -46 102 -101 125 -50 20 -184 28 -246 15z m183 -320 c76 -71
-30 -176 -135 -134 -39 16 -70 55 -70 86 1 16 29 51 55 66 33 20 121 9 150
-18z"/>
<path d="M2393 1288 l-53 -10 0 -284 c0 -156 3 -284 8 -284 6 0 56 11 120 25
22 5 22 7 22 179 l0 174 35 31 c20 17 55 36 79 42 46 11 45 10 94 128 9 24
-113 6 -165 -24 -23 -14 -43 -30 -43 -36 0 -6 -4 -7 -10 -4 -5 3 -10 22 -10
41 0 37 2 37 -77 22z"/>
<path d="M2820 1275 c-111 -35 -172 -131 -172 -270 -1 -129 46 -212 148 -260
114 -54 266 -41 342 30 l37 34 -41 42 -42 41 -47 -28 c-125 -73 -255 2 -255
145 0 44 5 56 33 87 57 62 170 75 236 26 l28 -20 42 49 c50 58 48 65 -33 107
-42 21 -67 26 -141 29 -59 2 -106 -2 -135 -12z"/>
<path d="M4360 1241 c-19 -10 -50 -37 -67 -60 l-33 -43 0 56 c0 47 -3 56 -17
56 -44 -1 -44 -4 -37 -274 7 -253 7 -257 28 -254 20 3 21 10 26 196 l5 193 41
39 c85 79 213 81 273 4 20 -25 21 -39 21 -234 l0 -207 26 5 25 5 -3 217 -3
217 -27 35 c-15 19 -42 43 -61 52 -49 22 -152 21 -197 -3z"/>
<path d="M4058 1238 c-13 -11 -15 -45 -10 -266 4 -226 6 -253 21 -250 14 3 16
33 19 266 1 144 -1 262 -6 262 -4 0 -15 -6 -24 -12z"/>
<path d="M4773 1243 c-10 -3 -13 -56 -13 -214 0 -234 3 -247 66 -296 30 -22
49 -28 105 -31 87 -5 148 21 187 81 l27 41 3 -57 c3 -57 7 -62 36 -51 14 5 16
39 16 269 l0 262 -24 -4 -24 -5 -4 -182 c-4 -209 -11 -233 -89 -276 -59 -33
-154 -35 -195 -4 -45 33 -52 71 -53 282 -1 196 -2 200 -38 185z"/>
<path d="M5309 1228 c-14 -10 -5 -26 67 -120 46 -59 84 -111 84 -114 0 -3 -39
-59 -86 -126 -81 -113 -95 -148 -60 -148 8 0 50 50 92 110 43 61 83 109 88
107 9 -3 83 -101 162 -212 13 -18 15 -18 30 -3 15 14 8 26 -76 143 l-93 127
33 46 c18 26 51 73 74 105 38 54 39 58 23 74 -9 9 -18 15 -21 12 -2 -2 -33
-46 -69 -97 l-66 -93 -78 100 c-43 55 -80 100 -83 100 -3 0 -12 -5 -21 -11z"/>
</g>
</svg>
