<svg width="34" height="29" viewBox="0 0 34 29" fill="none" xmlns="http://www.w3.org/2000/svg">
<path d="M7.32173 20.8319C7.75444 20.8319 8.1052 20.4811 8.1052 20.0484C8.1052 19.6157 7.75444 19.2649 7.32173 19.2649C6.88902 19.2649 6.53821 19.6157 6.53821 20.0484C6.53821 20.4811 6.88902 20.8319 7.32173 20.8319Z" fill="#F7F7F8"/>
<path d="M17.0004 24.8874C16.5396 24.8874 16.2169 25.256 16.2169 25.6708C16.2169 26.1318 16.5856 26.4544 17.0004 26.4544C17.4613 26.4544 17.7839 26.0856 17.7839 25.6708C17.7839 25.21 17.4152 24.8874 17.0004 24.8874Z" fill="#F7F7F8"/>
<path d="M17.0004 3.91765C17.4613 3.91765 17.7839 3.54895 17.7839 3.13415C17.7839 2.71936 17.4152 2.30457 17.0004 2.30457C16.5396 2.30457 16.2169 2.67328 16.2169 3.08807C16.2169 3.50286 16.5396 3.91765 17.0004 3.91765Z" fill="#F7F7F8"/>
<path d="M26.6786 9.54051C27.1395 9.54051 27.4621 9.17178 27.4621 8.75699C27.4621 8.34219 27.0934 7.97352 26.6786 7.97352C26.2638 7.97352 25.8951 8.34219 25.8951 8.75699C25.8951 9.17178 26.2177 9.54051 26.6786 9.54051Z" fill="#F7F7F8"/>
<path d="M7.32173 9.54009C7.7826 9.54009 8.1052 9.17136 8.1052 8.75657C8.1052 8.34177 7.7826 7.92703 7.32173 7.92703C6.86081 7.92703 6.53821 8.2957 6.53821 8.71049C6.53821 9.12529 6.86081 9.54009 7.32173 9.54009Z" fill="#F7F7F8"/>
<path d="M26.6786 20.8319C27.1113 20.8319 27.4621 20.4811 27.4621 20.0484C27.4621 19.6157 27.1113 19.2649 26.6786 19.2649C26.2459 19.2649 25.8951 19.6157 25.8951 20.0484C25.8951 20.4811 26.2459 20.8319 26.6786 20.8319Z" fill="#F7F7F8"/>
<path d="M17.0004 13.596C16.5396 13.596 16.2169 13.9646 16.2169 14.3794C16.2169 14.7942 16.5856 15.163 17.0004 15.163C17.4613 15.163 17.7839 14.7942 17.7839 14.3794C17.7839 13.9646 17.4152 13.596 17.0004 13.596Z" fill="#F7F7F8"/>
<path d="M22.3002 13.8725C22.254 13.3194 22.1158 12.7663 21.8854 12.2594L25.0654 10.4159L25.5263 10.1393L24.9732 9.21756L24.5124 9.49409L21.3784 11.3376C21.0097 10.8307 20.5488 10.3698 19.9957 10.0011L20.0879 9.86282L25.2498 1.01393L25.5263 0.553057L24.6045 0L24.328 0.460879L19.1662 9.26369L19.074 9.40195C18.567 9.21756 18.06 9.0793 17.507 8.98715V4.9314H16.447V8.98715C15.8939 9.03323 15.3409 9.17149 14.88 9.40195L14.7417 9.26369L9.62596 0.460879L9.34943 0L8.42769 0.553057L8.70422 1.01393L13.8199 9.81675L13.9121 9.95496C13.4051 10.3237 12.9443 10.7846 12.5756 11.2915L9.44162 9.44802L8.98075 9.17149L8.42769 10.0932L8.88856 10.3698L12.0686 12.2133C11.8382 12.7203 11.6999 13.2733 11.6538 13.8263H0.869263V14.8864H11.6538C11.6999 15.4395 11.8382 15.9925 12.0686 16.4995L8.88856 18.343L8.42769 18.6195L8.98075 19.5412L9.44162 19.2647L12.5756 17.4212C12.8982 17.8821 13.2669 18.2508 13.6817 18.5734L13.5434 18.7578L8.47376 27.6527L8.19723 28.1136L9.11902 28.6667L9.39555 28.2058L14.5113 19.403L14.6035 19.2186C15.1565 19.4952 15.7557 19.6795 16.447 19.7256V23.7814H17.507V19.7256C18.1983 19.6795 18.7974 19.4491 19.3966 19.1726L19.4888 19.3108L24.6506 28.1597L24.9271 28.6206L25.8489 28.0675L25.5724 27.6067L20.4566 18.8039L20.3644 18.6195C20.7792 18.2969 21.148 17.9282 21.4244 17.5134L24.5584 19.3569L25.0193 19.6334L25.5724 18.7117L25.1115 18.4352L21.9314 16.5917C22.1619 16.0847 22.3002 15.5316 22.3462 14.9786H33.1308V13.8725H22.3002ZM17 18.6195C14.6495 18.6195 12.7599 16.7299 12.7599 14.3794C12.7599 12.0289 14.6495 10.1393 17 10.1393C19.3505 10.1393 21.2401 12.0289 21.2401 14.3794C21.2401 16.7299 19.3044 18.6195 17 18.6195Z" fill="#F7F7F8"/>
</svg>
