<?xml version="1.0" encoding="UTF-8" standalone="no"?><!DOCTYPE svg PUBLIC "-//W3C//DTD SVG 1.1//EN" "http://www.w3.org/Graphics/SVG/1.1/DTD/svg11.dtd"><svg width="100%" height="100%" viewBox="0 0 500 500" version="1.1" xmlns="http://www.w3.org/2000/svg" xmlns:xlink="http://www.w3.org/1999/xlink" xml:space="preserve" xmlns:serif="http://www.serif.com/" style="fill-rule:evenodd;clip-rule:evenodd;stroke-linejoin:round;stroke-miterlimit:2;"><rect x="0" y="0" width="500" height="500" style="fill:url(#_Linear1);"/><path d="M124.433,249.869l63.826,-0c24.289,-0 47.165,11.627 61.769,31.394l62.96,85.216c1.19,1.611 1.369,3.773 0.462,5.564l-36.292,71.619c-1.741,3.435 -6.409,3.84 -8.694,0.752l-144.031,-194.545Z" style="fill:url(#_Linear2);fill-rule:nonzero;"/><path d="M375.567,249.979l-63.826,0c-24.289,0 -47.165,-11.627 -61.77,-31.394l-62.959,-85.216c-1.19,-1.611 -1.369,-3.773 -0.461,-5.564l36.291,-71.618c1.742,-3.436 6.409,-3.841 8.695,-0.753l144.03,194.545Z" style="fill:#f4f4f4;fill-rule:nonzero;"/><defs><linearGradient id="_Linear1" x1="0" y1="0" x2="1" y2="0" gradientUnits="userSpaceOnUse" gradientTransform="matrix(3.06162e-14,-500,500,3.06162e-14,265,500)"><stop offset="0" style="stop-color:#5601c5;stop-opacity:1"/><stop offset="1" style="stop-color:#6100dd;stop-opacity:1"/></linearGradient><linearGradient id="_Linear2" x1="0" y1="0" x2="1" y2="0" gradientUnits="userSpaceOnUse" gradientTransform="matrix(-146.158,-193.793,193.793,-146.158,277.158,443.662)"><stop offset="0" style="stop-color:#f4f4f4;stop-opacity:1"/><stop offset="1" style="stop-color:#e2dbea;stop-opacity:1"/></linearGradient></defs></svg>