<svg width="151" height="165" viewBox="0 0 151 165" fill="none" xmlns="http://www.w3.org/2000/svg">
<path fill-rule="evenodd" clip-rule="evenodd" d="M38.2384 0.722656H38.2415C42.5037 0.722656 45.9926 4.2116 45.9926 8.47535V21.3571C45.9926 25.6209 42.5037 29.1083 38.2415 29.1083H38.2384C33.9762 29.1083 30.4857 25.6209 30.4857 21.3571V8.47535C30.4857 4.2116 33.9762 0.722656 38.2384 0.722656Z" fill="#2492EB"/>
<path fill-rule="evenodd" clip-rule="evenodd" d="M113.356 0.722656H113.358C117.621 0.722656 121.11 4.2116 121.11 8.47535V21.3571C121.11 25.6209 117.621 29.1083 113.358 29.1083H113.356C109.094 29.1083 105.603 25.6209 105.603 21.3571V8.47535C105.603 4.2116 109.094 0.722656 113.356 0.722656Z" fill="#2492EB"/>
<path fill-rule="evenodd" clip-rule="evenodd" d="M105.469 52.1826H45.7768C41.5346 52.1826 38.064 55.6531 38.064 59.8954V119.588C38.064 123.83 41.5346 127.301 45.7768 127.301H94.5514L113.182 145.931V59.8954C113.182 55.6531 109.712 52.1826 105.469 52.1826ZM17.6229 14.5376H22.3101V21.2056C22.3101 29.9724 29.4797 37.1421 38.2481 37.1421H38.2512C47.0196 37.1421 54.1893 29.9724 54.1893 21.2056V14.5376H97.4251V21.2056C97.4251 29.9724 104.595 37.1421 113.363 37.1421H113.366C122.135 37.1421 129.304 29.9724 129.304 21.2056V14.5376H133.987C143.239 14.5376 150.806 22.1046 150.806 31.3563V147.72C150.806 156.967 143.236 164.539 133.987 164.539H75.2779L0.805664 90.0639V31.3563C0.805664 22.1046 8.37272 14.5376 17.6229 14.5376Z" fill="#2492EB"/>
<path fill-rule="evenodd" clip-rule="evenodd" d="M75.2794 90.0869H0.805664L75.2794 164.561V90.0869Z" fill="#114D86"/>
</svg>
