<?xml version="1.0" encoding="UTF-8" standalone="no"?>
<!DOCTYPE svg PUBLIC "-//W3C//DTD SVG 1.1//EN" "http://www.w3.org/Graphics/SVG/1.1/DTD/svg11.dtd">
<svg width="100%" height="100%" viewBox="0 0 60000 54458" version="1.1" xmlns="http://www.w3.org/2000/svg" xmlns:xlink="http://www.w3.org/1999/xlink" xml:space="preserve" xmlns:serif="http://www.serif.com/" style="fill-rule:evenodd;clip-rule:evenodd;stroke-linejoin:round;stroke-miterlimit:2;">
    <g transform="matrix(1,0,0,1,-2.27374e-12,-2771.35)">
        <g transform="matrix(728.869,0,0,728.869,2.27374e-12,2771.35)">
            <path d="M71.395,14.726L57.319,14.726C57.002,14.726 56.748,14.467 56.748,14.145L56.748,13.047C56.748,12.724 57.002,12.466 57.319,12.466L71.458,12.466C71.775,12.466 72.029,12.724 72.029,13.047L72.029,14.145C72.029,14.467 71.712,14.726 71.395,14.726Z" style="fill-rule:nonzero;"/>
        </g>
        <g transform="matrix(728.869,0,0,728.869,2.27374e-12,2771.35)">
            <path d="M73.804,28.674L63.533,28.674C63.216,28.674 62.962,28.415 62.962,28.093L62.962,26.995C62.962,26.672 63.216,26.414 63.533,26.414L73.804,26.414C74.122,26.414 74.375,26.672 74.375,26.995L74.375,28.093C74.375,28.351 74.122,28.674 73.804,28.674Z" style="fill-rule:nonzero;"/>
        </g>
        <g transform="matrix(728.869,0,0,728.869,2.27374e-12,2771.35)">
            <path d="M77.862,21.7L57.319,21.7C57.002,21.7 56.748,21.442 56.748,21.119L56.748,20.021C56.748,19.698 57.002,19.44 57.319,19.44L77.799,19.44C78.116,19.44 78.369,19.698 78.369,20.021L78.369,21.119C78.369,21.377 78.179,21.7 77.862,21.7Z" style="fill-rule:nonzero;"/>
        </g>
        <g transform="matrix(728.869,0,0,728.869,2.27374e-12,2771.35)">
            <path d="M41.024,17.888C42.418,17.888 43.813,18.017 45.145,18.34L45.145,15.692C45.145,11.947 47.047,9.751 50.851,9.751L52.246,9.751L52.246,0L47.681,0C37.853,0 34.049,5.102 34.049,14.336L34.049,19.115C36.268,18.34 38.614,17.888 41.024,17.888Z" style="fill-rule:nonzero;"/>
        </g>
        <g transform="matrix(728.869,0,0,728.869,2.27374e-12,2771.35)">
            <path d="M82.174,53.017C81.159,44.815 74.946,37.97 66.956,36.42C64.737,35.968 62.518,35.904 60.362,36.291C60.299,36.291 60.299,36.226 60.236,36.226C56.748,28.8 49.266,23.892 41.15,23.892C33.034,23.892 25.616,28.671 22.065,36.097C22.002,36.097 22.002,36.162 21.938,36.162C19.656,35.904 17.373,36.033 15.091,36.614C7.228,38.551 1.268,45.267 0.19,53.404C0.063,54.244 0,55.083 0,55.858C0,58.312 1.649,60.572 4.058,60.895C7.038,61.347 9.638,59.022 9.574,56.052C9.574,55.6 9.574,55.083 9.638,54.631C10.145,50.498 13.252,47.011 17.31,46.042C18.578,45.719 19.846,45.655 21.051,45.849C24.919,46.365 28.723,44.363 30.371,40.876C31.576,38.293 33.478,36.033 36.015,34.806C38.804,33.45 41.975,33.256 44.891,34.289C47.935,35.387 50.217,37.712 51.612,40.618C53.071,43.459 53.768,45.461 56.875,45.849C58.143,46.042 61.694,45.978 63.025,45.913C65.625,45.913 68.225,46.817 70.063,48.69C71.268,49.981 72.156,51.596 72.536,53.404C73.107,56.31 72.409,59.216 70.697,61.412C69.493,62.962 67.844,64.124 66.005,64.641C65.118,64.899 64.23,64.963 63.342,64.963L49.33,64.963C46.54,64.963 44.321,62.703 44.321,59.862L44.321,40.941C44.321,40.166 43.687,39.52 42.926,39.52L40.96,39.52C37.092,39.584 33.986,43.976 33.986,48.625L33.986,65.609C33.986,70.646 37.98,74.715 42.926,74.715C42.926,74.715 64.928,74.65 65.245,74.65C70.317,74.134 75.009,71.486 78.179,67.418C81.35,63.478 82.808,58.312 82.174,53.017Z" style="fill-rule:nonzero;"/>
        </g>
    </g>
</svg>