<?xml version="1.0" encoding="UTF-8" standalone="no"?>
<!DOCTYPE svg PUBLIC "-//W3C//DTD SVG 1.1//EN" "http://www.w3.org/Graphics/SVG/1.1/DTD/svg11.dtd">
<svg width="100%" height="100%" viewBox="0 0 64 64" version="1.1" xmlns="http://www.w3.org/2000/svg" xmlns:xlink="http://www.w3.org/1999/xlink" xml:space="preserve" xmlns:serif="http://www.serif.com/" style="fill-rule:evenodd;clip-rule:evenodd;stroke-linejoin:round;stroke-miterlimit:2;">
    <g transform="matrix(1,0,0,1,-1,0)">
        <circle cx="43" cy="8" r="6" style="fill:white;"/>
    </g>
    <g transform="matrix(1,0,0,1,-24,48)">
        <circle cx="43" cy="8" r="6" style="fill:white;"/>
    </g>
    <path d="M42,8C50.764,28.992 42.922,44.938 19,56C14.241,33.987 21.107,17.6 42,8Z" style="fill:white;"/>
    <path id="path9" d="M48.548,11.523C49.176,10.378 49.504,9.094 49.503,7.789C49.504,3.494 46.009,0 41.716,0C38.065,0 34.993,2.524 34.154,5.919C33.437,5.862 32.719,5.833 32,5.833C17.139,5.833 5.091,17.88 5.091,32.742C5.091,40.053 8.008,46.681 12.74,51.531C11.722,52.878 11.172,54.522 11.174,56.21C11.174,60.506 14.668,64 18.964,64C22.265,64 25.094,61.935 26.225,59.028C28.085,59.435 30.018,59.653 32,59.653C46.862,59.653 58.909,47.603 58.909,32.743C58.909,24.12 54.854,16.448 48.548,11.523L48.548,11.523ZM41.714,12.57C41.297,12.57 40.892,12.516 40.506,12.417L37.283,21.795L42.002,21.025L35.356,31.859L40.887,30.514L22.251,52.743C23.201,53.646 23.739,54.9 23.739,56.21C23.739,58.833 21.581,60.992 18.958,60.992C16.335,60.992 14.176,58.833 14.176,56.21C14.176,53.587 16.335,51.428 18.958,51.428C19.549,51.428 20.136,51.538 20.688,51.752L25.967,40.237L20.816,41.631L29.193,29.643L24.044,30.888L38.643,11.451C37.561,10.543 36.934,9.201 36.934,7.788C36.934,5.166 39.091,3.008 41.713,3.006C44.335,3.007 46.493,5.165 46.493,7.787C46.494,10.41 44.337,12.569 41.714,12.57Z" style="fill:url(#_Radial1);fill-rule:nonzero;"/>
    <defs>
        <radialGradient id="_Radial1" cx="0" cy="0" r="1" gradientUnits="userSpaceOnUse" gradientTransform="matrix(29.5639,0,0,29.5639,31.6014,31.6009)"><stop offset="0" style="stop-color:rgb(248,134,31);stop-opacity:1"/><stop offset="1" style="stop-color:rgb(255,24,0);stop-opacity:1"/></radialGradient>
    </defs>
</svg>
