<svg xmlns="http://www.w3.org/2000/svg" width="50.4mm" height="54.4mm" viewBox="0 0 50.4 54.4">
    <path
        d="M28.508 1.07c4.386 6.319 22.843 30.763 10.27 35.857-5.874 2.753-32.633-1.616-32.249-.902-1.92 3.213-3.445 5.8-3.445 5.8s20.635.947 36.567-1.244c22.747-3.116-4.683-32.82-11.133-39.483z"
        fill="#7f7fff" />
    <path
        d="M28.508 1.07C27.05 1.274.291 34.87.291 34.87s1.929.558 6.315 1.205C8.026 34.948 28.009.609 28.585 1.099c-.01-.014-.027-.019-.05-.016z"
        fill="#ff7f7f" />
    <path
        d="M28.508 1.07C27.587.917 6.53 36.046 6.53 36.046s19.1 2.057 26.97 1.92c22.171-.382.169-29.98-4.952-36.936a.042.042 0 00-.024-.012z"
        fill="#7f3fbf" />
</svg>