<?xml version="1.0" encoding="utf-8"?>
<!-- Generator: Adobe Illustrator 21.0.2, SVG Export Plug-In . SVG Version: 6.00 Build 0)  -->
<svg version="1.1" id="Layer_1" xmlns="http://www.w3.org/2000/svg" xmlns:xlink="http://www.w3.org/1999/xlink" x="0px" y="0px"
	 viewBox="0 0 1000 1000" style="enable-background:new 0 0 1000 1000;" xml:space="preserve">
<style type="text/css">
	.st0{fill:#FFFFFF;}
</style>
<rect x="-25.7" y="-30" class="st0" width="1055.2" height="1055.2"/>
<path d="M899.6,302.7l26.7-69.2l-1.1-4.3l-264.3,69.6c28.2-40.8,18.5-73.5,18.5-73.5s-84.4,53.9-148.3,52.5
	c-63.8-1.4-84.4-18.4-182.3,12.8s-125.6,127-153.9,147.6c-28.4,20.6-117.4,87.6-117.4,87.6l0.2,1.2l80.3-25.6c0,0-22,20.7-68.8,83.8
	c0,0-0.8-0.7-2.2-2l0.1,0.4c0,0,37.6,57.5,74.5,46.8c3.7-1.1,7.9-2.8,12.5-5.2c14.8,8.3,34.2,16.4,55.6,18.6c0,0-14.5-16.8-26.6-36
	c3.3-2.1,6.6-4.3,10-6.5l-1.6,1.1l30.6,11.2l-3.4-28.7c0.1-0.1,0.2-0.1,0.3-0.2l30,11l-3.7-26.1c3.8-2,7.6-3.9,11.4-5.6L308,445.7
	l129.5-88.3l-10.3,25.9c-26.2,64.6-75.5,79.8-75.5,79.8l-20.6,7.8c-15.3,18.1-21.7,22.5-27,83.2c12.3-3.1,24.1-3.8,34.8-1
	c55.3,14.9,74.5,81.6,59.6,100c-3.7,4.6-12.6,12.5-23.8,21.8h-22.4l-0.3,18.2c-0.8,0.6-1.5,1.2-2.3,1.8h-22.8l-0.3,17.8
	c-2,1.5-4,3-6,4.5c-21.5,0.4-48.6-18.3-48.6-18.3c0,17,14.2,43.3,14.2,43.3s0.9-0.4,2.5-1.2c-1.4,1-2.2,1.6-2.2,1.6
	s57.5,38.3,93.6,24.1c32.2-12.6,115.4-78.3,187.3-109.4L784.9,600l28.7-74.3l-165.8,43.7v-66.8l194.5-51.2l28.7-74.3l-223.2,58.8
	v-66.8L899.6,302.7z M504.8,444.2l51.6-13.6l0.7,2.6L541,474.9L487.5,489L504.8,444.2z M522.6,533.5l-53.5,14.1l17.3-44.8l51.6-13.6
	l0.7,2.6L522.6,533.5z M592.3,518.5l-53.5,14.1l17.3-44.8l51.6-13.6l0.7,2.6L592.3,518.5z"/>
</svg>
