<svg viewBox="0 0 160 220" xmlns="http://www.w3.org/2000/svg">

  <g>
    <polygon
      points="85.98141956329346,97.32095336914062 85.00037097930908,97.71174621582031 64.39284992218018,105.94023132324219 70.72443866729736,112.48823547363281 "
      fill="#FDBC3D" />
    <path
      d="m56.42594,67.73726l-14.50614,15.08447l10.26645,10.54809c8.64873,-7.16839 17.83252,-10.5023 18.65299,-10.78834l-14.4133,-14.84423l0,0.00001z"
      fill="#8EC63F" />
    <polygon
      points="56.42594623565674,67.73725891113281 41.65448474884033,53.069923400878906 27.426854133605957,67.86961364746094 41.919827461242676,82.82173156738281 "
      fill="#208ECB" />
    <path
      d="m36.05425,47.30221l-6.9432,2.79133c-4.48683,1.80339 -8.41602,4.35008 -11.74178,7.41741l10.0582,10.35866l14.22763,-14.7997l-5.60085,-5.7677z"
      fill="#273C8B" />
    <path
      d="m114.36142,127.95096l-0.24338,-0.25091l-5.65229,5.67612c1.89622,-1.5161 4.28673,-3.66009 5.89567,-5.42522l0,0.00001z"
      fill="#EE4649" />
    <path
      d="m97.3757,139.9104l3.70839,-1.87552c2.6458,-1.33858 5.10782,-2.90424 7.38166,-4.6587l5.65229,-5.67612l-14.31106,-15.2852l-14.49296,15.07193l12.06168,12.42362l0,-0.00001z"
      fill="#F6944E" />
    <polygon
      points="85.56616687774658,97.74876403808594 70.72443866729736,112.48823547363281 85.31336688995361,127.48739624023438 99.80634021759033,112.41484069824219 "
      fill="#FFC951" />
    <path
      d="m64.37465,105.94775l-11.25627,4.49373c-3.3013,0.97226 -6.09639,2.84214 -8.43358,5.08085l11.54733,11.89169l14.49296,-14.92578l-6.35043,-6.54049l-0.00001,0z"
      fill="#F6CC18" />
    <path
      d="m52.17309,93.38174l-10.25265,-10.56001l-14.6341,14.92703l11.78443,11.99143c3.30381,-6.888 8.17389,-12.27182 13.10232,-16.35845z"
      fill="#C5D82D" />
    <polygon
      points="27.426854133605957,67.86961364746094 12.920706748962402,82.80918884277344 27.285704612731934,97.74876403808594 41.919827461242676,82.82173156738281 "
      fill="#0D77B3" />
    <path
      d="m27.42684,67.86961l-10.0582,-10.35866c-5.43902,5.02251 -9.24526,11.47205 -11.09319,18.45477l6.64462,6.84346l14.50676,-14.93958l0.00001,0.00001z"
      fill="#2A377E" />
    <path
      d="m90.11385,152.27693l-4.87134,5.01687l14.80848,15.39685l0,0c-0.63166,-1.94201 -1.60517,-4.43727 -2.57931,-6.30715l-7.35782,-14.10657l-0.00001,0z"
      fill="#DA2128" />
    <polygon
      points="86.52649402618408,145.39834594726562 97.35938739776611,139.9185791015625 85.31336688995361,127.48739624023438 70.80723285675049,142.42698669433594 85.24311542510986,157.2937774658203 90.11384296417236,152.2769317626953 "
      fill="#F8A561" />
    <polygon
      points="70.72443866729736,112.48823547363281 56.23149585723877,127.41401672363281 70.80723285675049,142.42698669433594 85.31336688995361,127.48739624023438 "
      fill="#FDBC3D" />
    <path
      d="m44.68479,115.52232c-6.71048,6.47275 -9.66428,16.04733 -9.66428,16.04733c-0.29983,-4.60538 0.05896,-8.82939 0.9064,-12.69773l-8.51262,8.7422l14.31106,14.73948l14.50614,-14.93958l-11.5467,-11.89169l0,-0.00001z"
      fill="#FAD412" />
    <path
      d="m39.07014,109.74019l-11.78443,-11.99143l-13.2905,13.68693l3.70776,6.17856l9.71069,10.00049l8.52014,-8.77607c0.71571,-3.24923 1.82346,-6.34165 3.13633,-9.09848l0.00001,0z"
      fill="#C4D52D" />
    <path
      d="m12.92071,82.80919l-7.63821,7.71975c0.64985,5.10029 2.34911,10.30095 5.19313,15.03994l3.51959,5.86681l13.2905,-13.68693l-14.365,-14.93958l-0.00001,0.00001z"
      fill="#1B80C1" />
    <path
      d="m6.27609,75.96572c-1.22003,4.66748 -1.59702,9.68372 -0.99296,14.56322l7.63821,-7.71975l-6.64525,-6.84346l0,-0.00001z"
      fill="#1A4685" />
    <path
      d="m85.24314,187.17295l12.50265,13.02203c4.14246,-8.35455 5.14734,-18.25467 2.30645,-27.50433l-0.30234,-0.31112l-14.50676,14.79342z"
      fill="#B12026" />
    <polygon
      points="85.24311542510986,157.2937774658203 70.80723285675049,172.30613708496094 85.24311542510986,187.17295837402344 99.74925708770752,172.37953186035156 "
      fill="#E42028" />
    <polygon
      points="70.80723285675049,142.42698669433594 56.23149585723877,157.2937774658203 70.80723285675049,172.30613708496094 85.24311542510986,157.2937774658203 "
      fill="#F16B4E" />
    <polygon
      points="56.23149585723877,127.41401672363281 41.72535419464111,142.3535919189453 56.23149585723877,157.2937774658203 70.80723285675049,142.42698669433594 "
      fill="#FAD412" />
    <polygon
      points="27.414315223693848,127.61474609375 25.1216459274292,129.97576904296875 36.054261207580566,148.19468688964844 41.72535419464111,142.3535919189453 "
      fill="#FFC951" />
    <polygon
      points="17.703604698181152,117.61363220214844 25.1216459274292,129.97576904296875 27.414315223693848,127.61474609375 "
      fill="#FFC951" />
    <path
      d="m97.74516,200.19435l-12.50265,-13.02203l-14.50551,14.93958l12.9179,13.30367c6.25383,-3.75105 11.0292,-9.09033 14.09026,-15.22122z"
      fill="#981C20" />
    <polygon
      points="70.80723285675049,172.30613708496094 58.21680164337158,185.12869262695312 64.63998126983643,195.83297729492188 70.7376070022583,202.11253356933594 85.24311542510986,187.17295837402344 "
      fill="#C92039" />
    <polygon
      points="56.23149585723877,157.2937774658203 47.135518074035645,166.66200256347656 58.21680164337158,185.12869262695312 70.80723285675049,172.30613708496094 "
      fill="#F05B41" />
    <polygon
      points="41.72535419464111,142.3535919189453 36.054261207580566,148.19468688964844 47.135518074035645,166.66200256347656 56.23149585723877,157.2937774658203 "
      fill="#F6CC18" />
    <path
      d="m69.29805,203.59476l8.9034,14.83796l4.1042,-2.23683c0.42842,-0.23334 0.934,-0.53318 1.34925,-0.77969l-12.9179,-13.30367l-1.43895,1.48223z"
      fill="#7A1319" />
    <polygon
      points="64.63998126983643,195.83297729492188 69.29802417755127,203.59475708007812 70.7376070022583,202.11253356933594 "
      fill="#981C20" />
    <path
      d="m143.12968,37.91707l10.65285,-10.9715c0.50808,-2.27321 0.82046,-4.59597 0.94278,-6.93944l-11.41372,-11.75558l-14.48042,14.93958l14.29851,14.72693l0,0.00001z"
      fill="#15796E" />
    <polygon
      points="128.81799030303955,23.176959991455078 143.31159687042236,8.250557899475098 140.57482624053955,5.286103248596191 119.62353992462158,13.708390235900879 "
      fill="#29B364" />
    <path
      d="m147.10592,42.01186c3.05792,-4.33378 5.434,-9.93212 6.67724,-15.06628l-10.65285,10.9715l3.97561,4.09479l0,-0.00001z"
      fill="#21A29F" />
    <path
      d="m154.72531,20.00614c0.30736,-6.28018 -0.78283,-12.86207 -3.48822,-19.00614l-1.41009,0.56705l-6.51603,6.68414l11.41435,11.75495l-0.00001,0z"
      fill="#12827F" />
    <polygon
      points="149.827618598938,1.567051887512207 140.57482624053955,5.286103248596191 143.31159687042236,8.250557899475098 "
      fill="#12827F" />
    <polygon
      points="128.62353229522705,52.85664749145508 143.12966632843018,37.91707229614258 128.81799030303955,23.203937530517578 114.32501697540283,38.13034439086914 "
      fill="#0C6355" />
    <polygon
      points="99.8188829421997,23.19076156616211 114.32501697540283,38.13034439086914 128.8054323196411,23.19076156616211 119.60533618927002,13.71529483795166 102.24201679229736,20.69550132751465 "
      fill="#1B974D" />
    <polygon
      points="102.24201679229736,20.69550132751465 98.75692462921143,22.09618377685547 99.8188829421997,23.19076156616211 "
      fill="#16669F" />
    <path
      d="m131.18781,55.49743c6.56998,-3.18274 11.9632,-7.88535 15.91811,-13.48558l-3.97623,-4.09479l-14.50614,14.93958l2.56426,2.64079z"
      fill="#44BFBD" />
    <polygon
      points="110.99675464630127,64.58210754394531 122.04916858673096,59.62734603881836 128.62353229522705,52.85664749145508 114.32501697540283,38.13034439086914 99.8188829421997,53.069923400878906 "
      fill="#0D5650" />
    <polygon
      points="114.32501697540283,38.13034439086914 99.8188829421997,23.19076156616211 85.24311542510986,38.058204650878906 99.80634021759033,53.05675506591797 "
      fill="#3FAF49" />
    <polygon
      points="99.8188829421997,23.19076156616211 98.75692462921143,22.09618377685547 77.78806781768799,30.526002883911133 85.24311542510986,38.058204650878906 "
      fill="#0D77B3" />
    <path
      d="m130.05308,56.04002c0.35252,-0.15744 0.7891,-0.37573 1.13472,-0.54258l-2.56426,-2.64079l-6.57374,6.7707l8.00328,-3.58733z"
      fill="#0C6355" />
    <polygon
      points="110.99675464630127,64.58210754394531 99.8188829421997,53.069923400878906 85.31336688995361,68.00949096679688 90.78249073028564,73.64295196533203 "
      fill="#12827F" />
    <polygon
      points="99.8188829421997,53.069923400878906 85.24311542510986,38.058204650878906 70.80723285675049,53.069923400878906 85.3002061843872,67.9969482421875 "
      fill="#4EB648" />
    <polygon
      points="85.24311542510986,38.058204650878906 77.78806781768799,30.526002883911133 56.920857429504395,38.9144287109375 70.80723285675049,53.069923400878906 "
      fill="#16669F" />
    <path
      d="m124.81291,108.83505c1.9025,-7.14392 2.10887,-15.01861 0.35315,-22.53827l-11.04802,11.37922l10.69487,11.15905z"
      fill="#FBB139" />
    <path
      d="m105.90651,89.36474l8.21153,8.31126l11.04802,-11.37922c-0.32869,-1.38877 -0.72136,-2.77251 -1.18616,-4.14936l-18.07339,7.21731l0,0.00001z"
      fill="#E2B523" />
    <polygon
      points="85.31336688995361,68.00949096679688 71.41505146026611,82.32368469238281 90.78249073028564,73.64295196533203 "
      fill="#189590" />
    <polygon
      points="71.36989307403564,82.34437561035156 85.31336688995361,68.00949096679688 70.80723285675049,53.069923400878906 56.42594623565674,67.73725891113281 70.83922290802002,82.58148956298828 "
      fill="#8EC63F" />
    <polygon
      points="70.80723285675049,53.069923400878906 56.920857429504395,38.9144287109375 54.65643787384033,39.824588775634766 41.65448474884033,53.069923400878906 56.42594623565674,67.73725891113281 "
      fill="#0D77B3" />
    <polygon
      points="54.65643787384033,39.824588775634766 36.054261207580566,47.302223205566406 41.65448474884033,53.069923400878906 "
      fill="#1953A2" />
    <path
      d="m114.6117,127.66304c0.88507,-0.98794 2.14964,-2.59061 2.94187,-3.64629l-3.17083,3.41107l0.22895,0.23522l0.00001,0z"
      fill="#ED3551" />
    <path
      d="m114.11804,127.70005l3.43616,-3.6833c3.33203,-4.58343 5.79342,-9.73327 7.25871,-15.1817l-10.69487,-11.15905l-14.31106,14.73948l14.31106,15.28457z"
      fill="#F8A561" />
    <polygon
      points="85.56616687774658,97.74876403808594 99.80634021759033,112.41484069824219 114.11801624298096,97.67601013183594 105.90648365020752,89.36473083496094 85.98141956329346,97.32095336914062 "
      fill="#E9B520" />
    <path
      d="m114.11804,127.70005l0.24338,0.25091c0.08531,-0.09534 0.16623,-0.19257 0.25028,-0.28791l-0.22832,-0.23522l-0.26533,0.27223l-0.00001,-0.00001z"
      fill="#EE4649" />
  </g>
</svg>