<?xml version="1.0" encoding="UTF-8" standalone="no"?>
<!DOCTYPE svg PUBLIC "-//W3C//DTD SVG 1.1//EN" "http://www.w3.org/Graphics/SVG/1.1/DTD/svg11.dtd">
<svg width="100%" height="100%" viewBox="0 0 99 103" version="1.1" xmlns="http://www.w3.org/2000/svg" xmlns:xlink="http://www.w3.org/1999/xlink" xml:space="preserve" xmlns:serif="http://www.serif.com/" style="fill-rule:evenodd;clip-rule:evenodd;stroke-linejoin:round;stroke-miterlimit:2;">
    <path d="M27.75,90.64C24.152,88.572 20.868,85.999 18,83C17.168,84.043 16.151,84.925 15,85.6C14.364,85.959 13.694,86.254 13,86.48C28.466,103.369 53.738,107.411 73.7,96.19C74.646,95.647 75.231,94.636 75.231,93.545C75.231,92.454 74.646,91.443 73.7,90.9C72.782,90.349 71.636,90.33 70.7,90.85C57.371,98.377 41.005,98.297 27.75,90.64Z" style="fill:rgb(230,231,232);fill-rule:nonzero;"/>
    <path d="M27.74,15.68C31.339,13.604 35.219,12.058 39.26,11.09C38.758,9.816 38.5,8.459 38.5,7.09C38.502,6.351 38.576,5.614 38.72,4.89C16.368,9.853 0.248,29.725 0,52.62C0.005,54.295 1.385,55.67 3.06,55.67C3.597,55.67 4.125,55.529 4.59,55.26C5.517,54.739 6.1,53.763 6.12,52.7C6.283,37.426 14.517,23.327 27.74,15.68Z" style="fill:rgb(230,231,232);fill-rule:nonzero;"/>
    <path d="M92.65,53.16C92.649,57.314 92.049,61.447 90.87,65.43C92.215,65.627 93.511,66.075 94.69,66.75C95.323,67.112 95.922,67.531 96.48,68C103.34,46.161 94.182,22.275 74.48,10.62C74.042,10.39 73.555,10.271 73.06,10.271C71.385,10.271 70.006,11.645 70,13.32C69.989,14.381 70.542,15.372 71.45,15.92C84.58,23.711 92.654,37.893 92.65,53.16Z" style="fill:rgb(230,231,232);fill-rule:nonzero;"/>
    <path d="M49.39,32.58C49.393,32.58 49.397,32.58 49.4,32.58C60.69,32.58 69.98,41.87 69.98,53.16C69.98,64.45 60.69,73.74 49.4,73.74C38.11,73.74 28.82,64.45 28.82,53.16C28.831,41.878 38.108,32.596 49.39,32.58M49.39,26.47C34.748,26.47 22.7,38.518 22.7,53.16C22.7,67.802 34.748,79.85 49.39,79.85C64.032,79.85 76.08,67.802 76.08,53.16C76.08,53.157 76.08,53.153 76.08,53.15C76.08,38.514 64.036,26.47 49.4,26.47C49.397,26.47 49.393,26.47 49.39,26.47Z" style="fill:rgb(230,231,232);fill-rule:nonzero;"/>
    <circle cx="49.38" cy="7.12" r="7.12" style="fill:rgb(245,131,32);"/>
    <circle cx="9.51" cy="76.17" r="7.12" style="fill:rgb(245,131,32);"/>
    <circle cx="89.25" cy="76.17" r="7.12" style="fill:rgb(245,131,32);"/>
    <path d="M55.29,48.29C55.29,48.287 55.29,48.285 55.29,48.282C55.29,45.045 52.627,42.382 49.39,42.382C46.153,42.382 43.49,45.045 43.49,48.282C43.49,50.408 44.639,52.375 46.49,53.42L44.63,62.85C44.617,62.916 44.61,62.983 44.61,63.05C44.61,63.599 45.061,64.05 45.61,64.05C45.617,64.05 45.623,64.05 45.63,64.05L53.2,64.05C53.207,64.05 53.213,64.05 53.22,64.05C53.769,64.05 54.22,63.599 54.22,63.05C54.22,62.983 54.213,62.916 54.2,62.85L52.33,53.42C54.165,52.368 55.297,50.405 55.29,48.29Z" style="fill:rgb(245,131,32);fill-rule:nonzero;"/>
</svg>
