<svg width="32" height="32" viewBox="0 0 32 32" fill="none" xmlns="http://www.w3.org/2000/svg">
<path d="M13.7811 28.7363C13.9753 28.9075 14.2762 28.909 14.7158 28.8824L14.7962 29.03C14.897 28.8115 15.284 28.7982 15.376 29.03C15.69 29.1909 15.5119 29.2499 15.2314 29.3237C14.8488 29.3031 14.4529 29.3533 14.0717 29.3237C13.8804 29.309 13.2786 29.0654 13.0566 29.03C13.2173 28.9311 13.3619 28.8337 13.4919 28.7363C13.5255 28.4381 13.6701 28.4514 13.7825 28.7363H13.7811Z" fill="#0C0C0C"/>
<path d="M17.118 29.0301C17.1078 29.1408 17.2188 29.2264 17.2626 29.3239H15.2324L15.377 29.0301C15.7918 28.7187 16.674 28.8722 17.118 29.0301Z" fill="#1D1D1D"/>
<path d="M5.80538 8.90898C5.62427 7.91703 4.83848 6.73763 5.81122 6.05124C6.12671 5.82834 7.41493 5.34566 7.10967 6.04533C6.91103 6.50292 5.30441 6.21656 6.05806 7.00037L12.9125 7.734C12.4787 7.76942 11.9661 7.59967 11.6068 7.88161C11.2752 8.29639 10.6253 8.31115 10.301 7.88161L8.56002 7.734C7.93051 8.02774 7.21045 8.08826 6.39983 7.91703C6.26984 8.02922 6.1194 8.16354 5.94852 8.32149C5.95436 8.59604 5.90616 8.79089 5.80392 8.90898H5.80538Z" fill="#0D0D0D"/>
<path d="M14.5073 4.9428C14.8929 4.99003 14.8753 5.12436 14.5073 5.23654C12.1119 5.14207 10.3651 5.54505 8.06617 5.84027C7.96685 5.85355 7.52575 6.04988 7.54766 5.75023C7.58418 5.24687 9.50483 4.9797 9.94008 4.94427C11.3919 4.82914 13.0263 4.97084 14.5073 4.94132V4.9428Z" fill="#0C0C0C"/>
<path d="M14.5059 5.23643V4.94269C15.6539 4.92054 16.9012 4.74046 18.0667 4.71094C18.5078 4.91759 18.4698 5.16705 18.0215 5.34566C16.9655 5.76488 15.5633 5.27924 14.5059 5.23791V5.23643Z" fill="#0A0A0A"/>
<path d="M6.52843 9.79001C6.98559 9.77821 7.22659 9.87563 7.25434 10.0838C7.36826 10.3834 7.32006 10.7259 7.10974 11.1126C7.24411 11.3547 6.89504 11.8241 6.67449 11.7001L6.46563 11.7193C6.3371 11.1082 6.16621 10.5148 5.95005 9.93762C5.90331 9.57745 5.80545 9.36932 5.80545 8.90878C5.80545 8.71541 5.73681 8.42166 5.95005 8.32129C6.39406 8.35376 6.70516 9.40918 6.5299 9.79001H6.52843Z" fill="#07090A"/>
<path d="M6.67317 11.699C6.99742 11.8215 6.79586 12.75 6.38252 12.2865C6.16197 11.4171 6.06119 10.8222 5.94727 9.93652C6.50666 10.372 6.3387 11.1189 6.67317 11.699Z" fill="#3F3F3F"/>
<path d="M7.25527 11.2591C7.38234 11.3005 7.37941 11.3492 7.25527 11.4068C6.91933 11.6518 6.95731 12.0636 6.96461 12.4356C7.02303 12.7382 6.728 13.181 6.52936 12.877C6.45487 12.6511 6.43589 12.4946 6.38477 12.2895C6.76305 12.1891 6.62138 11.7979 6.67542 11.702C6.73822 11.5898 7.10191 11.3935 7.11067 11.1145C7.32683 10.9359 7.40278 11.0171 7.25527 11.2621V11.2591Z" fill="#1C1F20"/>
<path d="M10.0119 27.5615L9.86726 28.0029C9.58975 27.3991 9.42909 26.7393 9.28741 26.0928C9.24651 25.7001 9.30202 25.6573 9.57806 25.9452C9.9841 26.1813 10.0235 27.0788 10.0133 27.5615H10.0119Z" fill="#353535"/>
<path d="M8.84968 23.1546C8.80878 23.283 8.76058 23.2816 8.70508 23.1546C8.61891 22.7206 8.51229 22.2675 8.41443 21.832C8.41151 21.6933 8.42319 21.6372 8.55902 21.6844C8.90664 21.9235 9.12719 22.8373 8.84968 23.1531V23.1546Z" fill="#2D2D2D"/>
<path d="M6.96309 13.1677C6.91197 12.533 6.82141 13.0127 6.74692 13.4615C6.4884 13.3139 6.58772 13.0541 6.5293 12.874C6.77759 12.7677 7.04342 12.7647 6.96455 12.4326C6.96893 12.6157 6.96017 13.1116 6.96455 13.1677H6.96309Z" fill="#224B5E"/>
<path d="M9.14033 24.0365C9.11842 24.131 9.01764 24.1841 8.99573 24.4779C8.72991 24.0911 8.78979 23.5774 8.70508 23.1553H8.84967C9.08337 23.3073 9.18122 23.6011 9.14033 24.0365Z" fill="#3E3E3E"/>
<path d="M8.27148 21.099C8.86594 20.7403 8.58697 21.0237 8.70673 21.3927C8.72426 21.592 8.67606 21.6894 8.56214 21.6864C8.53147 21.7455 8.46866 21.7912 8.41754 21.8341C8.36204 21.5875 8.32553 21.3396 8.27294 21.099H8.27148Z" fill="#1F1F1F"/>
<path d="M19.2924 28.7359C19.6035 28.9528 19.0558 29.0325 18.9375 29.037C18.3357 29.0606 17.7194 29.0281 17.1176 29.0296C16.7539 28.7506 17.4024 28.8244 17.6975 28.882C18.2379 28.8436 18.7564 28.8097 19.2924 28.7344V28.7359Z" fill="#C1C1C1"/>
<path d="M15.0878 8.02801C14.0275 8.00587 12.9569 8.06049 11.8965 8.02801C12.8312 7.78298 14.1531 7.78298 15.0878 8.02801Z" fill="#7A7A7A"/>
<path d="M14.7985 28.7358V29.0296C14.3705 29.0001 13.6519 29.223 13.7834 28.7358C14.1208 28.724 14.4611 28.7403 14.7985 28.7358Z" fill="#8D8D8D"/>
<path d="M10.3015 7.88007C9.74799 7.86974 8.99726 8.01144 8.56055 7.73246C9.1141 7.74279 9.86484 7.60256 10.3015 7.88007Z" fill="#8C8C8C"/>
<path d="M18.4232 7.58632C18.1646 7.59074 17.8477 7.91991 17.6973 7.4387C17.7864 7.34866 17.8959 6.87336 18.058 6.86007C18.3195 6.83941 18.6861 7.28371 18.4232 7.58632Z" fill="#E1CB38"/>
<path d="M24.9515 11.9927C25.023 12.2363 25.0508 12.3012 25.0961 12.5802C25.3181 13.0482 24.8302 13.3891 24.8054 13.4615L24.6608 12.1389C24.5352 11.7256 24.6813 11.6591 24.9515 11.9913V11.9927Z" fill="#0A100F"/>
<path d="M25.0957 11.2592C24.9715 11.7478 24.8503 11.6518 24.9511 11.9943C24.8138 11.9751 24.7524 12.074 24.6604 12.1419C23.3809 13.0704 22.6872 14.2291 21.0864 14.9111C18.6239 15.9606 14.1604 16.0993 11.9943 14.3192C10.6331 13.2003 11.6423 13.0423 12.3317 12.1419C12.1287 11.9323 12.2207 11.8423 12.4763 11.9943C12.5932 11.8526 12.8824 11.7079 13.0562 11.8467C13.3936 11.6533 13.5878 11.6533 13.636 11.8467H13.7806C13.9354 11.8349 14.0567 11.8836 14.1385 12.0105C13.6097 12.5818 13.563 12.7914 14.0713 13.3154C14.7081 13.3626 15.3551 13.3774 16.0124 13.3597L16.2461 13.6092C16.2928 13.1058 16.2826 12.5965 16.2592 12.0902C17.5197 11.6666 17.7826 11.8113 17.2962 13.0586L17.4072 13.4615L17.6818 13.246C18.3215 13.2947 18.9554 13.2682 19.5835 13.1678C19.6317 12.8741 19.9311 12.6792 20.4803 12.5847C20.5766 12.0902 20.7607 11.795 21.0338 11.6991C21.1434 11.612 21.2879 11.5618 21.4691 11.5515C21.5947 11.4895 21.7393 11.4408 21.9043 11.4038C21.9306 11.274 21.9803 11.2784 22.0489 11.4038C23.121 11.0112 24.1361 10.9625 25.0957 11.2562V11.2592Z" fill="#3797A7"/>
<path d="M15.6667 11.8468L16.3546 12.0121C16.2991 12.5494 16.264 13.0823 16.248 13.6093C15.8901 13.7274 14.8327 13.6787 14.431 13.6093C14.1301 13.5562 14.1301 13.351 14.0732 13.317C13.191 12.452 14.1287 11.8424 15.0883 11.8483C15.2957 11.7273 15.4914 11.6756 15.6681 11.8483L15.6667 11.8468Z" fill="#3DA2A3"/>
<path d="M18.4236 11.8466C19.1232 11.603 19.4314 12.6348 19.5833 13.1691C19.5673 13.175 19.5132 13.3773 19.3336 13.4245C18.6544 13.6061 18.0614 13.7197 17.4071 13.4629C17.1617 13.3965 17.4757 12.0547 17.5268 11.9956L17.9869 11.848C18.0643 11.7226 18.3156 11.7344 18.4222 11.848L18.4236 11.8466Z" fill="#3CA2A2"/>
<path d="M19.1487 11.699C19.7519 11.5853 20.4326 11.5986 21.0343 11.699C20.7831 13.1987 20.6108 12.8046 19.584 13.1677C18.8683 12.9035 19.0699 11.9676 18.4243 11.8451C18.2972 11.8038 18.3001 11.755 18.4243 11.6975C18.712 11.5322 18.9443 11.4082 19.1502 11.6975L19.1487 11.699Z" fill="#3EA9D5"/>
<path d="M17.9888 11.8465C17.5317 12.31 17.6748 12.9418 17.409 13.4629C17.2673 13.4068 17.0774 13.4496 16.9766 13.2444L17.4075 11.9956C16.2376 11.8377 16.2537 12.6953 16.5385 13.6105C16.4479 13.6312 16.3194 13.5869 16.2478 13.6105C15.9206 12.8414 16.556 12.1078 15.668 11.848C16.3413 11.5572 17.2556 11.7107 17.9888 11.848V11.8465Z" fill="#3EA9D7"/>
<path d="M15.0863 11.8463C14.6365 12.0293 13.8507 12.1327 13.9193 12.7925C13.9427 13.0154 14.337 13.2442 14.0712 13.315C13.8448 13.1822 13.5235 13.2427 13.4826 12.7925C13.4388 12.2906 14.0844 12.2212 13.7806 11.8463C14.2129 11.8286 14.6525 11.8537 15.0863 11.8463Z" fill="#3EA9D7"/>
<path d="M19.3892 11.8698C20.6424 11.4683 21.0996 12.6373 20.0932 12.7392C19.2432 12.8248 18.8109 12.0558 19.3892 11.8698Z" fill="#3CA2A3"/>
<path d="M25.9667 6.55943C25.993 6.56239 26.0558 6.679 26.1113 6.70704V7.73589L25.2408 13.0233C25.2189 12.7738 25.1079 12.6572 25.0962 12.5819C24.8202 12.6321 24.7457 12.1524 24.9516 11.9945C24.3762 11.9118 24.6405 11.3937 25.0962 11.2594L24.8976 10.8357C25.1254 9.80391 25.1459 8.74259 25.1035 7.69161C24.7486 7.85398 24.5047 7.82003 24.3703 7.58828C24.2841 7.67242 24.1936 7.75065 24.0943 7.81412C23.5889 8.13149 17.7831 8.62155 17.269 8.37209C17.1639 8.32043 17.0675 8.25105 16.9725 8.17577C16.4686 8.54922 15.474 8.52265 15.0869 8.02816C14.0295 7.89383 12.9545 7.91893 11.8956 8.02816C11.6312 8.32781 11.5509 8.27319 11.6049 7.88055L11.5859 7.71522C12.027 7.67389 12.4681 7.6798 12.9107 7.73294C14.3201 7.61928 15.7529 7.43919 17.1726 7.68865C17.269 7.68127 17.6327 7.50414 17.697 7.43919C18.0548 7.30192 18.2958 7.3521 18.4229 7.5868C18.5602 7.58533 18.7164 7.5868 18.8581 7.5868L19.2043 7.29011C20.8649 7.3093 22.5052 7.10412 24.1074 6.65538L24.5164 6.8517C24.623 6.36606 25.7871 5.96752 25.9667 6.55796V6.55943Z" fill="#050503"/>
<path d="M22.7757 0.830304C23.4402 1.86358 24.21 3.08432 24.54 4.28292C24.689 4.82612 24.7679 5.32062 24.5517 5.85054C24.8833 6.24318 25.1067 6.61516 24.5167 6.85134C22.2046 7.46245 21.2523 7.57611 18.8599 7.58644C18.578 7.3355 19.0585 7.08604 19.0045 7.0019C18.984 6.96943 18.5342 7.07718 18.6671 6.44393C18.7197 6.19447 18.9753 5.63946 19.1462 5.45494C19.6296 4.93093 20.0225 5.40918 19.7304 4.50286C19.7567 4.13235 19.9013 3.93603 20.1656 3.91537C19.8589 3.68805 20.0868 3.24964 20.4563 3.32788C20.744 2.66806 21.0595 2.01562 21.3356 1.35285C21.5517 0.834733 21.3063 0.421423 21.9081 0.0966797C22.2543 0.118821 22.8633 0.440612 22.7786 0.83178L22.7757 0.830304ZM22.9203 1.85915C22.5288 1.74254 22.5128 2.24146 22.4879 2.59277C22.7917 2.47026 22.9802 2.1957 22.9203 1.85915ZM21.6569 2.09533L21.0902 3.13008L21.3107 3.25407L21.8774 2.21932L21.6569 2.09533ZM22.0512 4.50138C22.5522 4.07183 23.5016 3.87846 23.3541 3.03265C23.2182 3.28064 21.838 4.26373 22.0512 4.50138ZM23.0663 6.85282C24.226 6.26828 23.0546 6.00553 23.7908 5.60551C23.0751 5.15825 24.1618 4.18697 23.2109 4.35672C23.636 5.12134 22.8399 5.27781 22.1958 5.23796L22.6296 5.60403L22.3404 5.82249C23.3176 5.37523 23.8258 6.21071 22.9203 6.70521C22.4149 6.98124 21.9212 6.92957 21.3984 7.00338C21.1282 7.04176 20.9704 6.85724 21.0347 7.2927C21.7489 7.15099 22.4032 7.18642 23.0649 6.85282H23.0663ZM21.6145 5.235L21.4685 4.79513C21.0157 5.03425 20.5337 5.14053 20.0196 5.09182C20.0137 5.29405 20.7134 5.32948 20.8419 5.328C21.1019 5.32652 21.3516 5.21434 21.6145 5.235ZM20.8901 6.2668C20.4373 6.13248 19.8852 6.0572 20.021 6.70521L20.8901 6.2668Z" fill="#F4D81E"/>
<path d="M22.9195 0.830572C23.568 1.32212 23.7111 1.41806 23.3504 1.11694L23.4993 0.976706H23.6439C24.9862 2.39672 25.975 4.56069 25.9648 6.55786C25.4127 6.49734 25.0066 6.72171 24.5144 6.85161C24.8241 6.4442 24.2691 6.05303 24.2705 5.89804C24.2749 5.42864 24.5422 5.50392 24.2954 4.50165C23.9302 3.02111 23.0641 2.24616 22.7734 0.829096C22.8216 0.70215 22.8698 0.70215 22.918 0.829096L22.9195 0.830572Z" fill="#D6AE2E"/>
<path d="M23.6458 0.976528H23.5012C23.3508 1.09314 23.158 1.04443 22.9213 0.828917C22.879 0.814156 22.8191 0.843678 22.7767 0.828917C22.4174 0.706401 22.0874 0.433321 21.9062 0.0938166C22.5708 -0.264877 23.1857 0.486461 23.6472 0.975052L23.6458 0.976528Z" fill="#CFAC3B"/>
<path d="M20.1636 3.91404C20.0423 4.17088 20.1563 4.60043 19.7283 4.50153C19.5896 4.07493 19.3646 4.37458 19.7283 3.62029C19.9284 3.24093 20.314 3.52287 20.1636 3.91404Z" fill="#A2A095"/>
<path d="M19.7285 3.62041C19.9534 3.15396 20.1579 2.69784 20.4544 3.32667C20.3493 3.56875 20.2558 3.72079 20.1638 3.91416L19.7285 3.62041Z" fill="#ABA99D"/>
<path d="M24.3688 7.58652L24.7397 7.57471C24.7193 9.09657 23.8225 11.4082 22.0479 11.4052C21.9997 11.4052 21.9515 11.4052 21.9033 11.4052C21.2665 11.4598 20.637 11.5085 20.0177 11.5528C19.8308 11.6812 19.378 11.6798 19.1472 11.5528C19.0055 11.5321 18.6682 11.5321 18.1321 11.5528C17.9437 11.6502 17.7553 11.5499 17.6297 11.3801C17.3011 11.6812 16.3152 11.6871 16.8264 11.1115C16.5197 10.8413 16.6949 10.3837 17.117 10.3764C17.2792 9.16447 16.7212 9.90105 16.3911 10.524C16.6803 10.9712 16.2524 11.4716 15.8113 11.5528C15.4929 11.9543 13.9797 11.8761 14.9408 11.2591C15.8639 10.3395 15.8142 10.3395 14.7962 11.2591L14.7392 11.6L13.6365 11.8466C13.4656 11.8554 13.0844 11.8421 13.0566 11.8466C13.8702 11.0317 14.7465 10.2155 15.6681 9.4966C15.5308 9.26337 15.7236 9.01834 16.248 8.7615C16.2144 8.45447 16.4554 8.25962 16.9739 8.17401C19.3108 8.18877 22.0172 7.83007 24.3717 7.58652H24.3688Z" fill="#F5D81E"/>
<path d="M24.3697 7.58692C24.5756 7.56625 25.0138 7.29317 25.3862 7.43931C25.4359 8.83423 25.4388 9.91474 25.0956 11.258C24.079 11.4071 23.0756 11.4233 22.0488 11.4056C23.3984 11.0469 24.0644 9.55604 24.4135 8.29102C24.4719 8.07699 24.6472 7.73158 24.3697 7.58692Z" fill="#D6AE2E"/>
<path d="M22.9198 6.70541C23.8268 6.21091 23.3185 5.37544 22.3399 5.8227L22.6291 5.60424L22.1953 5.23816C22.8394 5.27654 23.6354 5.12155 23.2104 4.35693C24.1612 4.1857 23.0746 5.15698 23.7903 5.60571C23.0527 6.00574 24.2255 6.26848 23.0658 6.85302C22.8803 6.90616 22.8336 6.8914 22.9212 6.70541H22.9198Z" fill="#F5F3E5"/>
<path d="M22.0517 4.50144C21.8384 4.26379 23.2172 3.2807 23.3545 3.03271C23.502 3.87705 22.5526 4.07189 22.0517 4.50144Z" fill="#F3F0D8"/>
<path d="M23.066 6.85318C22.4043 7.18678 21.75 7.15135 21.0358 7.29306C20.9715 6.85761 21.1293 7.04212 21.3995 7.00374C21.9224 6.92993 22.4146 6.9816 22.9214 6.70557L23.066 6.85318Z" fill="#E7DC8E"/>
<path d="M20.8896 6.26699L20.0206 6.70539C19.8862 6.05738 20.4368 6.13266 20.8896 6.26699Z" fill="#E4DA95"/>
<path d="M21.657 2.0957L21.8776 2.2197L21.3123 3.25445L21.0918 3.13045L21.657 2.0957Z" fill="#EBE5BB"/>
<path d="M22.9187 1.85908C22.9771 2.19563 22.7901 2.47019 22.4863 2.5927C22.5112 2.24139 22.5287 1.74247 22.9187 1.85908Z" fill="#F4F1DD"/>
<path d="M23.4993 0.976824L23.6439 1.4167C23.454 1.56284 23.0173 1.03144 22.918 0.83069C22.9486 0.841023 23.289 0.712601 23.4978 0.9783L23.4993 0.976824Z" fill="#EEE8D5"/>
<path d="M14.943 11.2588L14.7984 11.6987C15.1489 11.7917 15.5155 11.5658 15.8135 11.5525C16.1289 11.2116 16.3217 11.2116 16.3933 11.5525C16.7029 11.2868 16.7687 11.3459 16.9921 11.5688C17.4829 11.2839 17.8641 11.3267 18.1343 11.7001C18.2249 11.6057 18.3271 11.6071 18.425 11.7001V11.8478C18.2994 11.8241 18.1299 11.8551 17.9897 11.8478C17.2244 11.8079 16.4357 11.8478 15.6689 11.8478C15.4761 11.8478 15.2818 11.8448 15.089 11.8478C14.5223 12.0559 14.0871 12.0559 13.7833 11.8478C13.7351 11.8492 13.6869 11.8448 13.6387 11.8478C13.9936 11.5968 14.4215 11.4773 14.7984 11.2603H14.943V11.2588Z" fill="#E8F0EC"/>
<path d="M15.6679 9.49658C14.8734 10.3498 14.0014 11.1528 13.0564 11.8465C12.8884 11.8716 12.665 12.1801 12.4766 11.9942C12.5364 11.9085 12.5657 11.7905 12.6212 11.7004C13.775 11.4864 14.5491 9.87004 15.6679 9.49658Z" fill="#DFE9E3"/>
<path d="M20.0195 11.5528L20.1641 10.9668C20.5424 10.8546 20.5088 11.3639 20.7002 11.4096C20.9908 11.4775 21.5502 11.3978 21.9051 11.4067C21.8043 11.6015 21.6057 11.5174 21.4699 11.5543C21.001 11.6399 20.4723 11.7181 20.0195 11.5543V11.5528Z" fill="#F3F1E3"/>
<path d="M20.0194 11.5527C20.5014 11.5704 20.9878 11.5394 21.4697 11.5527C21.3471 11.5852 21.2989 11.6797 21.0345 11.7003C20.4313 11.7461 19.7638 11.6944 19.1489 11.7003C19.0218 11.659 19.0247 11.6103 19.1489 11.5527C19.1971 11.5867 19.8368 11.5454 20.0194 11.5527Z" fill="#6CBDDF"/>
<path d="M18.1336 11.5527C18.2607 11.594 18.2578 11.6427 18.1336 11.7003C17.5158 11.7003 16.8644 11.5645 16.3926 11.5527C16.0873 11.2324 16.4554 10.8146 16.8279 11.1113C16.8439 11.4198 16.6789 11.6531 17.1346 11.4907C17.5479 11.3446 17.6852 10.0677 17.84 9.56585C17.9218 9.3031 18.0197 8.72594 18.2767 8.61523C18.4462 9.58504 17.2806 10.8087 18.1336 11.5527Z" fill="#F1F4ED"/>
<path d="M20.5991 9.05554C20.8167 9.13968 20.9219 9.30648 20.7437 9.4969C21.2666 10.0239 22.3401 10.3147 23.0645 10.2335C22.8469 10.7826 21.715 10.3353 21.3235 10.1582C20.621 9.84378 20.1186 9.21939 19.584 8.68799C19.9287 8.57729 20.2266 8.9345 20.5991 9.05554Z" fill="#F5F2E2"/>
<path d="M17.1183 10.3779C17.0145 10.6067 16.9956 10.862 16.8276 11.113C16.7633 11.2075 16.4259 11.3196 16.3923 11.5543C16.2492 11.5514 15.9425 11.5484 15.8125 11.5543C16.0783 11.2724 16.1893 10.8119 16.3923 10.5255C16.7692 9.76677 17.3826 9.17781 17.1183 10.3779Z" fill="#F2D724"/>
<path d="M14.9434 11.2593C14.9084 11.2815 14.8353 11.2387 14.7988 11.2593L16.683 9.20312C16.4493 9.88951 15.5437 10.8933 14.9434 11.2593Z" fill="#EDE8C8"/>
<path d="M17.117 10.3774L17.0455 9.78995C16.8819 10.0335 16.543 10.3125 16.3926 10.5236L16.7636 9.6512C17.9379 8.93971 17.4033 9.74419 17.1185 10.3774H17.117Z" fill="#F2EFD4"/>
<path d="M20.6001 9.05519C21.1989 9.25003 21.8781 9.20575 22.3396 9.71648C21.8503 9.85966 21.2325 9.03157 20.7447 9.49507C20.5986 9.34746 20.5665 9.26922 20.6001 9.05371V9.05519Z" fill="#EDE8C4"/>
<path d="M19.0792 8.64062L19.6722 9.74032L19.3684 9.90712L18.7754 8.8089L19.0792 8.64062Z" fill="#EFEAC8"/>
<path d="M18.1323 11.5526C18.5384 11.6544 18.737 11.374 19.0744 11.2529C19.1985 11.2515 19.1328 11.5408 19.1474 11.5526V11.7002C18.9064 11.7031 18.664 11.7002 18.4215 11.7002C18.3251 11.7002 18.2287 11.7002 18.1309 11.7002V11.5526H18.1323Z" fill="#F1F1E1"/>
<path d="M23.7929 8.76141C23.8528 8.46914 23.4409 7.70305 23.8616 7.88165C24.199 8.02484 24.1639 8.68613 23.7929 8.76141Z" fill="#F2F0E6"/>
<path d="M25.2409 13.0215C25.5374 16.4859 24.7078 22.7284 24.2243 26.3124C23.9439 28.3937 23.4414 28.3789 21.5193 28.8705L18.8596 29.3251H17.2647C16.9156 29.2513 16.8674 29.1539 17.1201 29.0314C18.1279 29.0476 18.8523 28.9502 19.2963 28.7376C19.1152 28.5162 19.1839 28.3819 19.4482 28.3213L21.4901 28.0911C22.1766 27.9317 23.0383 27.7206 22.9551 26.9028C23.4502 26.584 23.6152 26.0821 23.6445 25.5064C23.6532 22.5616 23.8621 19.5931 24.2681 16.5966L24.5252 16.0018C24.1995 15.4143 24.1045 15.091 24.5179 14.5035C24.401 13.8939 24.4974 13.547 24.8071 13.4629C24.8465 13.1116 24.9429 12.8178 25.0977 12.5816C25.2277 12.5196 25.2759 12.6672 25.2423 13.023L25.2409 13.0215Z" fill="#020203"/>
<path d="M7.25463 11.4054C7.76729 11.5029 8.15288 11.5029 8.41433 11.4054C8.79261 11.1899 9.28483 11.2106 9.89242 11.466C10.4036 11.4512 10.7805 11.5781 11.0244 11.8468C11.6597 11.742 12.095 11.8394 12.3301 12.1405C12.4586 12.4638 12.26 12.8077 11.7327 13.1738C11.1558 13.9163 13.6315 14.9156 14.2186 15.0706C17.9562 16.0655 21.723 15.0086 24.2557 12.0785L24.6603 12.1391C25.0312 12.3059 24.9947 13.0749 24.8048 13.4617C24.7318 13.6875 24.8501 14.2278 24.799 14.5569C24.7581 14.8167 24.4777 14.9894 24.5084 15.2861C24.5332 15.5267 24.8253 15.6847 24.8092 16.0183C24.7975 16.2604 24.5536 16.4965 24.523 16.774C24.282 18.907 24.1213 21.2275 23.9373 23.3767C23.8365 24.5443 24.3214 26.5754 23.0668 27.123L23.3545 27.34C22.4154 28.6065 20.8628 28.3954 19.5234 28.5991C19.4051 28.6168 19.3233 28.7305 19.2941 28.7349C18.8589 29.0213 18.2118 28.98 17.6992 28.8825C16.7717 28.8988 15.8486 28.8988 14.9285 28.8825L14.7985 28.7349C14.5385 28.9667 14.039 28.98 13.7834 28.7349C13.687 28.7379 13.5891 28.7275 13.4927 28.7349C13.4562 28.8648 13.408 28.8604 13.3481 28.7349C13.1203 28.6877 12.9757 28.5903 12.9129 28.4412C12.3111 29.1379 10.6286 28.0648 10.7366 27.2662C10.2941 26.9739 10.0545 26.0676 10.3014 25.6499C10.1845 25.2262 10.0122 24.8173 9.78726 24.4247C9.83108 23.9848 9.72008 23.6438 9.45425 23.4003L8.76194 20.9234L8.5414 20.7551L7.90459 17.9033C7.78044 16.7652 7.56281 15.7245 7.25463 14.7813C7.2152 14.2219 6.99903 13.6344 6.96398 13.165C6.85152 12.8948 6.84713 12.7325 6.95084 12.6764L6.96398 12.4313C6.51412 12.4181 6.83545 11.4246 7.25463 11.4025V11.4054Z" fill="#008FD0"/>
<path d="M7.25537 14.7841C7.63219 14.7015 7.55332 14.9745 7.61467 15.221C8.1989 17.5503 8.68527 21.0576 9.64632 23.1581C9.83619 23.5743 10.0918 23.5478 10.1371 23.6142C10.1546 23.6407 9.98809 23.9743 10.0305 24.2209C10.0933 24.5928 10.4496 24.7552 10.5913 24.9914C10.6103 25.0224 10.067 25.1685 10.3021 25.6512C10.1312 25.6173 9.98955 25.6763 9.86687 25.7988C9.77923 25.8151 9.71059 25.8254 9.70182 25.8062C9.51779 25.3855 9.3951 24.922 9.28556 24.4777C9.1804 24.7892 9.084 24.8379 8.99491 24.6253C8.99345 24.5781 8.99199 24.5264 8.99491 24.4777C8.88098 24.1279 8.92918 23.9803 9.1395 24.0363C9.03434 23.1344 8.88828 22.2532 8.70425 21.3926C8.56258 21.341 8.41798 21.2436 8.269 21.0989C7.70668 18.588 7.43648 17.3378 7.25391 14.7826L7.25537 14.7841Z" fill="#040405"/>
<path d="M10.7342 27.2675C11.815 28.1753 11.1987 28.2034 12.9105 28.4425C13.0229 28.5739 13.1675 28.6728 13.3457 28.7362C13.3925 28.7303 13.4421 28.7407 13.4903 28.7362C13.5575 29.1289 13.3983 29.0359 13.0551 29.03C13.0258 29.0255 12.8871 29.1185 12.7527 29.0934C12.2386 28.9945 10.2858 28.5488 9.95573 28.3052C9.79799 28.1886 9.89146 28.0631 9.86371 28.0011C9.77754 27.6749 9.82574 27.5288 10.0083 27.5598C9.93674 27.1967 9.98494 26.9516 10.1529 26.8247C10.3384 26.7966 10.5312 26.9428 10.7328 27.266L10.7342 27.2675Z" fill="#090A0A"/>
<path d="M9.57545 25.9463L9.28479 26.0939C9.18401 25.6363 9.01459 25.0828 8.99414 24.6252C9.07301 24.5883 9.22053 24.4643 9.28479 24.4776C9.50534 25.0252 9.60174 25.5153 9.57545 25.9463Z" fill="#373737"/>
<path d="M17.697 28.884C17.4736 28.9002 17.1391 28.7881 17.1172 29.0316C16.7652 29.0316 16.4146 29.3593 16.0261 28.884C15.883 29.4213 15.715 29.0434 15.3762 29.0316C15.1834 29.0257 14.9877 29.0449 14.7963 29.0316C14.4107 28.9844 14.4283 28.85 14.7963 28.7379C15.718 28.7261 16.828 28.6227 17.697 28.8855V28.884Z" fill="#020202"/>
<path d="M16.2474 8.76126C16.2547 9.15686 15.8881 9.25871 15.6676 9.49636L13.3453 11.4994C13.0327 11.7858 12.7917 11.8522 12.6223 11.6987C12.2046 11.9039 11.6729 11.9541 11.0273 11.8463C10.1364 11.9083 9.27758 11.6146 8.41584 11.405C8.19091 11.6721 7.55556 11.3932 7.25615 11.2574C7.24592 11.2544 7.12615 11.1275 7.11155 11.1097C6.80483 10.7437 6.99324 10.3983 7.25615 10.0809C7.21817 9.982 7.19042 9.90377 7.20795 9.89196C7.817 9.50079 8.87592 9.30447 9.57699 9.49341C9.84136 9.21148 10.4227 9.12586 10.7367 9.3458C11.1544 9.10815 11.6379 9.05944 12.187 9.19819C12.9348 9.10962 13.9631 8.84393 14.613 8.78783C15.1403 8.74207 15.542 8.99744 16.2489 8.75684L16.2474 8.76126Z" fill="#25A8DF"/>
<path d="M13.7836 21.9801C13.0256 22.3491 11.4029 21.5461 11.4628 20.6575L11.7023 20.3992C13.7471 20.8051 12.1814 18.7548 11.7768 20.2811L11.4628 20.3638C10.8917 20.2841 11.1487 19.1666 11.6074 18.895C11.7257 18.7888 11.9024 18.5216 12.0426 18.4537C14.9725 16.3901 17.6965 21.2922 13.7836 21.9786V21.9801Z" fill="#FCFCFC"/>
<path d="M17.4088 24.0366C17.1751 24.1119 17.067 24.0484 17.0188 23.8344C17.1634 24.3008 17.1006 24.6138 16.829 24.7702C16.956 24.8116 16.9531 24.8603 16.829 24.9179C16.477 24.9208 15.7569 25.0876 15.5875 24.937C15.2282 24.6167 15.3319 23.7222 15.088 23.303C15.3202 22.9266 15.7744 22.779 16.4521 22.8587C19.3484 23.3325 17.308 22.1752 15.8066 22.6948C15.2837 22.7657 15.0441 22.6255 15.088 22.2756H14.9434C15.8708 21.1095 17.1561 21.0165 18.0515 22.286C18.7963 23.3428 18.2253 23.4108 17.4088 24.0381V24.0366Z" fill="#030405"/>
<path d="M18.3828 17.605C20.7036 17.0751 22.7397 19.6361 20.9622 21.3912C18.9217 23.4076 15.0921 20.5321 17.4042 18.2294C17.5824 18.0523 18.152 17.6567 18.3828 17.605Z" fill="#050709"/>
<path d="M15.0876 22.2734C15.7829 22.7443 18.1738 21.6653 18.1315 22.9421C18.1096 23.6285 16.7585 23.1443 16.3233 23.1443C15.8617 23.1443 15.4922 23.2875 15.0876 23.3023C15.0424 23.3038 14.9869 23.3097 14.943 23.3023C14.426 23.0617 14.6977 22.5318 15.0876 22.2734Z" fill="#BC9466"/>
<path d="M14.0701 22.1279C13.8554 22.1648 13.759 22.1161 13.7794 21.9803C17.2235 21.0725 15.202 16.9261 12.0384 18.4553C11.8267 18.1955 12.6008 17.9269 12.7249 17.9018C16.1105 17.211 17.0876 21.4016 14.0701 22.1279Z" fill="#090D0F"/>
<path d="M11.6068 18.8965C11.4359 19.3172 11.0956 19.9711 11.4622 20.3652C11.8478 20.4036 11.8215 20.5291 11.4622 20.659C11.8069 21.6804 12.9081 21.8443 13.783 21.9815C13.8327 21.9889 13.9627 22.1395 14.0737 22.1292C13.282 22.3196 13.0615 22.3506 12.2874 21.955C11.3921 21.4974 10.5566 19.9017 11.2519 19.0441C11.3789 18.8876 11.5761 18.926 11.6082 18.8965H11.6068Z" fill="#0E161A"/>
<path d="M17.4075 24.0363C17.4441 24.1264 17.5463 24.2622 17.5521 24.3301C17.4966 24.798 17.2615 25.046 16.8262 24.7714L16.6816 23.4503C17.2337 23.3868 17.2483 23.6525 17.4061 24.0378L17.4075 24.0363Z" fill="#F4F4F4"/>
<path d="M9.86488 25.7987C9.75679 25.2289 10.1088 25.1596 10.3001 25.6511C10.4696 26.0851 10.4316 26.8157 10.7354 27.2674C10.6375 27.1848 10.2534 27.1405 10.1555 26.8261C9.85757 26.6873 9.69691 26.0762 9.86488 25.7972V25.7987Z" fill="#D8D8D8"/>
<path d="M12.6203 11.6992C12.873 11.807 12.7123 11.9634 12.4757 11.993C12.4582 12.0181 12.3852 12.0697 12.3311 12.1406L11.0254 11.8468C11.5293 11.5915 12.15 11.7878 12.6203 11.6992Z" fill="#021923"/>
<path d="M8.41555 11.4054C8.51487 12.0623 7.6283 11.4113 7.25586 11.4054V11.2578C7.51584 11.3301 8.01536 11.308 8.41555 11.4054Z" fill="#07090A"/>
<path d="M13.7809 25.7986C13.9343 25.9034 13.8861 25.9521 13.6364 25.9462C13.077 25.8665 12.7001 25.7558 12.186 25.6525C12.0589 25.6112 12.0619 25.5625 12.186 25.5049C12.7177 25.6008 13.2449 25.7071 13.7809 25.7986Z" fill="#10303E"/>
<path d="M15.0874 22.2734C14.8055 22.5893 14.6799 22.9229 14.9428 23.3023C14.0811 23.1532 14.6507 22.641 14.9428 22.2734H15.0874Z" fill="#1F2E33"/>
<path d="M12.1851 25.5049V25.6525C11.836 25.5817 11.2094 25.8489 11.0254 25.3603C11.4387 25.285 11.801 25.437 12.1851 25.5049Z" fill="#050E12"/>
<path d="M13.7833 25.7988C14.0462 25.8431 14.6786 25.7782 14.7984 26.0911C14.366 26.2299 13.941 25.9892 13.6387 25.9464L13.7833 25.7988Z" fill="#0E6085"/>
<path d="M16.8281 24.9171V24.7695C17.2006 24.8389 17.3583 24.5953 17.554 24.3281C17.6533 25.3909 17.2006 24.9127 16.8281 24.9156V24.9171Z" fill="#0E171B"/>
<path d="M12.9118 28.4427C13.2244 28.4869 13.4172 28.2891 13.3471 28.7364C13.033 28.7777 12.4999 29.2132 12.9118 28.4427Z" fill="#334750"/>
<path d="M9.86506 25.7987C9.99506 26.1913 10.1046 26.3566 10.1557 26.8275C10.1835 27.0844 10.0988 27.5552 10.1543 27.8549H10.0126C9.99359 27.7634 10.0374 27.6231 10.0111 27.5611C9.73946 26.9279 9.72485 26.5766 9.57587 25.9448C9.46633 25.4798 9.14938 25.0414 9.28522 24.4761C9.41813 24.5041 9.79642 25.5891 9.86506 25.7987Z" fill="#F1F1F1"/>
<path d="M9.14185 24.0363C9.06152 23.7632 8.90086 23.4193 8.8512 23.155C8.76941 22.7122 8.86581 22.0849 8.56055 21.6863C8.6029 21.6037 8.58099 21.4561 8.70514 21.3926C9.02355 22.3727 9.36824 23.0355 9.14039 24.0363H9.14185Z" fill="#DDDDDD"/>
<path d="M9.4295 9.3493C9.66903 9.23711 9.73184 9.26664 9.57409 9.49691C9.03806 9.57662 8.54001 9.59286 7.97331 9.71242C7.70748 9.76851 7.32043 10.0829 7.25325 10.0844C7.21381 10.0844 6.62082 9.86594 6.52734 9.79065C7.45188 9.78623 8.49619 9.00241 9.42804 9.3493H9.4295Z" fill="#1B1E1F"/>
<path d="M10.7359 9.05566C11.1215 9.1029 11.104 9.23722 10.7359 9.34941C10.3416 9.3996 9.97205 9.4365 9.57624 9.49702C9.53826 9.44536 9.4886 9.37155 9.43164 9.34941C9.78364 9.05862 10.3036 9.07928 10.7374 9.05566H10.7359Z" fill="#111212"/>
<path d="M12.1867 9.20287C11.7076 9.25896 11.2169 9.28848 10.7363 9.35048V9.05673C11.1687 9.03312 11.8697 8.95488 12.1867 9.20434V9.20287Z" fill="#323637"/>
<path d="M11.4617 20.6587C11.4574 20.6454 11.4588 20.3797 11.4617 20.365C11.9452 17.77 14.7641 21.2521 11.4617 20.6587Z" fill="#070707"/>
<path d="M16.0313 23.3057C16.6053 23.6644 16.471 24.9619 15.7436 24.7714C15.3011 24.6548 15.8561 23.3027 16.0313 23.3057Z" fill="#EBEBEB"/>
<path d="M17.4078 20.6589C17.4706 20.3946 17.7029 20.2987 18.106 20.374C18.0461 20.0404 18.2097 19.9193 18.493 19.7791C17.9614 19.0027 17.7116 19.4721 17.5349 20.2086L17.2632 20.3666C16.4789 17.6845 20.3173 17.0144 21.1644 19.1326C22.1182 21.515 18.5427 22.7933 17.4078 20.6603V20.6589Z" fill="#FCFCFC"/>
<path d="M17.2619 20.3649C17.1509 19.9781 17.5818 19.1338 17.9352 19.0659C18.4129 18.9744 19.5083 20.3486 18.277 20.0726C18.9372 20.8048 17.9352 20.6631 17.4065 20.6586C17.3788 20.6055 17.2663 20.3811 17.2619 20.3649Z" fill="#070707"/>
</svg>
