<svg width="30" height="32" viewBox="0 0 30 32" fill="none" xmlns="http://www.w3.org/2000/svg">
<path d="M6.11847 8.02987C6.52351 7.71132 6.96705 7.52423 7.48256 7.46524C9.20316 7.26804 12.0452 7.39614 13.8494 7.4585C15.2504 7.50738 17.5534 7.54446 18.8522 7.81413C19.2506 7.89672 19.5519 8.05009 19.7594 8.41752C21.2155 11.5609 23.4282 14.6453 24.8927 17.7431C25.5572 19.1505 25.3564 19.4134 24.7019 20.7584C23.6023 23.0203 21.6072 26.2176 20.2247 28.3851C19.3527 29.752 19.0096 30.4042 17.1902 30.4026C14.8821 30.3992 12.3247 29.9003 10.0082 30.234C8.01146 30.5205 4.28908 34.4173 3.88738 29.6273C3.75181 28.016 4.14514 27.1581 3.41204 25.5552C2.53501 23.6372 0.77926 21.3787 0.128177 19.4252C-0.228328 18.3566 0.225254 17.6808 0.677162 16.7925C2.16678 13.8548 4.49997 10.9406 6.12014 8.03155L6.11847 8.02987ZM6.89843 28.1963C7.96292 27.7817 9.0157 27.3182 10.1656 27.1867C12.4686 27.2963 14.8169 27.5811 17.1049 27.4362L17.5819 26.9052L22.1261 19.0055C20.4774 16.3071 19.2054 13.3677 17.4429 10.7519C14.3064 10.7384 11.1966 10.3676 8.06669 10.5816L3.34677 18.2993C2.86641 19.1387 3.62963 19.5297 3.94596 20.1297C4.90334 21.9433 6.68921 24.8557 6.89508 26.767C6.94529 27.2356 6.8683 27.7261 6.89843 28.1963Z" fill="#F2535F"/>
<path d="M28.7239 12.4238C28.1481 12.8671 26.4376 14.1093 25.743 14.0385C24.8777 13.9509 23.6759 12.139 24.3822 11.3367C24.5161 11.185 27.3079 9.30744 27.4904 9.24339C28.3072 8.96024 28.7959 9.10182 29.3248 9.74229C30.5801 11.2659 29.9156 11.507 28.7239 12.4238Z" fill="#F5515F"/>
<path d="M14.0101 0.0492527C14.2562 0.123413 14.4018 0.715006 14.4319 0.972881C14.5022 1.5847 14.529 4.50896 14.3934 4.98594C14.134 5.89609 11.4627 5.98036 11.2535 4.84942C11.1363 4.21738 11.148 1.31503 11.2367 0.632419C11.2418 0.59871 11.5497 0.0509381 11.5832 0.0509381C12.1305 0.0509381 13.6335 -0.0636726 14.0101 0.0509381V0.0492527Z" fill="#F5515F"/>
</svg>
