<svg version="1.2" xmlns="http://www.w3.org/2000/svg" viewBox="0 0 264 264" width="128" height="128">
	<title>growth-book-logo-color</title>
	<style>
		.s0 { fill: #029dd1 } 
		.s1 { fill: #0047bd } 
		.s2 { fill: #4817a1 } 
	</style>
	<g id="logo_mark">
		<path id="book3" fill-rule="evenodd" class="s0" d="m88.3 94.3l167.4-94.2c0 0-15.8 13.9-15.1 43.9 0.7 32.1 15.1 44 15.1 44l-19.7-9-154 60.3c0 0-3.7-10.5-3.8-18.4-0.2-19.5 10.1-26.6 10.1-26.6z"/>
		<path id="book2" fill-rule="evenodd" class="s1" d="m52.6 155.9l183-66.9c0 0-15.8 13.8-15.1 43.9 0.7 32 15.1 43.9 15.1 43.9l-25.6-9.8-164.2 32.3c0 0-3.2-9.6-3.2-16.8-0.2-19.5 10-26.6 10-26.6z"/>
		<g id="book_1">
			<path id="book1" fill-rule="evenodd" class="s2" d="m17.1 210.1l192.9-34.6c0 0-15.7 13.9-15 43.9 0.7 32.1 15 44 15 44h-191.5c0 0-11.3-6.9-11.5-27.6-0.2-19.5 10.1-25.7 10.1-25.7z"/>
		</g>
	</g>
</svg>