<svg xmlns="http://www.w3.org/2000/svg" width="360" height="360" version="1.0" viewBox="0 0 270 270"><path d="M128.8 2.9C123.2 4.7 29.2 62 26.2 65.5c-1.7 1.9-3.6 5.1-4.1 7.2-1.6 5.6-1.5 118.3.1 123.5.6 2.2 2.8 5.7 4.7 7.8 2.3 2.4 21.1 14.3 52.2 32.9 55.9 33.5 54.1 32.8 65.1 27.2 3.5-1.7 27-15.6 52.3-30.9 43.7-26.4 46.1-27.9 49-32.6l3-4.9v-61.1c0-60.6 0-61.1-2.2-65.1-1.1-2.2-3.2-4.9-4.5-6.1-1.2-1.2-24.3-15.3-51.1-31.3-44.6-26.7-49.2-29.3-54-29.6-2.9-.3-6.4-.1-7.9.4zm72.4 96.3c5.7 2.8 9.2 8.8 9.3 15.7 0 9.7-5.3 16.6-14.7 19.2-8.1 2.1-18.8-3.6-21.9-11.8-2.6-6.9.1-16.6 6.1-21.7 2.9-2.4 4-2.8 9.5-3.9 3-.6 7.6.4 11.7 2.5zm-57 19c9.8 4.9 12.5 18.2 5.6 28.1-3.7 5.2-12.7 8.3-19.3 6.6-15.3-4-19.5-23.1-7.5-33.3 1.7-1.4 4.4-2.9 5.8-3.2 1.5-.3 3.2-.7 3.7-.9 1.9-.6 8 .8 11.7 2.7zm-57.1 18.9c9.7 4.9 12.8 17.5 6.5 26.9-10.1 15.3-34.6 7.9-34.6-10.5 0-7.8 6.3-16.7 12.8-18.1 1.5-.3 3.2-.7 3.7-.9 1.8-.7 7.9.6 11.6 2.6z"/></svg>