<?xml version="1.0" standalone="no"?>
<!DOCTYPE svg PUBLIC "-//W3C//DTD SVG 20010904//EN"
 "http://www.w3.org/TR/2001/REC-SVG-20010904/DTD/svg10.dtd">
<svg version="1.0" xmlns="http://www.w3.org/2000/svg"
 width="270.000000pt" height="270.000000pt" viewBox="0 0 270.000000 270.000000"
 preserveAspectRatio="xMidYMid meet">

<g transform="translate(0.000000,270.000000) scale(0.100000,-0.100000)"
fill="#000000" stroke="none">
<path d="M1288 2671 c-56 -18 -996 -591 -1026 -626 -17 -19 -36 -51 -41 -72
-16 -56 -15 -1183 1 -1235 6 -22 28 -57 47 -78 23 -24 211 -143 522 -329 559
-335 541 -328 651 -272 35 17 270 156 523 309 437 264 461 279 490 326 l30 49
0 611 c0 606 0 611 -22 651 -11 22 -32 49 -45 61 -12 12 -243 153 -511 313
-446 267 -492 293 -540 296 -29 3 -64 1 -79 -4z m724 -963 c57 -28 92 -88 93
-157 0 -97 -53 -166 -147 -192 -81 -21 -188 36 -219 118 -26 69 1 166 61 217
29 24 40 28 95 39 30 6 76 -4 117 -25z m-570 -190 c98 -49 125 -182 56 -281
-37 -52 -127 -83 -193 -66 -153 40 -195 231 -75 333 17 14 44 29 58 32 15 3
32 7 37 9 19 6 80 -8 117 -27z m-571 -189 c97 -49 128 -175 65 -269 -101 -153
-346 -79 -346 105 0 78 63 167 128 181 15 3 32 7 37 9 18 7 79 -6 116 -26z"/>
</g>
</svg>
