<svg xmlns="http://www.w3.org/2000/svg" width="360" height="360" fill="none"><path fill="#fff" d="M171.733 3.867c-7.466 2.4-132.8 78.8-136.8 83.466-2.266 2.534-4.8 6.8-5.466 9.6-2.134 7.467-2 157.734.133 164.667.8 2.933 3.733 7.6 6.267 10.4 3.066 3.2 28.133 19.067 69.6 43.867 74.533 44.666 72.133 43.733 86.8 36.266 4.666-2.266 36-20.8 69.733-41.2 58.267-35.2 61.467-37.2 65.333-43.466l4-6.534v-81.466c0-80.8 0-81.467-2.933-86.8-1.467-2.934-4.267-6.534-6-8.134-1.6-1.6-32.4-20.4-68.133-41.733-59.467-35.6-65.6-39.067-72-39.467-3.867-.4-8.534-.133-10.534.534Zm96.534 128.4c7.6 3.733 12.266 11.733 12.4 20.933 0 12.933-7.067 22.133-19.6 25.6-10.8 2.8-25.067-4.8-29.2-15.733-3.467-9.2.133-22.134 8.133-28.934 3.867-3.2 5.333-3.733 12.667-5.2 4-.8 10.133.534 15.6 3.334Zm-76 25.333c13.066 6.533 16.666 24.267 7.466 37.467C194.8 202 182.8 206.133 174 203.867c-20.4-5.334-26-30.8-10-44.4 2.267-1.867 5.867-3.867 7.733-4.267 2-.4 4.267-.933 4.934-1.2 2.533-.8 10.666 1.067 15.6 3.6Zm-76.134 25.2c12.934 6.533 17.067 23.333 8.667 35.867-13.467 20.4-46.133 10.533-46.133-14 0-10.4 8.4-22.267 17.067-24.134 2-.4 4.266-.933 4.933-1.2 2.4-.933 10.533.8 15.466 3.467Z"/></svg>