<svg width="100%" height="100%" viewBox="0 0 2500 2500" version="1.1" xmlns="http://www.w3.org/2000/svg" style="fill-rule:evenodd;clip-rule:evenodd;stroke-linejoin:round;stroke-miterlimit:2;">
    <g transform="matrix(1,0,0,1,631,0)">
        <path d="M784.531,2494.46C781.537,2492.85 747.972,2460.34 709.945,2422.21L640.802,2352.88L640.802,1901.99C640.802,1654 640.173,1450.47 639.406,1449.7C637.993,1448.29 524.658,1505.25 191.291,1674.91C90.785,1726.06 7.17,1767.38 5.48,1766.73C3.507,1765.98 2.854,1763.77 3.657,1760.57C4.343,1757.84 5.874,1746.46 7.059,1735.28C13.056,1678.69 57.704,1545.76 105.069,1443.47C234.146,1164.71 442.994,933.693 708.71,775.744C752.075,749.966 788.501,731.114 792.197,732.531C795.015,733.614 795.42,762.954 795.42,965.765C795.42,1131.9 796.095,1197.76 797.796,1197.76C799.103,1197.76 809.063,1193.17 819.932,1187.55C896.159,1148.18 951.486,1074.64 969.977,988.119C976.229,958.859 976.793,905.533 971.146,877.238C960.774,825.247 936.834,776.336 903.088,738.187C886.425,719.35 831.1,661.172 733.344,559.688C585.532,406.242 558.467,376.91 541.15,351.39C528.445,332.661 517.478,309.767 510.832,288.101C505.503,270.725 504.952,265.655 504.834,233.031C504.693,193.207 506.955,180.814 520.046,149.738C545.307,89.77 611.122,33.833 665.846,25.819C704.233,20.2 752.732,21.283 784.283,28.469C810.002,34.327 851.666,59.447 880.227,86.314C913.755,117.856 930.634,143.032 1056.71,349.539C1205.48,593.221 1223.22,623.26 1225.76,635.784C1228.28,648.18 1226.45,653.417 1219.68,653.265C1214.05,653.138 1215.75,654.887 947.906,374.582C924.443,350.029 883.583,306.91 857.108,278.763C788.011,205.306 759.342,177.63 746.343,171.841C729.703,164.428 706.617,164.768 690.539,172.665C659.014,188.146 644.093,223.852 655.985,255.352C661.882,270.969 653.668,262.018 847.348,463.869C934.117,554.298 1012.49,637.106 1021.52,647.886C1167.18,821.85 1155.33,1080.34 994.385,1240.21C957.429,1276.91 920.486,1302.06 852.041,1337.1C828.685,1349.06 806.391,1360.8 802.498,1363.2L795.42,1367.56L795.42,1929.26C795.42,2238.2 794.825,2492.51 794.098,2494.41C792.567,2498.4 791.855,2498.41 784.531,2494.46L784.531,2494.46ZM397.704,1404.77C588.358,1306.91 627.708,1286.21 633.296,1280.83C636.802,1277.46 638.33,1272.6 639.376,1261.54C641.486,1239.19 641.079,1004.37 638.927,1003.04C634.188,1000.11 554.105,1071.29 500.34,1126.21C407.39,1221.16 329.683,1328.38 265.8,1449.81C257.446,1465.69 251.305,1478.69 252.152,1478.69C252.999,1478.69 318.5,1445.42 397.706,1404.77L397.704,1404.77Z"
              style="fill:rgb(248,230,234);fill-rule:nonzero;"/>
    </g>
    <g transform="matrix(1,0,0,1,631,0)">
        <path d="M714.396,2424.35L640.802,2350.85L640.802,1445.66L506.328,1513.64C432.369,1551.03 290.323,1623.14 190.675,1673.88C91.027,1724.63 7.871,1766.14 5.878,1766.14C3.041,1766.14 2.575,1764.88 3.725,1760.31C4.53,1757.1 6.042,1747.05 7.085,1737.99C11.536,1699.25 42.39,1597.62 72.743,1521.71C204.027,1193.38 439.956,925.699 749.577,753.797C769.279,742.858 787.058,733.908 789.087,733.908C791.117,733.908 793.371,735.458 794.098,737.353C794.825,739.247 795.42,844.17 795.42,970.514L795.42,1200.23L800.32,1198.72C807.4,1196.53 819.88,1190.03 836.457,1179.89C903.419,1138.94 949.435,1075.84 969.088,998.008C974.546,976.387 975.014,971.124 975.047,930.991C975.084,884.484 973.263,871.74 961.514,836.26C953.993,813.538 934.746,777.068 919.628,756.878C902.113,733.489 865.085,694.162 674.548,496.582C613.583,433.363 564.253,380.085 552.62,364.898C499.887,296.05 489.773,217.125 524.336,144.165C536.714,118.032 548.922,101.096 570.338,80.347C599.452,52.139 637.651,31.006 668.858,25.843C694.28,21.64 735.794,21.128 759.847,24.728C817.467,33.352 871.091,69.343 916.59,129.933C940.171,161.332 1008.54,271.507 1174.05,544.779C1224.18,627.554 1232.05,643.85 1225.19,650.71C1219.21,656.69 1229.41,666.84 995.659,422.392C945.889,370.344 883.058,304.244 856.032,275.498C782.201,196.966 759.973,175.951 744.694,170.234C709.59,157.103 674.352,171.116 656.802,205.193C648.509,221.293 648.405,242.014 656.527,259.627C663.394,274.523 653.082,263.375 848.506,467.137C934.661,556.968 1011.47,637.816 1019.19,646.799C1072.39,708.724 1108.07,790.53 1118.9,875.459C1123.41,910.769 1122.31,969.356 1116.54,1001.77C1100.24,1093.29 1058.58,1174 994.605,1237.97C954.829,1277.75 922.1,1299.86 842.241,1340.89L796.509,1364.38L795.409,1930.58C794.806,2241.98 794.07,2497.01 793.776,2497.31C791.141,2500 778.564,2488.44 714.398,2424.35L714.396,2424.35ZM405.064,1402.31C608.498,1298.04 627.947,1287.72 634.816,1280.34L640.804,1273.91L640.804,1136.75C640.804,1061.31 640.155,999.589 639.361,999.589C638.568,999.589 630.482,1005.67 621.394,1013.09C511.757,1102.68 419.024,1204.16 343.141,1317.59C300.375,1381.52 243.393,1483.36 252.239,1480.06C254.547,1479.2 323.32,1444.21 405.064,1402.32L405.064,1402.31Z"
              style="fill:rgb(245,219,224);fill-rule:nonzero;"/>
    </g>
    <g transform="matrix(1,0,0,1,631,0)">
        <path d="M751.352,2461.38C731.016,2441.32 697.824,2407.58 677.593,2386.39L640.802,2347.89L640.802,1896.95C640.802,1648.94 640.434,1446.02 639.986,1446.02C638.877,1446.02 373.947,1580.22 172.961,1682.59C82.734,1728.54 7.416,1766.14 5.587,1766.14C3.11,1766.14 2.614,1764.73 3.648,1760.61C4.415,1757.56 5.935,1748 7.03,1739.36C8.126,1730.73 12.91,1708.48 17.666,1689.92C42.113,1594.48 74.82,1508.26 124.649,1407.91C156.2,1344.37 183.329,1296.97 219.386,1242.4C338.174,1062.62 499.305,906.96 686.534,791.127C725.886,766.78 785.215,733.908 789.801,733.908C792.916,733.908 793.242,755.924 793.242,965.902C793.242,1162.24 793.708,1198.08 796.278,1199.06C797.946,1199.7 806.091,1196.81 814.375,1192.64C882.32,1158.42 935.65,1098.12 960.663,1027.22C972.322,994.169 976.756,967.803 976.85,930.991C977,870.703 961.375,818.144 928.62,768.751C911.364,742.727 892.919,722.708 739.988,564.002C577.807,395.693 558.654,374.798 539.166,344.898C515.503,308.598 505.141,274.094 505.242,231.944C505.279,216.487 506.701,199.483 508.719,190.317C523.51,123.189 567.574,68.561 630.584,39.216C658.35,26.289 680.859,21.795 717.841,21.795C770.389,21.795 807.323,33.387 849.395,63.082C897.988,97.381 915.967,122.061 1038.24,322.328C1178.57,552.166 1222.91,626.62 1225.57,636.877C1227.14,642.931 1228.26,647.916 1228.06,647.957C1227.86,647.999 1226.03,649.308 1223.99,650.865C1220.76,653.326 1218.81,652.324 1208.98,643.171C1193.44,628.689 931.07,354.717 849.451,267.735C776.162,189.635 765.143,179.259 746.341,170.652C713.061,155.415 673.394,170.289 656.713,204.254C651.645,214.577 650.611,219.485 650.648,233.033C650.687,246.713 651.737,251.437 657.107,262.123C663.609,275.063 665.953,277.556 946.36,569.932C982.063,607.162 1017.84,645.812 1025.86,655.821C1131.31,787.471 1151.7,967.06 1078.45,1119.05C1054.9,1167.91 1027.35,1205.57 986.43,1244.79C947.422,1282.19 919.946,1300.42 842.241,1340.49C817.088,1353.45 795.79,1365.11 794.908,1366.39C794.028,1367.67 793.295,1622.77 793.275,1933.28C793.251,2351.43 792.604,2497.86 790.781,2497.86C789.429,2497.86 771.683,2481.44 751.352,2461.38ZM281.93,1465.86C297.851,1457.61 369.677,1420.71 441.541,1383.85C612.387,1296.23 632.462,1285.55 636.943,1279.85C640.417,1275.44 640.711,1264.5 640.754,1137.33C640.78,1060.73 639.962,999.589 638.91,999.589C637.869,999.589 621.945,1012.23 603.522,1027.67C483.763,1128.07 385.217,1243.21 306.046,1375.25C287.479,1406.21 248.813,1476.66 248.813,1479.53C248.813,1482.46 254.144,1480.26 281.93,1465.86Z"
              style="fill:rgb(243,213,218);fill-rule:nonzero;"/>
    </g>
    <g transform="matrix(1,0,0,1,631,0)">
        <path d="M716.38,2425.49C677.098,2385.64 644.025,2350.77 642.882,2348C641.584,2344.85 640.802,2174.31 640.802,1894.49C640.802,1647.83 640.171,1446.02 639.404,1446.02C637.803,1446.02 511.866,1509.73 214.854,1660.81C100.955,1718.75 6.527,1766.14 5.014,1766.14C3.206,1766.14 2.703,1764.38 3.548,1761.01C4.258,1758.18 5.865,1748.63 7.12,1739.78C15.251,1682.41 55.051,1560.57 95.247,1469.98C214.499,1201.21 401.14,980.249 646.246,817.652C706.813,777.473 786.393,732.111 791.152,735.051C792.467,735.863 793.242,822.353 793.242,968.14C793.242,1178.01 793.569,1199.94 796.685,1199.94C802.014,1199.94 829.371,1185.62 849.863,1172.11C872.339,1157.29 909.946,1120.14 925.401,1097.49C948.285,1063.96 965.275,1023.2 973.241,982.755C978.352,956.792 978.372,903.101 973.276,877.24C965.774,839.152 950.961,802.684 929.883,770.406C911.497,742.248 902.024,731.937 731.306,554.246C570.373,386.74 567.507,383.668 549.495,359.375C501.714,294.932 492.156,221.922 522.108,150.162C548.347,87.3 610.793,36.62 676.29,25.035C698.965,21.024 736.639,20.98 760.773,24.937C795.483,30.63 830.085,47.33 864.258,74.883C905.625,108.239 921.122,130.72 1061.09,360.429C1207.13,600.091 1224.07,628.757 1225.55,638.648C1227.15,649.308 1225.13,652.361 1217.99,650.094C1215.66,649.356 1181.09,614.749 1141.15,573.188C998.971,425.225 915.44,337.631 855.131,273.26C760.045,171.767 751.356,164.82 719.2,164.566C705.598,164.457 700.814,165.443 690.58,170.467C676.926,177.175 663.311,190.672 655.693,205.049C651.678,212.632 650.669,217.998 650.641,231.944C650.584,257.145 656.284,267.478 689.372,302.184C703.928,317.45 781.463,398.385 861.673,482.042C941.878,565.694 1013.77,641.642 1021.43,650.815C1093.96,737.675 1130.94,857.377 1119.84,969.414C1107.45,1094.51 1045.51,1205.04 946.512,1278.7C919.704,1298.65 901.564,1309.3 841.72,1340.25L794.331,1364.76L793.782,1931.31C793.347,2382.31 792.68,2497.87 790.516,2497.9C789.022,2497.93 755.659,2465.35 716.38,2425.49ZM401.253,1405.18C600.639,1302.89 630.702,1287.02 635.902,1281.31L640.802,1275.91L640.802,1137.75C640.802,1048.71 640.04,999.589 638.662,999.589C635.569,999.589 584.314,1042.79 547.568,1076.37C455.916,1160.12 364.755,1273.92 298.232,1387.61C276.492,1424.77 248.813,1476.81 248.813,1480.53C248.813,1483.55 240.142,1487.83 401.253,1405.18Z"
              style="fill:rgb(240,205,211);fill-rule:nonzero;"/>
    </g>
    <g transform="matrix(1,0,0,1,631,0)">
        <path d="M716.097,2424.65L643.161,2350.86L643.069,1899.66C643.008,1595.14 642.257,1448.01 640.756,1447.08C638.492,1445.68 506.611,1511.82 186.335,1674.97C87.893,1725.12 6.244,1766.14 4.894,1766.14C3.544,1766.14 2.973,1764.43 3.624,1762.33C4.278,1760.24 5.809,1751.43 7.026,1742.77C14.28,1691.14 46.671,1586.18 80.125,1505.91C148.101,1342.8 238.709,1198.22 352.407,1071.45C383.588,1036.69 458.114,963.387 490.54,935.59C550.438,884.24 614.604,836.922 677.823,797.482C721.391,770.302 782.894,735.715 788.421,735.286C791.918,735.014 792.223,749.705 793.242,968.012C794.325,1199.51 794.359,1201.02 798.687,1200.32C804.616,1199.34 831.984,1184.53 850.771,1172.11C871.801,1158.22 913.899,1115.82 928.015,1094.32C949.591,1061.45 965.084,1023.84 973.307,984.345C978.688,958.508 978.662,901.073 973.257,875.459C963.176,827.689 940.04,778.294 912.05,744.796C898.585,728.681 850.547,677.912 741.016,564.046C573.027,389.406 561.224,376.566 541.544,347.123C527.541,326.17 518.506,306.925 511.788,283.75C507.535,269.072 506.89,261.951 507.008,230.855C507.13,198.24 507.683,193.157 513.009,175.785C533.147,110.121 577.498,61.618 641.712,35.035C661.985,26.644 690.071,21.873 719.2,21.871C781.679,21.869 831.461,43.169 880.739,90.985C916.967,126.138 932.784,150.149 1089.97,408.624C1221.74,625.285 1224.01,629.133 1225.58,638.476C1227.45,649.541 1224.53,653.108 1216.91,649.033C1210.65,645.68 995.217,421.763 862.709,280.882C757.454,168.975 751.772,164.4 718.111,164.478C696.386,164.529 683.673,170.489 667.462,188.226C653.422,203.59 648.57,217.186 650.007,237.136C651.477,257.504 658.886,270.57 683.882,296.862C695.485,309.068 773.939,390.981 858.225,478.891C942.509,566.803 1017.41,646.18 1024.67,655.285C1045.43,681.329 1062.61,708.674 1077.48,739.352C1168.49,927.064 1113.74,1153.24 947.192,1277.59C919.136,1298.54 904.855,1306.99 844.686,1338.27L794.331,1364.46L793.242,1929.89C792.643,2240.87 791.452,2496.02 790.594,2496.88C789.736,2497.74 756.212,2465.23 716.097,2424.65ZM411.053,1400.3C619.539,1293.42 632.161,1286.69 637.429,1279.64C641.797,1273.79 641.904,1270.83 642.542,1137.39C642.925,1057.52 642.375,1000.29 641.214,999.129C637.124,995.04 566.052,1056.6 510.1,1112.69C428.876,1194.12 364.019,1277.44 303.152,1378.57C274.166,1426.72 244.724,1484.23 250.081,1482.23C252.378,1481.38 324.816,1444.51 411.053,1400.3Z"
              style="fill:rgb(238,195,203);fill-rule:nonzero;"/>
    </g>
    <g transform="matrix(1,0,0,1,631,0)">
        <path d="M777.439,2486.55C770.879,2480.19 737.944,2446.96 704.246,2412.7L642.98,2350.42L642.98,1898.22C642.98,1496.53 642.612,1446.02 639.694,1446.02C636.621,1446.02 455.662,1537.16 196.548,1669.22C44.901,1746.51 4.689,1766.67 3.94,1765.8C2.466,1764.08 8.259,1734.04 17.311,1696.46C52.738,1549.38 129.322,1379.07 223.45,1238.05C343.794,1057.75 506.812,901.897 695.546,786.702C732.593,764.091 784.364,736.085 789.122,736.085C793.138,736.085 793.242,741.919 793.242,967.883C793.242,1122.45 793.978,1200.14 795.455,1201.05C796.67,1201.8 807.079,1197.46 818.587,1191.4C917.568,1139.29 978.272,1040.19 978.335,930.603C978.374,862.604 956.253,800.149 913.014,746.188C897.853,727.266 880.166,708.485 746.609,569.49C575.911,391.841 571.688,387.333 553.315,363.199C536.091,340.573 520.649,311.026 513.171,286.387C507.835,268.806 507.208,263.312 507.073,233.033C506.89,192.403 510.906,174.259 527.561,140.48C547.666,99.687 580.265,66.349 620.597,45.336C653.281,28.306 680.698,21.788 719.618,21.801C797.317,21.827 863.739,59.833 919.432,136.125C942.692,167.989 1029.69,308.828 1194.57,581.528C1225.03,631.921 1231.52,647.23 1223.68,650.238C1217.25,652.703 1231.15,666.664 1014.16,439.768C951.808,374.571 879.65,298.691 853.807,271.143C760.681,171.872 751.474,164.579 719.2,164.487C697.31,164.426 685.742,169.045 670.371,183.982C657.124,196.857 651.262,209.235 649.986,227.016C648.747,244.266 651.858,257.149 660.367,270.002C663.71,275.052 716.291,331.187 777.21,394.746C838.129,458.305 915.303,538.813 948.707,573.652C982.113,608.495 1015.24,644.085 1022.31,652.748C1066.67,707.024 1097.38,771.822 1112.38,842.793C1117.15,865.372 1118.33,877.72 1119.29,915.191C1120.03,944.162 1119.5,967.988 1117.83,981.612C1105.89,1078.88 1062.55,1167.97 993.603,1237C953.929,1276.72 923.365,1297.1 832.441,1344.49L794.331,1364.36L793.242,1929.84C792.643,2240.85 791.524,2495.95 790.758,2496.71C789.989,2497.48 783.996,2492.91 777.436,2486.55L777.439,2486.55ZM385.502,1414.07C585.421,1311.49 625.87,1290.2 634.269,1283.15L641.891,1276.76L642.483,1138.87C642.817,1061.29 642.237,1000.15 641.155,999.073C638.94,996.856 617.522,1013.43 579.09,1047.11C469.777,1142.89 377.519,1253.53 302.729,1378.51C286.107,1406.29 246.636,1478.78 246.636,1481.52C246.636,1482.36 247.633,1483.04 248.85,1483.04C250.068,1483.04 311.562,1452 385.502,1414.07Z"
              style="fill:rgb(236,187,196);fill-rule:nonzero;"/>
    </g>
    <g transform="matrix(1,0,0,1,631,0)">
        <path d="M716.269,2423.64L642.98,2349.16L642.98,1897.96C642.98,1649.79 642.327,1446.1 641.532,1445.3C640.033,1443.8 505.614,1511.32 188.203,1672.98C87.196,1724.42 4.208,1766.17 3.783,1765.74C2.228,1764.19 15.874,1700.97 24.609,1669.24C78.677,1472.88 184.556,1271.97 318.404,1111.74C409.213,1003.04 524.238,899.869 641.891,821.589C702.575,781.214 784.035,734.594 789.941,736.858C792.863,737.98 793.242,764.818 793.242,970.122C793.242,1156.11 793.791,1202.12 796.006,1202.12C800.457,1202.12 830.104,1186.58 846.614,1175.6C915.14,1130.02 960.696,1060.15 974.925,978.803C979.337,953.572 979.345,906.35 974.942,880.903C970.321,854.191 958.605,820.001 945.458,794.864C923.213,752.324 913.973,741.954 711.689,532.469C567.712,383.367 544.693,356.891 526.551,319.517C511.786,289.094 506.977,266.788 507.206,229.766C507.43,193.377 511.548,175.13 526.594,143.869C539.458,117.141 551.37,100.702 572.485,80.536C613.045,41.799 662.891,21.821 719.024,21.803C778.386,21.782 831.801,44.502 879.979,90.268C911.993,120.678 935.652,156.563 1079.64,393.095C1227.82,636.52 1230.41,641.061 1225.61,648.835C1223.18,652.753 1220.36,651.509 1209.88,641.899C1196.1,629.277 929.493,350.913 847.966,264.035C777.648,189.1 761.831,174.492 743.617,167.662C708.25,154.402 670.77,170.755 654.276,206.639C642.734,231.757 648.3,258.421 670.271,283.236C676.046,289.76 754.973,372.516 845.662,467.137C936.351,561.759 1015.43,645.057 1021.4,652.243C1061.69,700.774 1094.06,766.565 1109.11,830.52C1129.06,915.327 1121.53,1011.04 1088.47,1092.81C1065.51,1149.59 1038,1190.71 992.662,1236C948.807,1279.82 923.293,1297.18 839.512,1340.21L793.242,1363.98L793.21,1928.2C793.192,2238.51 792.36,2493.7 791.367,2495.26C790.078,2497.3 768.558,2476.78 716.269,2423.64L716.269,2423.64ZM494.895,1358.39C625.068,1291.34 634.905,1285.89 639.352,1278.36C642.634,1272.81 642.98,1259.13 642.98,1134.81C642.98,1025.66 642.414,997.409 640.232,997.409C638.72,997.409 621.817,1010.52 602.666,1026.55C480.413,1128.88 380.539,1246.36 299.108,1383.63C278.964,1417.58 246.636,1478.72 246.636,1482.85C246.636,1485.54 299.321,1459.13 494.895,1358.39Z"
              style="fill:rgb(231,168,180);fill-rule:nonzero;"/>
    </g>
    <g transform="matrix(1,0,0,1,631,0)">
        <path d="M716.478,2423.2L642.98,2347.96L642.98,1895.9C642.98,1590.99 642.259,1443.84 640.765,1443.84C638.522,1443.84 453.395,1537.37 167.206,1683.08C80.999,1726.97 9.069,1763.22 7.361,1763.64C3.239,1764.66 4.813,1753.36 14.772,1710.49C45.284,1579.12 108.033,1428.61 186.779,1297.89C318.289,1079.6 505.847,896.509 729.771,767.841C757.286,752.035 787.493,736.085 789.923,736.085C790.553,736.085 791.067,839.392 791.067,965.656C791.067,1091.92 791.661,1196.78 792.389,1198.67C794.325,1203.72 798.129,1202.99 815.62,1194.26C897.35,1153.44 954.87,1077.89 974.293,985.843C980.883,954.621 980.883,905.183 974.293,873.961C965.846,833.932 953.039,802.686 931.612,769.84C912.947,741.225 906.078,733.744 736.626,557.513C548.092,361.438 546.381,359.484 526.498,317.509C512.474,287.907 507.308,264.412 507.443,230.855C507.665,174.696 528.421,125.173 568.513,85.133C608.711,44.987 654.718,24.674 710.489,22.452C766.33,20.227 815.477,37.731 864.623,77.352C904.308,109.345 919.759,131.911 1063.67,368.051C1190.09,575.505 1223.08,630.81 1225.08,638.711C1231.46,663.811 1221.31,654.504 1070.62,497.09C885.917,304.131 897.302,316.085 844.005,259.166C779.301,190.067 766.236,177.815 748.312,169.411C719.152,155.739 690.421,161.406 668.146,185.221C653.487,200.892 648.516,213.009 648.524,233.033C648.535,256.859 654.936,268.589 685.18,300.226C698.512,314.175 776.056,395.081 857.496,480.019C938.938,564.956 1011.79,641.884 1019.39,650.969C1086.95,731.71 1123.31,838.471 1119.19,944.057C1114.63,1060.99 1067.23,1166.57 984.123,1244.94C947.723,1279.26 914.715,1300.79 837.888,1340.3C815.131,1352 795.531,1362.49 794.333,1363.62C792.896,1364.97 791.785,1558.69 791.067,1932.05L789.978,2498.44L716.478,2423.2ZM387.712,1414.04C600.902,1304.67 628.278,1290.25 635.902,1283.26L642.98,1276.78L642.98,1137.09C642.98,1016.35 642.551,997.409 639.814,997.409C635.484,997.409 588.206,1036.82 546.368,1075.3C431.445,1181.01 325.401,1322.24 252.934,1466.11C243.648,1484.55 243.43,1485.22 246.705,1485.22C247.94,1485.22 311.394,1453.18 387.712,1414.04L387.712,1414.04Z"
              style="fill:rgb(226,151,164);fill-rule:nonzero;"/>
    </g>
    <g transform="matrix(1,0,0,1,631,0)">
        <path d="M789.976,2497.38L645.158,2350.19L645.158,1898.04C645.158,1501.96 644.759,1445.73 641.952,1444.65C638.716,1443.41 524.347,1500.68 188.181,1671.87C88.357,1722.7 6.151,1763.76 5.497,1763.11C2.651,1760.26 21.715,1679.76 36.493,1632.22C96.271,1439.91 200.263,1251.24 330.567,1098.67C365.408,1057.88 453.39,969.776 493.804,935.205C554.343,883.419 615.883,838.157 679.999,798.255C724.901,770.31 786.724,735.841 789.2,737.368C790.224,738.002 791.062,842.282 791.062,969.101C791.062,1124.13 791.794,1200.13 793.292,1201.06C797.404,1203.6 807.846,1199.78 827.293,1188.64C904.471,1144.4 955.854,1074.48 974.228,988.7C978.185,970.229 979.126,958.931 979.126,929.902C979.126,876.147 970.907,842.188 946.405,794.714C924.907,753.056 921.788,749.509 747.543,568.401C570.743,384.639 557.942,370.591 538.221,338.672C515.514,301.916 506.764,267.896 508.578,223.41C509.937,190.051 513.669,174.026 526.435,146.745C544.543,108.047 568.796,79.635 602.437,57.705C690.966,0 797.445,12.812 878.469,90.917C900.586,112.237 921.083,138.609 945.687,177.399C996.284,257.166 1216.34,619.011 1222.55,632.644C1232.19,653.833 1223.57,654.552 1202.85,634.277C1189.91,621.62 1095.71,523.379 940.262,360.429C917.409,336.474 878.029,294.826 852.753,267.876C761.191,170.26 751.402,162.527 719.2,162.349C699.452,162.24 683.185,168.871 669.409,182.649C642.366,209.692 640.465,248.118 664.679,278.225C669.252,283.911 712.976,330.214 761.842,381.118C810.71,432.022 886.446,510.909 930.149,556.424C973.851,601.938 1015.48,646.527 1022.65,655.51C1071.55,716.749 1102.89,788.067 1114.86,865.324C1120.53,901.914 1119.91,963.831 1113.51,1000.68C1091.65,1126.55 1020.31,1232.44 912.257,1299.4C901.296,1306.19 872.239,1322.03 847.685,1334.6C823.131,1347.16 800.348,1359.31 797.058,1361.59L791.073,1365.74L790.524,1931.56L789.976,2497.38ZM404.233,1406.08C598.953,1306.23 629.881,1289.92 636.325,1283.66C640.184,1279.9 642.076,1275.02 643.217,1265.89C645.123,1250.63 645.641,1007.06 643.783,1000.13C643.065,997.437 641.645,995.233 640.632,995.233C639.622,995.233 627.239,1004.69 613.121,1016.25C483.001,1122.78 372.9,1252.84 289.297,1398.76C269.828,1432.76 244.458,1481.17 244.458,1484.35C244.458,1487.62 261.226,1479.4 404.233,1406.08Z"
              style="fill:rgb(224,142,157);fill-rule:nonzero;"/>
    </g>
    <g transform="matrix(1,0,0,1,631,0)">
        <path d="M718.111,2424.29L646.246,2351.82L645.158,1898.4C644.178,1490.59 643.729,1444.92 640.682,1444.34C637.398,1443.71 506.766,1509.32 173.682,1678.91C85.049,1724.04 10.817,1761.61 8.72,1762.39C3.799,1764.25 3.851,1762.18 9.352,1737.27C51.066,1548.32 139.682,1354.44 260.416,1187.96C359.481,1051.37 495.026,921.431 638.729,825.306C691.597,789.94 780.15,738.263 787.881,738.263C790.655,738.263 791.065,768.091 791.065,969.957C791.065,1167.57 791.518,1201.83 794.142,1202.83C798.072,1204.34 823.759,1192.05 843.996,1178.99C932.734,1121.69 984.552,1022.07 979.785,917.925C977.087,859.004 959.123,806.672 925.458,759.657C909.635,737.564 886.884,712.827 784.712,606.629C743.292,563.578 695.191,513.566 677.823,495.493C569.495,382.766 544.706,353.857 529.316,322.319C512.254,287.347 506.788,260.581 508.641,221.056C511.058,169.487 529.902,126.34 566.523,88.526C587.27,67.104 604.232,54.878 630.236,42.605C663.244,27.025 681.765,23.023 720.289,23.145C749.313,23.236 755.139,23.903 772.554,29.127C812.82,41.211 846.57,60.793 877.367,89.944C910.027,120.861 927.457,146.63 1038.24,327.764C1130.74,479.012 1220.71,628.188 1223.6,635.1C1230.29,651.124 1224.21,653.659 1209.91,640.806C1199.1,631.089 965.569,387.167 874.939,290.934C758.706,167.51 752.229,162.201 718.111,162.325C697.063,162.401 684.106,167.823 669.019,182.876C653.529,198.331 648.413,210.816 648.476,233.033C648.52,249 649.363,253.142 654.607,263.183C662.146,277.622 655.216,270.165 845.187,468.226C931.924,558.656 1009.52,640.484 1017.61,650.066C1088.75,734.239 1126.79,851.633 1117.88,959.528C1107.1,1090.17 1047.25,1199.79 944.363,1277.33C921.59,1294.5 895.793,1309.66 842.981,1336.91C817.04,1350.3 794.745,1362.54 793.443,1364.11C791.751,1366.15 790.916,1528.61 790.524,1931.87L789.976,2496.77L718.111,2424.29ZM374.424,1421.71C590.819,1310.74 626.333,1292.03 635.358,1284.24L644.069,1276.73L644.735,1140.97C645.103,1066.31 644.84,1002.97 644.149,1000.23C643.461,997.479 641.841,995.231 640.55,995.231C637.407,995.231 598.411,1027.36 563.493,1058.73C441.533,1168.28 343.522,1294.44 263.195,1445.27C246.769,1476.12 242.002,1487.4 245.394,1487.4C245.911,1487.4 303.975,1457.84 374.424,1421.71L374.424,1421.71Z"
              style="fill:rgb(221,133,149);fill-rule:nonzero;"/>
    </g>
    <g transform="matrix(1,0,0,1,631,0)">
        <path d="M717.567,2423.2L645.158,2348.96L645.158,1896.53C645.158,1595.62 644.424,1443.65 642.969,1442.75C640.994,1441.53 457.894,1533.58 125.772,1702.76C59.897,1736.32 5.682,1762.87 5.297,1761.77C4.18,1758.57 19.408,1694.17 30.243,1656.29C84.982,1464.89 189.924,1267.92 319.783,1112.83C428.812,982.618 561.176,869.74 707.223,782.425C744.115,760.367 784.834,738.263 788.571,738.263C790.429,738.263 791.065,797.475 791.065,970.257C791.065,1169.61 791.504,1202.42 794.183,1203.45C795.899,1204.11 805.204,1200.66 814.863,1195.79C898.631,1153.56 954.955,1080.75 975.071,988.7C980.439,964.138 981.708,911.668 977.551,886.322C968.426,830.7 945.016,779.642 909.663,738.263C895.464,721.645 843.683,667.056 747.495,567.312C558.289,371.107 547.036,358.326 527.493,317.441C516.03,293.462 510.046,269.473 508.611,241.744C507.16,213.725 510.161,193.017 519.739,164.953C529.874,135.262 544.434,111.987 567.849,88.043C596.666,58.578 624.942,41.644 666.316,29.073C683.122,23.966 689.278,23.243 717.022,23.121C744.727,22.999 751.136,23.687 769.287,28.726C809.471,39.885 845.573,60.294 876.947,89.596C907.673,118.291 928.226,148.716 1037.1,326.675C1113.91,452.211 1221.11,629.987 1223.96,636.557C1230.29,651.12 1224.56,653.005 1211.02,640.81C1198.82,629.817 934.728,354.023 852.703,266.613C780.402,189.568 767.168,176.909 750.065,168.425C724.376,155.685 693.414,160.201 671.521,179.886C641.301,207.055 638.942,249.189 665.879,280.745C671.282,287.075 750.566,370.314 842.06,465.715C933.557,561.121 1014.06,646.037 1020.96,654.421C1069.98,714.023 1103.58,791.478 1114.56,870.246C1118.96,901.77 1117.93,975.22 1112.69,1002.86C1092.08,1111.69 1039.7,1200.29 956.266,1267.42C928.444,1289.8 904.574,1304.33 844.419,1335.48C816.87,1349.74 793.599,1362.12 792.707,1362.99C791.814,1363.85 791.069,1619.55 791.056,1931.21C791.043,2242.86 790.795,2497.76 790.505,2497.65C790.213,2497.53 757.393,2464.03 717.567,2423.2ZM392.338,1413.03C547.457,1333.48 620.018,1295.79 631.797,1288.65C645.43,1280.39 645.158,1283.54 645.158,1133.52C645.158,1013.9 644.755,997.121 641.863,996.013C635.915,993.731 565.005,1054.23 512.986,1105.97C410.829,1207.57 327.557,1321.1 259.423,1451.65C244.401,1480.43 241.834,1487.4 246.248,1487.4C246.836,1487.4 312.575,1453.93 392.338,1413.03L392.338,1413.03Z"
              style="fill:rgb(217,117,135);fill-rule:nonzero;"/>
    </g>
    <g transform="matrix(1,0,0,1,631,0)">
        <path d="M715.193,2419.68L645.158,2347.91L645.158,1894.79C645.158,1511.34 644.696,1441.66 642.157,1441.66C639.293,1441.66 514.466,1504.5 219.414,1654.47C145.154,1692.22 66.373,1732.42 44.343,1743.82C8.076,1762.58 4.395,1764.05 5.395,1759.36C41.861,1587.93 106.482,1429.18 202.363,1275.48C311.943,1099.82 464.422,943.201 641.175,824.749C695.482,788.353 784.732,736.782 788.924,739.374C790.305,740.225 791.065,822.663 791.065,971.475C791.065,1185.3 791.332,1202.35 794.712,1203.65C799.155,1205.36 826.622,1191.59 850.878,1175.51C873.262,1160.66 905.229,1130.06 923.043,1106.42C948.661,1072.42 969.587,1023.46 977.007,980.148C981.591,953.406 981.591,906.396 977.007,879.651C969.5,835.833 950.112,790.925 923.269,755.166C905.512,731.51 884.73,709.241 738.812,557.51C611.523,425.151 592.84,405.454 571.904,381.514C540.318,345.407 522.317,312.842 512.986,274.924C507.482,252.565 508.027,208.928 514.118,184.3C529.007,124.104 569.874,73.607 626.647,45.259C640.432,38.378 647.982,35.634 680.001,25.869C686.347,23.935 700.162,22.925 719.2,23.003C755.032,23.153 776.966,28.67 813.931,46.83C854.425,66.723 885.301,93.679 916.261,136.164C939.286,167.756 990.461,250.302 1147.79,509.603C1210.71,613.306 1226.61,640.947 1226.61,646.616C1226.61,652.807 1215.66,645.044 1194.98,624.188C1158.23,587.13 930.506,348.883 861.618,275.427C788.425,197.377 766.938,176.493 751.511,168.411C741.177,162.998 737.595,162.318 719.2,162.29C694.091,162.251 683.496,166.728 666.719,184.466C651.885,200.152 646.51,212.737 646.442,231.944C646.36,255.335 654.417,270.477 682.603,299.895C694.992,312.827 771.367,392.496 852.324,476.937C933.28,561.378 1005.29,637.149 1012.34,645.318C1063.54,704.593 1097.97,776.957 1111.51,853.682C1117.19,885.882 1119.12,941.074 1115.72,973.678C1104.87,1077.66 1055.8,1176.62 980.85,1245.73C943.33,1280.31 917.871,1296.88 840.37,1337.13L792.153,1362.18L791.065,1926.03C790.285,2329.86 789.301,2490.1 787.602,2490.66C786.3,2491.1 753.717,2459.16 715.193,2419.68ZM279.859,1471.31C296.921,1462.46 369.679,1425.06 441.543,1388.2C609.689,1301.97 632.039,1290.11 638.627,1283.61L644.071,1278.24L644.071,1137.31C644.071,1007.78 643.779,996.324 640.458,995.686C638.363,995.284 623.278,1006.31 604.526,1021.96C481.711,1124.45 383.553,1238.97 301.671,1375.3C279.987,1411.4 242.282,1480.98 242.282,1484.89C242.282,1489.73 249.107,1487.26 279.859,1471.31Z"
              style="fill:rgb(213,102,122);fill-rule:nonzero;"/>
    </g>
    <g transform="matrix(1,0,0,1,631,0)">
        <path d="M716.478,2419.97L645.158,2348.53L645.158,1895.1C645.158,1476.08 644.885,1441.66 641.582,1441.66C639.615,1441.66 587.433,1467.28 525.618,1498.58C316.325,1604.58 19.104,1755.75 11.717,1759.95L4.369,1764.14L5.552,1759.15C6.201,1756.41 9.692,1741.42 13.309,1725.84C58.468,1531.32 150.439,1336.58 275.904,1169.82C403.113,1000.74 580.257,848.958 765.476,750.343L788.887,737.878L788.887,967.642C788.887,1094.01 789.481,1198.95 790.209,1200.85C792.319,1206.35 799.64,1204.91 818.14,1195.39C902.213,1152.1 959.637,1075.21 977.386,982.167C983.113,952.143 982.706,903.34 976.486,873.961C967.189,830.065 948.661,787.974 924.136,755.049C908.348,733.851 883.798,707.509 755.265,573.845C578.088,389.6 564.171,374.547 545.388,346.856C489.551,264.542 498.957,159.855 568.594,88.563C596.002,60.501 633.145,38.532 666.935,30.394C673.522,28.807 680.071,26.649 681.486,25.597C685.48,22.631 729.775,21.13 743.155,23.508C793.776,32.509 839.898,56.033 877.267,91.91C914.227,127.39 928.047,148.731 1137.67,493.967C1182.99,568.61 1220.08,630.2 1220.08,630.834C1220.08,631.468 1221.67,635.353 1223.62,639.471C1232.73,658.663 1216.79,646.856 1176.06,604.235C1156.55,583.822 1088.11,512.284 1023.97,445.262C959.829,378.243 885.203,299.889 858.134,271.143C800.187,209.605 766.842,176.652 756.043,170.247C744.198,163.224 722.514,158.335 710.735,160.034C686.24,163.568 662.876,181.197 652.076,204.296C643.953,221.67 643.879,244.248 651.895,261.374C658.825,276.187 656.976,274.183 836.751,461.693C1005.31,637.5 1013.41,646.102 1026.73,663.428C1088.71,744.036 1121.15,845.339 1116.96,945.146C1110.86,1090.4 1039.83,1214.6 917.372,1294.16C907.191,1300.78 875.843,1318.11 847.711,1332.68C819.577,1347.25 794.836,1360.74 792.728,1362.64C789.092,1365.93 788.867,1394.89 788.347,1928.76L787.798,2491.41L716.478,2419.97ZM392.543,1414.03C611.329,1301.87 630.262,1291.82 638.095,1283.62L645.19,1276.19L644.628,1135.35C644.219,1032.29 643.402,994.288 641.586,993.683C640.221,993.226 627.022,1002.75 612.257,1014.85C466.119,1134.59 347.579,1280.61 259.428,1449.47C241.871,1483.1 239.094,1491.25 246.091,1488.6C248.188,1487.8 314.09,1454.25 392.543,1414.03Z"
              style="fill:rgb(210,91,112);fill-rule:nonzero;"/>
    </g>
    <g transform="matrix(1,0,0,1,631,0)">
        <path d="M717.567,2421.06L647.335,2350.71L647.335,1899.31C647.335,1584.84 646.634,1446.6 645.023,1443.59C642.849,1439.53 634.006,1443.66 499.66,1511.54C420.981,1551.29 278.975,1623.37 184.087,1671.71C89.196,1720.06 10.637,1759.61 9.504,1759.61C8.372,1759.61 6.956,1760.84 6.351,1762.33C5.7,1763.95 5.184,1763.49 5.081,1761.21C4.988,1759.1 5.835,1755.67 6.967,1753.59C8.1,1751.51 11.638,1737.56 14.833,1722.59C34.261,1631.52 74.422,1519.69 124.329,1417.71C261.66,1137.06 475.47,912.474 752.168,758.213C769.701,748.439 785.137,740.441 786.467,740.441C788.227,740.441 788.887,803.414 788.887,971.202C788.887,1237.85 786.134,1211.5 812.661,1198.79C898.202,1157.8 958.485,1078.92 977.601,982.982C983.329,954.247 982.806,901.15 976.51,871.683C965.761,821.391 941.623,772.78 908.635,734.996C893.648,717.832 843.532,665.12 741.966,559.69C562.217,373.108 547.853,356.836 529.776,319.297C516.966,292.696 512.121,273.09 510.742,242.264C508.926,201.613 514.858,173.205 532.45,138.3C546.335,110.756 574.044,79.204 600.096,61.281C615.536,50.658 647.507,35.858 663.964,31.718C672.185,29.65 680.504,27.128 682.453,26.115C688.451,22.994 726.095,21.372 739.888,23.639C791.385,32.104 838.173,55.207 876.13,90.915C909.515,122.322 932.747,157.612 1087.23,411.606C1216.83,624.676 1226.61,641.202 1226.61,647.139C1226.61,649.641 1219.79,646.721 1213.5,641.529C1205.18,634.658 957.468,376.244 863.667,276.587C762.401,168.999 751.389,160.123 719.154,160.095C705.021,160.082 700.781,161.062 688.237,167.238C672.15,175.156 659.269,188.089 651.249,204.368C647.209,212.569 646.253,218.083 646.277,233.033C646.303,249.024 647.133,253.118 652.368,263.107C660.105,277.87 656.467,273.939 830.211,455.16C1009.81,642.483 1013.98,646.934 1029.29,667.267C1149.77,827.345 1145.79,1049.11 1019.68,1203.2C1004.28,1222.03 973.254,1252.61 954.393,1267.56C925.691,1290.3 890.652,1311.08 824.819,1344.39C809.248,1352.27 795.039,1359.7 793.242,1360.91C790.357,1362.85 789.849,1429.03 788.887,1927.26L787.798,2491.41L717.567,2421.06ZM390.491,1415.4C598.862,1308.57 632.137,1291.02 638.664,1284.5C646.9,1276.26 647.303,1268.84 647.32,1124.68C647.333,1024.37 646.776,999.654 644.424,996.44C642.821,994.249 640.425,992.836 639.099,993.3C631.503,995.961 559.286,1059.35 520.29,1097.59C455.64,1160.98 410.454,1213.54 361.17,1282.69C321.525,1338.32 282.396,1402.82 254.526,1458.51C242.792,1481.95 240.218,1489.58 244.04,1489.58C245.007,1489.58 310.909,1456.19 390.491,1415.4Z"
              style="fill:rgb(208,85,107);fill-rule:nonzero;"/>
    </g>
    <g transform="matrix(1,0,0,1,631,0)">
        <path d="M716.121,2419.03L647.335,2348.92L647.335,1897.65C647.335,1649.45 646.741,1444.83 646.013,1442.93C645.286,1441.04 643.781,1439.49 642.671,1439.49C640.724,1439.49 495.551,1512.82 164.971,1680.79C78.734,1724.6 7.457,1761.49 6.575,1762.76C5.617,1764.13 4.964,1763.58 4.942,1761.37C4.925,1759.35 5.776,1757.15 6.837,1756.5C7.895,1755.85 9.454,1750.64 10.299,1744.94C16.118,1705.69 48.074,1599.09 73.47,1534.22C149.923,1338.93 262.677,1165.22 407.787,1019.16C500.405,925.941 600.43,847.73 710.489,782.479C740.711,764.561 784.862,740.441 787.436,740.441C788.234,740.441 788.887,844.198 788.887,971.013C788.887,1176.18 789.257,1201.89 792.247,1204.37C797.164,1208.45 835.438,1188.86 862.775,1168.27C997.662,1066.65 1022.29,876.156 917.453,745.227C902.718,726.826 865.93,687.788 751.844,569.49C564.508,375.238 550.475,359.434 531.42,321.23C516.442,291.195 510.122,264.37 510.168,230.999C510.274,153.712 555.403,82.156 626.647,46.303C640.502,39.332 673.119,28.328 679.931,28.328C682.166,28.328 684.383,27.158 684.86,25.728C686.02,22.248 744.708,21.888 752.079,25.318C754.954,26.655 765.117,29.909 774.662,32.548C828.036,47.302 876.601,83.411 915.678,137.39C934.672,163.627 984.585,243.567 1082.14,403.984C1209.38,613.225 1220.83,632.363 1221.8,637.4C1222.33,640.174 1223.62,642.444 1224.68,642.444C1225.74,642.444 1226.53,644.16 1226.44,646.255C1226.33,648.554 1225.83,648.981 1225.16,647.33C1224.55,645.825 1223.09,645.192 1221.91,645.926C1220.72,646.66 1217.24,644.946 1214.17,642.128C1203.65,632.448 922.607,338.65 857.195,268.944C782.147,188.965 767.931,175.343 750.385,166.591C739.461,161.144 735.154,160.258 719.2,160.175C703.281,160.093 698.976,160.922 688.44,166.094C674.609,172.889 658.849,188.553 651.532,202.78C648.154,209.35 646.318,217.458 645.674,228.678C644.526,248.571 649.517,263.804 662.207,279.146C666.837,284.743 745.646,367.553 837.339,463.163C929.027,558.773 1010.21,644.349 1017.74,653.332C1087.39,736.416 1124.31,852.264 1115.59,960.39C1106.88,1068.23 1062.14,1165.12 987.806,1237.1C948.052,1275.59 922.753,1292.74 849.863,1330.6C821.716,1345.22 796.481,1358.57 793.787,1360.27L788.887,1363.37L788.887,1926.26C788.887,2264.62 788.094,2489.15 786.896,2489.15C785.803,2489.15 753.954,2457.6 716.121,2419.03ZM387.76,1417.31C579.449,1318.98 629.861,1292.57 637.231,1286.64C641.913,1282.87 643.96,1278.82 645.293,1270.71C647.34,1258.22 648.015,1001.71 646.013,996.501C643.76,990.628 638.581,992.603 622.533,1005.46C478.157,1121.15 357.383,1266.35 267.858,1431.87C240.124,1483.14 237.544,1489.58 244.704,1489.58C245.897,1489.58 310.273,1457.05 387.76,1417.31Z"
              style="fill:rgb(206,75,98);fill-rule:nonzero;"/>
    </g>
    <g transform="matrix(1,0,0,1,631,0)">
        <path d="M716.478,2418.49L647.335,2348.04L647.335,1894.78C647.335,1497.93 646.937,1441.37 644.134,1440.3C640.942,1439.07 516.642,1501.3 187.837,1668.71C93.815,1716.58 15.031,1756.73 12.762,1757.92C8.899,1759.96 8.729,1759.41 10.079,1749.24C10.872,1743.26 14.97,1724.29 19.189,1707.07C74.999,1479.23 195.786,1252.57 356.756,1073.63C385.18,1042.04 451.426,976.34 482.918,948.521C532.707,904.534 597.94,854.91 654.957,817.647C695.681,791.029 782.508,740.441 787.465,740.441C788.236,740.441 789.116,845.039 789.42,972.881C790.056,1238.67 787.362,1211.67 812.08,1200.1C869.706,1173.14 928.879,1113.75 954.768,1056.88C975.208,1011.99 981.56,981.88 981.56,929.902C981.56,873.601 974.136,842.238 949.352,793.825C928.202,752.514 921.248,744.598 747.558,564.046C629.337,441.153 595.85,405.972 576.553,384.384C544.987,349.07 525.899,316.289 516.317,280.943C509.373,255.32 509.368,207.787 516.307,181.857C522.753,157.775 540.377,123.069 556.061,103.572C585.013,67.579 630.578,39.014 673.013,30.248C680.312,28.741 685.87,26.838 685.36,26.017C684.855,25.198 692.351,23.837 702.02,22.994C721.672,21.278 752.451,23.439 750.62,26.403C749.967,27.461 751.887,28.328 754.891,28.328C763.569,28.328 795,38.879 813.134,47.881C850.477,66.416 884.286,95.987 914.031,136.125C933.189,161.976 982.349,240.699 1094.91,425.761C1204.13,605.342 1222.25,636.069 1222.25,641.67C1222.25,651.418 1235.77,664.961 1007.94,426.974C963.731,380.791 900.416,314.098 867.239,278.765C760.263,164.831 754.272,160.062 718.111,160.101C701.099,160.117 697.048,160.89 687.436,165.944C673.564,173.239 657.645,189.215 651.188,202.318C647.094,210.629 646.253,215.886 646.279,233.033C646.307,251.382 646.993,255.024 652.344,265.233C659.271,278.451 651.708,270.337 846.601,473.671C928.11,558.71 999.226,633.188 1004.64,639.177C1062.74,703.47 1099.08,781.412 1112.28,870.015C1116.57,898.826 1116.5,957.761 1112.14,989.023C1095.35,1109.38 1028.72,1217.14 929.35,1284.66C905.22,1301.06 874.645,1318.26 830.263,1340.41C814.094,1348.49 798.17,1357 794.876,1359.33L788.887,1363.56L788.887,1926.36C788.887,2235.89 788.153,2489.1 787.254,2489.05C786.356,2488.99 754.507,2457.24 716.478,2418.49ZM354.433,1434.95C488.732,1366.23 608.154,1304.47 624.722,1295.15C631.728,1291.21 639.683,1284.69 642.396,1280.66L647.335,1273.34L647.335,1136.64C647.335,1061.46 646.741,998.395 646.013,996.501C643.313,989.467 635.776,993.705 604.212,1019.99C474.971,1127.62 369.023,1253.44 287.089,1396.6C265.634,1434.1 240.103,1483.41 240.103,1487.37C240.103,1488.58 241.819,1489.57 243.914,1489.56C246.011,1489.55 295.743,1464.98 354.433,1434.95L354.433,1434.95ZM5.081,1760.52C5.186,1757.98 5.702,1757.47 6.397,1759.2C7.026,1760.77 6.948,1762.65 6.225,1763.38C5.502,1764.1 4.988,1762.82 5.081,1760.52ZM1224.6,645.529C1224.71,642.992 1225.22,642.476 1225.92,644.214C1226.55,645.784 1226.47,647.663 1225.75,648.386C1225.02,649.109 1224.51,647.825 1224.6,645.529Z"
              style="fill:rgb(203,66,91);fill-rule:nonzero;"/>
    </g>
    <g transform="matrix(1,0,0,1,631,0)">
        <path d="M716.434,2417.75L647.335,2348.53L647.335,1439.49L642.904,1439.49C638.716,1439.49 519.902,1499.22 165.416,1679.54C80.62,1722.67 10.711,1757.43 10.064,1756.78C6.754,1753.47 29.994,1662.87 48.442,1607.17C100.239,1450.79 178.423,1301.89 278.271,1169.45C385.803,1026.82 526.79,898.103 681.09,801.685C720.132,777.288 781.74,742.618 786.049,742.618C788.334,742.618 788.972,786.447 789.42,974.001L789.976,1205.38L794.675,1206.05C797.26,1206.42 807.55,1202.62 817.541,1197.61C902.337,1155.07 963.76,1072.48 979.258,980.151C983.675,953.833 983.727,905.917 979.367,880.644C970.421,828.815 946.749,777.841 913.289,738.352C898.938,721.414 842.369,661.701 743.068,558.662C558.145,366.782 550.749,358.367 530.579,316.875C515.764,286.4 511.707,268.14 511.707,231.944C511.707,197.859 515.235,180.406 528.179,150.469C552.799,93.522 607.483,47.4 668.747,31.914C679.722,29.14 688.183,26.348 687.545,25.708C686.907,25.068 693.322,23.866 701.8,23.029C719.929,21.244 753.699,23.648 749.335,26.414C747.277,27.72 747.978,28.271 751.726,28.295C760.973,28.352 789.342,37.167 807.578,45.651C846.858,63.918 881.235,93.043 911.68,133.836C935.09,165.204 1006,279.839 1196.67,594.534C1225.38,641.912 1229.56,654.586 1210.86,637.544C1206.59,633.652 1156.73,581.957 1100.07,522.669C1043.41,463.381 977.375,394.293 953.322,369.14C929.269,343.988 887.912,300.379 861.416,272.232C763.338,168.035 754.481,160.842 722.467,159.4C698.904,158.337 684.171,163.821 667.897,179.707C647.044,200.069 639.202,225.374 646.218,249.677C653.187,273.828 638.017,256.729 832.4,459.515C913.341,543.956 987.418,621.431 997.018,631.681C1057.94,696.736 1094.18,769.542 1110.24,859.126C1114.95,885.426 1116.71,944.906 1113.61,973.247C1099.07,1106.27 1029.67,1218.99 917.372,1292C907.191,1298.61 874.362,1316.79 844.419,1332.39L789.976,1360.75L789.427,1923.86C789.126,2233.57 788.125,2486.97 787.206,2486.97C786.287,2486.97 754.435,2455.82 716.432,2417.75L716.434,2417.75ZM381.288,1421.78C557.502,1331.43 625.001,1296.36 633.516,1290.71C648.021,1281.1 647.333,1288.85 647.333,1135.25C647.333,996.956 647.044,990.878 640.449,990.878C639.537,990.878 627.239,1000.35 613.119,1011.92C503.142,1102.05 406.04,1209.5 331.04,1324.07C289.561,1387.43 238.003,1480.97 240.695,1487.98C241.49,1490.06 242.742,1491.75 243.48,1491.75C244.218,1491.75 306.231,1460.27 381.288,1421.78ZM5.083,1760.52C5.188,1757.98 5.704,1757.47 6.399,1759.2C7.028,1760.77 6.95,1762.65 6.227,1763.38C5.504,1764.1 4.99,1762.82 5.083,1760.52Z"
              style="fill:rgb(201,57,83);fill-rule:nonzero;"/>
    </g>
    <g transform="matrix(1,0,0,1,631,0)">
        <path d="M717.567,2417.77L649.513,2348.07L649.513,1898.28C649.513,1603.45 648.762,1446.51 647.335,1442.75C645.65,1438.32 644.156,1437.33 640.754,1438.41C635.881,1439.96 421.959,1548.13 172.829,1675.02C83.721,1720.41 10.528,1757.25 10.168,1756.89C9.811,1756.53 11.806,1745.44 14.6,1732.25C50.156,1564.38 136.226,1372.17 246.714,1213.9C365.321,1044.01 526.618,894.373 708.311,785.659C734.864,769.775 783.689,742.618 785.701,742.618C786.256,742.618 786.709,845.435 786.709,971.1C786.709,1096.77 787.304,1201.13 788.031,1203.03C793.519,1217.32 854.238,1182.54 895.898,1141.25C1004.38,1033.7 1014.16,863.059 918.67,743.975C903.718,725.327 870.137,689.706 738.784,553.157C605.458,414.556 586.828,394.831 567.945,372.274C528.299,324.913 512.363,284.9 512.332,232.63C512.31,195.06 519.029,167.898 536.422,135.254C555.887,98.725 587.172,68.805 626.647,48.968C648.755,37.857 677.076,28.635 690.694,28.11L696.334,27.892L690.89,26.309C682.007,23.72 716.206,21.228 734.707,23.114C746.685,24.334 749.392,25.15 745.333,26.322C740.115,27.829 740.167,27.903 746.556,28.11C758.952,28.515 787.689,37.282 807.907,46.832C848.103,65.815 880.736,93.424 911.333,134.332C929.964,159.239 988.063,252.26 1097.44,432.294C1221.85,637.08 1226.22,644.621 1220.41,644.621C1219.23,644.621 1153.3,576.759 1073.89,493.814C884.112,295.584 898.526,310.716 846.226,254.81C785.119,189.487 767.724,173.131 751.134,165.389C718.871,150.336 687.815,156.852 662.93,183.891C650.73,197.146 644.746,210.951 643.527,228.643C642.427,244.579 647.259,260.707 657.756,276.143C661.007,280.925 739.22,363.585 831.559,459.831C923.901,556.075 1005.04,641.191 1011.86,648.977C1039.32,680.305 1068.41,728.57 1084.83,770.058C1149.41,933.216 1107.6,1122.74 980.772,1241.81C944.149,1276.19 913.08,1296.45 836.27,1336.01C811.428,1348.8 790.359,1360.41 789.449,1361.81C788.538,1363.21 787.308,1617.06 786.709,1925.91L785.62,2487.47L717.567,2417.77ZM365.731,1430.55C536.686,1342.88 623.267,1297.98 632.581,1292.14C649.385,1281.62 648.341,1291.14 649.115,1141.02C649.496,1067.18 648.945,1003.44 647.888,999.373C646.789,995.125 644.374,991.664 642.22,991.25C634.583,989.78 562.428,1051.74 505.764,1108.43C402.682,1211.57 315.571,1332.39 247.783,1466.26C237.788,1486 236.79,1491.75 243.363,1491.75C245.013,1491.75 300.079,1464.21 365.728,1430.55L365.731,1430.55ZM5.079,1760.52C5.186,1757.98 5.702,1757.47 6.397,1759.2C7.026,1760.77 6.948,1762.65 6.225,1763.38C5.502,1764.1 4.988,1762.82 5.081,1760.52L5.079,1760.52Z"
              style="fill:rgb(199,50,77);fill-rule:nonzero;"/>
    </g>
    <g transform="matrix(1,0,0,1,631,0)">
        <path d="M717.571,2416.19L649.524,2346.89L648.973,1892.65L648.424,1438.4L643.982,1437.76C639.689,1437.15 517.18,1498.55 172.809,1673.92C84.895,1718.69 12.457,1754.82 11.841,1754.2C11.225,1753.59 12.923,1743.04 15.617,1730.76C61.915,1519.6 179.937,1284.67 326.754,1111.42C450.958,964.859 598.931,844.721 769.832,751.693L786.709,742.505L786.709,1206.39L792.162,1207.76C806.243,1211.29 863.844,1175.26 896.76,1142.32C931.383,1107.67 954.012,1070.9 969.687,1023.81C998.309,937.805 985.484,840.522 935.584,765.147C918.017,738.607 897.919,716.745 748.715,561.868C585.8,392.764 568.408,373.936 549.17,345.85C534.414,324.312 525,304.584 518.195,280.943C511.274,256.903 511.405,206.626 518.449,181.857C532.167,133.629 564.192,89.175 604.495,62.426C630.528,45.146 673.355,28.885 695.11,28.018L702.867,27.709L694.156,26.272C679.01,23.772 720.123,21.128 736.622,23.541C749.035,25.357 749.703,25.677 742.066,26.148C734.128,26.633 734.516,26.847 746.421,28.545C807.818,37.309 867.803,76.784 912.895,138.1C933.492,166.11 1115.88,462.007 1207.71,616.407C1221.7,639.926 1223.48,646.459 1213.27,636.862C1200.36,624.717 922.326,334.086 856.013,263.414C779.889,182.286 771.293,174.143 751.866,164.749C739.176,158.61 735.681,157.906 718.111,157.945C693.756,158 682.301,162.926 664.43,181.029C647.666,198.02 642.213,212.408 643.485,236.3C644.52,255.712 649.848,268.756 663.335,284.9C667.531,289.924 737.937,363.851 819.791,449.184C901.645,534.516 978.829,615.113 991.308,628.288C1051.39,691.714 1088.62,761.656 1106.01,843.81C1113.61,879.716 1115.71,951.089 1110.27,988.7C1099.05,1066.32 1066.22,1141.48 1017.52,1201.03C998.871,1223.84 960.175,1260.12 936.897,1276.62C909.21,1296.24 897.074,1303.28 838.138,1333.87L787.798,1360L786.709,1922.75L785.62,2485.49L717.571,2416.19ZM368.44,1430.28C516.115,1354.57 614.487,1303.7 629.134,1295.47C649.918,1283.79 648.339,1296.2 649.049,1138.96C649.393,1062.91 649.13,998.472 648.463,995.778C646.31,987.067 637.636,989.637 619.397,1004.4C465.041,1129.34 348.664,1272.25 252.424,1455.05C235.54,1487.11 233.796,1496.23 245.238,1492.59C247.64,1491.83 303.078,1463.79 368.437,1430.28L368.44,1430.28ZM5.079,1760.52C5.184,1757.98 5.7,1757.47 6.394,1759.2C7.024,1760.77 6.945,1762.65 6.222,1763.38C5.499,1764.1 4.985,1762.82 5.079,1760.52Z"
              style="fill:rgb(198,43,71);fill-rule:nonzero;"/>
    </g>
</svg>
