<svg width="206" height="106" viewBox="0 0 206 106" fill="none" xmlns="http://www.w3.org/2000/svg">
<path d="M184.51 0.719971C174.74 0.719971 166.52 7.45001 164.2 16.51H134.97C123.5 16.51 114.17 25.84 114.17 37.31C114.17 43.04 109.51 47.71 103.77 47.71H99.6C97.28 38.65 89.07 31.92 79.29 31.92C69.52 31.92 61.3 38.65 58.98 47.71H42.28C39.96 38.65 31.75 31.92 21.97 31.92C10.4 31.92 0.97998 41.33 0.97998 52.91C0.97998 64.48 10.39 73.9 21.97 73.9C31.74 73.9 39.96 67.17 42.28 58.11H59C61.32 67.17 69.53 73.9 79.31 73.9C89.02 73.9 97.18 67.27 99.57 58.3H103.78C109.51 58.3 114.18 62.96 114.18 68.7C114.18 80.17 123.51 89.5 134.98 89.5H141.79C144.11 98.56 152.32 105.29 162.1 105.29C173.67 105.29 183.09 95.88 183.09 84.3C183.09 72.73 173.68 63.31 162.1 63.31C152.33 63.31 144.11 70.04 141.79 79.1H134.98C129.25 79.1 124.58 74.44 124.58 68.7C124.58 62.44 121.78 56.82 117.39 53.01C121.79 49.19 124.58 43.58 124.58 37.32C124.58 31.59 129.24 26.92 134.98 26.92H164.21C166.53 35.98 174.74 42.71 184.52 42.71C196.09 42.71 205.51 33.3 205.51 21.72C205.5 10.14 196.08 0.719971 184.51 0.719971ZM21.99 63.49C16.15 63.49 11.4 58.74 11.4 52.9C11.4 47.06 16.15 42.31 21.99 42.31C27.83 42.31 32.58 47.06 32.58 52.9C32.58 58.74 27.83 63.49 21.99 63.49ZM79.31 63.49C73.47 63.49 68.72 58.74 68.72 52.9C68.72 47.06 73.47 42.31 79.31 42.31C85.15 42.31 89.9 47.06 89.9 52.9C89.9 58.74 85.15 63.49 79.31 63.49ZM162.09 73.7C167.93 73.7 172.68 78.45 172.68 84.29C172.68 90.13 167.93 94.88 162.09 94.88C156.25 94.88 151.5 90.13 151.5 84.29C151.51 78.45 156.26 73.7 162.09 73.7ZM184.51 32.3C178.67 32.3 173.92 27.55 173.92 21.71C173.92 15.87 178.67 11.12 184.51 11.12C190.35 11.12 195.1 15.87 195.1 21.71C195.1 27.55 190.35 32.3 184.51 32.3Z" fill="#FF6D5A"/>
</svg>
