<?xml version="1.0" encoding="UTF-8" standalone="no"?>
<!DOCTYPE svg PUBLIC "-//W3C//DTD SVG 1.1//EN" "http://www.w3.org/Graphics/SVG/1.1/DTD/svg11.dtd">
<svg width="100%" height="100%" viewBox="0 0 33 33" version="1.1" xmlns="http://www.w3.org/2000/svg" xmlns:xlink="http://www.w3.org/1999/xlink" xml:space="preserve" xmlns:serif="http://www.serif.com/" style="fill-rule:evenodd;clip-rule:evenodd;">
    <g transform="matrix(1,0,0,1,-2.687689,-3.687689)">
        <g>
            <g>
                <clipPath id="_clip1">
                    <path d="M3,16.8C3,12.32 3,10.079 3.872,8.368C4.639,6.863 5.863,5.639 7.368,4.872C9.079,4 11.32,4 15.8,4L22.2,4C26.68,4 28.921,4 30.632,4.872C32.137,5.639 33.361,6.863 34.128,8.368C35,10.079 35,12.32 35,16.8L35,23.2C35,27.68 35,29.921 34.128,31.632C33.361,33.137 32.137,34.361 30.632,35.128C28.921,36 26.68,36 22.2,36L15.8,36C11.32,36 9.079,36 7.368,35.128C5.863,34.361 4.639,33.137 3.872,31.632C3,29.921 3,27.68 3,23.2L3,16.8Z"/>
                </clipPath>
                <g clip-path="url(#_clip1)">
                    <path d="M3,16.8C3,12.32 3,10.079 3.872,8.368C4.639,6.863 5.863,5.639 7.368,4.872C9.079,4 11.32,4 15.8,4L22.2,4C26.68,4 28.921,4 30.632,4.872C32.137,5.639 33.361,6.863 34.128,8.368C35,10.079 35,12.32 35,16.8L35,23.2C35,27.68 35,29.921 34.128,31.632C33.361,33.137 32.137,34.361 30.632,35.128C28.921,36 26.68,36 22.2,36L15.8,36C11.32,36 9.079,36 7.368,35.128C5.863,34.361 4.639,33.137 3.872,31.632C3,29.921 3,27.68 3,23.2L3,16.8Z" style="fill:url(#_Linear2);fill-rule:nonzero;"/>
                    <path d="M19,6.039C11.29,6.039 5.039,12.29 5.039,20C5.039,27.711 11.29,33.961 19,33.961C26.711,33.961 32.961,27.711 32.961,20C32.961,12.29 26.711,6.039 19,6.039ZM4.961,20C4.961,12.247 11.247,5.961 19,5.961C26.753,5.961 33.039,12.247 33.039,20C33.039,27.753 26.753,34.039 19,34.039C11.247,34.039 4.961,27.753 4.961,20Z" style="fill:rgb(208,213,221);"/>
                    <path d="M19,16.078C16.834,16.078 15.078,17.834 15.078,20C15.078,22.166 16.834,23.923 19,23.923C21.166,23.923 22.922,22.166 22.922,20C22.922,17.834 21.166,16.078 19,16.078ZM15,20C15,17.791 16.791,16 19,16C21.209,16 23,17.791 23,20C23,22.209 21.209,24 19,24C16.791,24 15,22.209 15,20Z" style="fill:rgb(208,213,221);"/>
                    <path d="M19,17.32C17.52,17.32 16.32,18.52 16.32,20C16.32,21.48 17.52,22.679 19,22.679C20.48,22.679 21.68,21.48 21.68,20C21.68,18.52 20.48,17.32 19,17.32ZM16.243,20C16.243,18.477 17.477,17.242 19,17.242C20.523,17.242 21.757,18.477 21.757,20C21.757,21.523 20.523,22.757 19,22.757C17.477,22.757 16.243,21.523 16.243,20Z" style="fill:rgb(208,213,221);"/>
                    <rect x="18.961" y="4" width="0.078" height="32" style="fill:rgb(208,213,221);fill-rule:nonzero;"/>
                    <rect x="3" y="19.961" width="32" height="0.078" style="fill:rgb(208,213,221);fill-rule:nonzero;"/>
                    <rect x="29.602" y="4" width="0.078" height="32" style="fill:rgb(208,213,221);fill-rule:nonzero;"/>
                    <rect x="13.641" y="4" width="0.078" height="32" style="fill:rgb(208,213,221);fill-rule:nonzero;"/>
                    <rect x="24.282" y="4" width="0.078" height="32" style="fill:rgb(208,213,221);fill-rule:nonzero;"/>
                    <rect x="8.32" y="4" width="0.078" height="32" style="fill:rgb(208,213,221);fill-rule:nonzero;"/>
                    <rect x="3" y="30.602" width="32" height="0.078" style="fill:rgb(208,213,221);fill-rule:nonzero;"/>
                    <rect x="3" y="14.641" width="32" height="0.078" style="fill:rgb(208,213,221);fill-rule:nonzero;"/>
                    <rect x="3" y="25.281" width="32" height="0.078" style="fill:rgb(208,213,221);fill-rule:nonzero;"/>
                    <rect x="3" y="9.32" width="32" height="0.078" style="fill:rgb(208,213,221);fill-rule:nonzero;"/>
                    <path d="M14.664,27.887C14.398,28.371 13.787,28.551 13.332,28.238C11.79,27.178 10.571,25.701 9.822,23.971C8.941,21.935 8.762,19.663 9.314,17.513C9.866,15.364 11.117,13.459 12.871,12.098C14.624,10.738 16.781,10 19,10C21.219,10 23.375,10.738 25.129,12.098C26.883,13.459 28.134,15.364 28.686,17.513C29.238,19.663 29.059,21.935 28.177,23.971C27.429,25.701 26.21,27.178 24.668,28.238C24.213,28.551 23.602,28.371 23.336,27.887L19.959,21.745C19.749,21.362 19.928,20.878 20.101,20.477C20.207,20.232 20.229,19.959 20.162,19.702C20.096,19.444 19.946,19.215 19.735,19.052C19.525,18.889 19.266,18.8 19,18.8C18.734,18.8 18.475,18.889 18.265,19.052C18.054,19.215 17.904,19.444 17.838,19.702C17.771,19.959 17.793,20.232 17.899,20.477C18.072,20.878 18.251,21.362 18.041,21.745L14.664,27.887Z" style="fill:url(#_Linear3);fill-rule:nonzero;"/>
                </g>
            </g>
            <path d="M3.1,16.8C3.1,14.558 3.1,12.883 3.209,11.554C3.317,10.226 3.533,9.253 3.961,8.413C4.718,6.927 5.927,5.718 7.413,4.961C8.253,4.533 9.226,4.317 10.554,4.209C11.883,4.1 13.558,4.1 15.8,4.1L22.2,4.1C24.442,4.1 26.117,4.1 27.446,4.209C28.774,4.317 29.747,4.533 30.587,4.961C32.073,5.718 33.282,6.927 34.039,8.413C34.467,9.253 34.683,10.226 34.791,11.554C34.9,12.883 34.9,14.558 34.9,16.8L34.9,23.2C34.9,25.442 34.9,27.117 34.791,28.446C34.683,29.774 34.467,30.747 34.039,31.587C33.282,33.073 32.073,34.282 30.587,35.039C29.747,35.467 28.774,35.683 27.446,35.791C26.117,35.9 24.442,35.9 22.2,35.9L15.8,35.9C13.558,35.9 11.883,35.9 10.554,35.791C9.226,35.683 8.253,35.467 7.413,35.039C5.927,34.282 4.718,33.073 3.961,31.587C3.533,30.747 3.317,29.774 3.209,28.446C3.1,27.117 3.1,25.442 3.1,23.2L3.1,16.8Z" style="fill:none;fill-rule:nonzero;stroke:rgb(208,213,221);stroke-width:0.2px;"/>
        </g>
    </g>
    <defs>
        <linearGradient id="_Linear2" x1="0" y1="0" x2="1" y2="0" gradientUnits="userSpaceOnUse" gradientTransform="matrix(0,32,-32,0,19,4)"><stop offset="0" style="stop-color:rgb(249,250,251);stop-opacity:1"/><stop offset="1" style="stop-color:rgb(231,235,239);stop-opacity:1"/></linearGradient>
        <linearGradient id="_Linear3" x1="0" y1="0" x2="1" y2="0" gradientUnits="userSpaceOnUse" gradientTransform="matrix(20,20,-20,20,9,10)"><stop offset="0" style="stop-color:rgb(179,159,255);stop-opacity:1"/><stop offset="1" style="stop-color:rgb(106,30,210);stop-opacity:1"/></linearGradient>
    </defs>
</svg>
