<svg id="ff983f3c-d2f2-4c4c-abac-9baf9d853bdc" data-name="Layer 1" xmlns="http://www.w3.org/2000/svg" width="263" height="150" viewBox="0 0 263 150">
  <defs>
    <style>
      .a491cdb5-550f-42fe-965f-ca5442607c7e {
        fill: #fff;
      }

      .adac7649-c6a6-4882-88bf-5a9feea5768e {
        fill: none;
        stroke: #d6d6d6;
      }

      .e6668ebd-5668-4d90-b081-c27a87bd2ff4 {
        fill: #e00;
      }
    </style>
  </defs>
  <rect class="a491cdb5-550f-42fe-965f-ca5442607c7e" width="263" height="150"/>
  <rect class="adac7649-c6a6-4882-88bf-5a9feea5768e" x="0.5" y="0.5" width="262" height="149"/>
  <g id="e7528ac0-e2e5-49f4-b062-61a5189b7ffe" data-name="RH Logo">
    <g id="aabd35a0-7311-452f-b569-6ee7168793ad" data-name="Red Hat lock-up horizontal normal ">
      <path id="a527824a-898b-45df-b027-272e6e70e356" data-name="Path" d="M198.221,80.725c0,2.928,1.756,4.351,4.957,4.351a12.76006,12.76006,0,0,0,2.919-.414v-3.4a6.08319,6.08319,0,0,1-1.886.286c-1.318,0-1.807-.414-1.807-1.657v-5.2h3.82v-3.5h-3.82V66.766l-4.174.906v3.526h-2.772v3.5h2.762Zm-13.013.079c0-.906.906-1.347,2.274-1.347a10.55811,10.55811,0,0,1,2.48.31v1.761a5.26894,5.26894,0,0,1-2.61.648c-1.341,0-2.143-.517-2.143-1.372m1.277,4.324a6.37791,6.37791,0,0,0,3.771-1.061v.83h4.13V76.118c0-3.339-2.244-5.171-5.988-5.171a15.207,15.207,0,0,0-6.384,1.5l1.5,3.083a11.12393,11.12393,0,0,1,4.132-1.088c1.719,0,2.608.672,2.608,2.046v.672a12.12818,12.12818,0,0,0-3.1-.389c-3.514,0-5.63,1.477-5.63,4.12,0,2.408,1.91,4.245,4.957,4.245m-22.7-.231h4.442v-7.1h7.437v7.1h4.454V66.771h-4.437v6.966h-7.437V66.771h-4.442Zm-16.907-6.87a3.464,3.464,0,0,1,3.45371-3.47428q.06816-.00019.13629.00228a4.221,4.221,0,0,1,2.887,1.064v4.789a4.01,4.01,0,0,1-2.887,1.1,3.48,3.48,0,0,1-3.58826-3.36825q-.00161-.05037-.00174-.10075m6.533,6.863h4.132V65.865l-4.17194.906v5.154a7.067,7.067,0,1,0-3.614,13.154,6.155,6.155,0,0,0,3.666-1.189ZM134.448,74.375a3.023,3.023,0,0,1,2.865,2.174h-5.7a2.853,2.853,0,0,1,2.831-2.174m-7.039,3.694a7.18,7.18,0,0,0,7.25506,7.10415q.09-.00095.17993-.00415a8.189,8.189,0,0,0,5.708-2.073l-2.761-2.471a3.688,3.688,0,0,1-2.735,1.037,3.533,3.533,0,0,1-3.359-2.174h9.735V78.45c0-4.351-2.917-7.483-6.894-7.483a7.025,7.025,0,0,0-7.11969,6.929q-.00111.08248-.0003.165m-7.206-7.483a2.06,2.06,0,1,1,0,4.092h-4.393V70.578Zm-8.84,14.321h4.442v-6.6h3.381l3.41,6.6h4.967l-3.978-7.252a5.484,5.484,0,0,0,3.408-5.1c0-3.263-2.556-5.774-6.384-5.774h-9.246Z"/>
      <path id="ae3108ab-0e40-45a3-943e-9ac86d9c85e1" data-name="Path-2" class="e6668ebd-5668-4d90-b081-c27a87bd2ff4" d="M87.176,78.435c3.072,0,7.516-.635,7.516-4.3a3.45732,3.45732,0,0,0-.076-.842l-1.83-7.967c-.422-1.753-.793-2.549-3.862-4.088C86.542,60.017,81.354,58,79.82,58c-1.429,0-1.844,1.847-3.548,1.847-1.64,0-2.858-1.379-4.392-1.379-1.473,0-2.433,1.007-3.175,3.078,0,0-2.065,5.841-2.33,6.688a1.58788,1.58788,0,0,0-.054.478c0,2.27,8.913,9.714,20.855,9.714m7.987-2.8a12.28639,12.28639,0,0,1,.425,2.494c0,3.447-3.865,5.361-8.945,5.361-11.481.005-21.542-6.742-21.542-11.202a4.55391,4.55391,0,0,1,.371-1.8c-4.126.202-9.471.941-9.471,5.674,0,7.747,18.314,17.305,32.815,17.305,11.118,0,13.921-5.043,13.921-9.025,0-3.132-2.7-6.688-7.57-8.81"/>
      <path id="a03b1268-23ae-4610-a922-27d1f6170b62" data-name="Path-3" d="M95.163,75.623a12.2857,12.2857,0,0,1,.425,2.494c0,3.447-3.865,5.361-8.945,5.361-11.481.007-21.538-6.74-21.538-11.2a4.55391,4.55391,0,0,1,.371-1.8l.9-2.231a1.58791,1.58791,0,0,0-.054.468c0,2.27,8.913,9.714,20.855,9.714,3.072,0,7.516-.635,7.516-4.3a3.45683,3.45683,0,0,0-.076-.842Z"/>
    </g>
  </g>
</svg>
