<svg id="eacd2d0c-f209-464b-9f5f-328188f630b3" data-name="Layer 1" xmlns="http://www.w3.org/2000/svg" width="263" height="150" viewBox="0 0 263 150">
  <defs>
    <style>
      .a250edb2-d8a8-4517-9f61-fcd71a78e4a3 {
        fill: #fff;
      }

      .a0905c9e-9d7b-48fd-b4d6-2cd8e0bc26ae {
        fill: #e00;
      }
    </style>
  </defs>
  <rect id="f5367c26-4304-4608-9b66-58dcca89a5d6" data-name="Rectangle 22-2" width="263" height="150"/>
  <path id="e90627e1-4bcc-43c3-960e-d6ddd5ba81cb" data-name="Path-10" class="a250edb2-d8a8-4517-9f61-fcd71a78e4a3" d="M198.22,80.59c0,3.071,1.756,4.564,4.957,4.564a12.2,12.2,0,0,0,2.919-.434V81.16a5.82207,5.82207,0,0,1-1.886.3c-1.318,0-1.807-.434-1.807-1.738V74.26h3.82V70.595h-3.82v-4.65l-4.174.951v3.7h-2.772V74.26h2.762Zm-13.013.083c0-.951.906-1.413,2.274-1.413a10.09235,10.09235,0,0,1,2.48.325v1.847a5.074,5.074,0,0,1-2.61.679c-1.341,0-2.143-.542-2.143-1.439m1.277,4.536a6.162,6.162,0,0,0,3.771-1.113v.87h4.13V75.76c0-3.5-2.244-5.424-5.988-5.424a14.62407,14.62407,0,0,0-6.384,1.576l1.5,3.234a10.712,10.712,0,0,1,4.132-1.142c1.719,0,2.608.705,2.608,2.146v.705a11.59368,11.59368,0,0,0-3.1-.408c-3.514,0-5.63,1.55-5.63,4.321,0,2.526,1.91,4.453,4.957,4.453m-22.7-.243h4.442V77.522h7.437v7.444h4.454V65.951h-4.437V73.26H168.24V65.951h-4.442Zm-16.907-7.206a3.546,3.546,0,0,1,3.4484-3.641q.07082-.00192.1416-.001a4.107,4.107,0,0,1,2.887,1.116V80.27a3.907,3.907,0,0,1-2.887,1.152,3.562,3.562,0,0,1-3.59073-3.53305q-.00041-.053.00073-.10595m6.533,7.2h4.132V65l-4.17194.951V71.36a6.68186,6.68186,0,0,0-3.487-.951,7.16,7.16,0,0,0-7.1026,7.21694q.00056.072.0026.14406a7.5,7.5,0,0,0,2.014,5.232,6.767,6.767,0,0,0,4.959,2.155,5.96411,5.96411,0,0,0,3.666-1.248ZM134.447,73.927a3.047,3.047,0,0,1,2.865,2.281h-5.7a2.879,2.879,0,0,1,2.831-2.281m-7.039,3.874a7.346,7.346,0,0,0,7.24679,7.44389q.09409.00126.1882.00011a7.966,7.966,0,0,0,5.708-2.175l-2.765-2.583a3.6,3.6,0,0,1-2.735,1.087,3.53,3.53,0,0,1-3.359-2.281h9.735V78.201c0-4.564-2.917-7.849-6.894-7.849a6.838,6.838,0,0,0-5.05,2.143,7.58,7.58,0,0,0-2.071,5.3m-7.206-7.849a2.151,2.151,0,1,1,0,4.293h-4.393V69.944Zm-8.835,15.02h4.442V78.039h3.381l3.41,6.927h4.967l-3.973-7.606a5.762,5.762,0,0,0,3.408-5.352c0-3.422-2.556-6.057-6.384-6.057h-9.251Z"/>
  <path id="a4240430-ad8a-419d-8d6c-db643d766acb" data-name="Path-11" class="a0905c9e-9d7b-48fd-b4d6-2cd8e0bc26ae" d="M87.176,77.436c3.072,0,7.516-.666,7.516-4.51a3.79954,3.79954,0,0,0-.076-.883l-1.83-8.359c-.422-1.839-.793-2.673-3.862-4.288-2.382-1.281-7.57-3.4-9.1-3.4-1.429,0-1.844,1.937-3.548,1.937-1.64,0-2.858-1.446-4.392-1.446-1.473,0-2.433,1.056-3.175,3.229,0,0-2.065,6.127-2.33,7.015a1.74269,1.74269,0,0,0-.054.5c0,2.381,8.913,10.19,20.855,10.19m7.987-2.939a13.47291,13.47291,0,0,1,.425,2.616c0,3.616-3.865,5.623-8.945,5.623-11.485.012-21.546-7.065-21.546-11.743a4.97892,4.97892,0,0,1,.371-1.893c-4.126.215-9.471.992-9.471,5.956,0,8.131,18.314,18.153,32.815,18.153,11.118,0,13.921-5.29,13.921-9.466,0-3.285-2.7-7.015-7.57-9.242"/>
  <path id="f72331e7-d283-4f6d-9965-aa918d2f287b" data-name="Path-12" d="M95.163,74.741a13.47292,13.47292,0,0,1,.425,2.616c0,3.616-3.865,5.623-8.945,5.623-11.481.008-21.538-7.069-21.538-11.747a4.9791,4.9791,0,0,1,.371-1.893l.9-2.34a1.74254,1.74254,0,0,0-.054.491c0,2.381,8.913,10.19,20.855,10.19,3.072,0,7.516-.666,7.516-4.51a3.8,3.8,0,0,0-.076-.883Z"/>
</svg>
