<svg width="32" height="32" viewBox="0 0 32 32" fill="none" xmlns="http://www.w3.org/2000/svg">
<path d="M8.80075 2.88808L9.53967 2.13975C10.6719 1.00518 12.5192 1.0776 13.556 2.29666L23.7816 14.3666C24.6755 15.4167 24.6636 16.9737 23.7578 18.0117L13.568 29.7074C12.5192 30.9024 10.6957 30.9627 9.57544 29.8281L8.83652 29.0798C7.83541 28.0659 7.7639 26.4486 8.66966 25.3381L14.7717 17.9272C15.6059 16.9133 15.6178 15.4529 14.8074 14.4149L8.61009 6.5694C7.72816 5.48311 7.81156 3.88988 8.80075 2.88808Z" fill="#92D13D"/>
<path d="M14.7598 17.9513L8.65776 25.3622C7.75199 26.4606 7.8235 28.09 8.82461 29.1039L9.56354 29.8522C10.6838 30.9868 12.5073 30.9265 13.556 29.7315L15.7609 27.1968C16.5951 25.5312 17.0599 23.6483 17.0599 21.6568C17.0599 19.1945 16.3448 16.9133 15.1292 14.9941C15.5821 15.9356 15.4629 17.1064 14.7598 17.9513Z" fill="#49691F"/>
</svg>
