<?xml version="1.0" encoding="UTF-8" standalone="no"?>
<!DOCTYPE svg PUBLIC "-//W3C//DTD SVG 1.1//EN" "http://www.w3.org/Graphics/SVG/1.1/DTD/svg11.dtd">
<svg width="100%" height="100%" viewBox="0 0 51 51" version="1.1" xmlns="http://www.w3.org/2000/svg" xmlns:xlink="http://www.w3.org/1999/xlink" xml:space="preserve" xmlns:serif="http://www.serif.com/" style="fill-rule:evenodd;clip-rule:evenodd;stroke-linejoin:round;stroke-miterlimit:2;">
    <g transform="matrix(1,0,0,1,9.16675,-0.333496)">
        <path d="M17.632,33.983C15.771,33.983 13.908,33.92 12.05,34.003C10.35,34.078 9.365,33.366 8.789,31.776C8.016,29.644 7.046,27.584 6.262,25.454C5.913,24.508 5.383,24.169 4.423,24.275C3.916,24.331 3.38,24.319 2.88,24.22C1.618,23.97 0.86,23.211 0.834,21.877C0.81,20.643 1.725,19.608 3.049,19.532C4.542,19.445 6.048,19.466 7.543,19.526C8.608,19.568 9.344,20.131 9.751,21.174C10.654,23.48 11.655,25.748 12.533,28.063C12.855,28.91 13.266,29.269 14.21,29.242C16.535,29.175 18.863,29.169 21.186,29.246C22.144,29.277 22.523,28.896 22.84,28.06C23.698,25.793 24.636,23.555 25.582,21.323C26.242,19.766 27.4,19.196 28.752,19.68C30.141,20.177 30.675,21.337 30.059,22.967C28.837,26.199 27.538,29.403 26.227,32.6C25.807,33.624 24.897,33.983 23.835,33.984C21.767,33.988 19.7,33.984 17.632,33.984L17.632,33.983Z" style="fill:white;fill-rule:nonzero;"/>
        <path d="M15.194,13.685L15.194,6.801C15.194,5.56 15.167,4.32 15.2,3.081C15.242,1.498 16.4,0.275 17.745,0.336C19.113,0.397 20.092,1.497 20.102,3.069C20.123,6.117 20.109,9.165 20.109,12.212L20.109,14.103C21.153,13.107 21.955,12.363 22.733,11.595C23.92,10.422 25.453,10.26 26.449,11.222C27.516,12.253 27.487,13.642 26.256,14.898C24.052,17.147 21.824,19.374 19.552,21.554C18.273,22.781 17.024,22.728 15.732,21.465C13.518,19.299 11.325,17.111 9.151,14.906C7.885,13.623 7.822,12.306 8.903,11.257C9.931,10.258 11.406,10.348 12.605,11.579C13.347,12.34 13.976,13.212 14.656,14.035C14.835,13.919 15.013,13.804 15.192,13.688L15.194,13.685Z" style="fill:white;fill-rule:nonzero;"/>
        <path d="M17.578,51C14.754,50.85 12.185,49.954 10.034,47.997C8.921,46.984 8.747,45.559 9.615,44.564C10.381,43.687 11.926,43.643 12.984,44.47C16.272,47.04 19.126,47.051 22.292,44.506C23.482,43.55 24.866,43.572 25.757,44.559C26.593,45.486 26.409,46.996 25.361,48.003C23.198,50.082 20.538,50.86 17.58,50.999L17.578,51Z" style="fill:white;fill-rule:nonzero;"/>
        <path d="M12.373,36.447C13.886,36.449 15.056,37.583 15.043,39.032C15.03,40.418 13.741,41.636 12.32,41.603C10.969,41.573 9.754,40.377 9.729,39.055C9.703,37.601 10.877,36.443 12.373,36.445L12.373,36.447Z" style="fill:white;fill-rule:nonzero;"/>
        <path d="M25.654,39.039C25.642,40.399 24.448,41.585 23.068,41.606C21.608,41.628 20.4,40.427 20.419,38.973C20.44,37.439 21.562,36.396 23.133,36.449C24.582,36.498 25.667,37.613 25.655,39.041L25.654,39.039Z" style="fill:white;fill-rule:nonzero;"/>
    </g>
</svg>
