<svg width="256" height="256" viewBox="0 0 256 256" fill="none" xmlns="http://www.w3.org/2000/svg">
<mask id="mask0_1_10" style="mask-type:luminance" maskUnits="userSpaceOnUse" x="0" y="0" width="256" height="256">
<path d="M256 128C256 57.3076 198.692 0 128 0C57.3076 0 0 57.3076 0 128C0 198.692 57.3076 256 128 256C198.692 256 256 198.692 256 128Z" fill="white"/>
</mask>
<g mask="url(#mask0_1_10)">
<path d="M111.485 115.216L111.472 94.1219C111.472 92.8661 110.974 91.6616 110.086 90.773L91.824 72.4771L79.084 86.5328L108.857 116.304C109.828 117.274 111.485 116.587 111.485 115.216Z" fill="url(#paint0_linear_1_10)"/>
<path d="M71.1434 166.073L35.2563 130.263L22.4309 144.196L69.9045 191.624C70.8746 192.592 72.5319 191.905 72.5319 190.534V169.423C72.5319 168.165 72.032 166.961 71.1434 166.073Z" fill="url(#paint1_linear_1_10)"/>
<path d="M118.949 0.779234C54.5387 5.2288 3.06253 58.5437 0.63698 123.061C-1.73043 186.055 41.5879 239.353 100.074 252.427L22.1017 174.445C20.9843 173.328 20.3575 171.81 20.3612 170.23L20.4193 145.037C20.4211 143.985 21.6947 143.458 22.4379 144.203L35.2633 130.271C34.4584 129.466 34.4584 128.16 35.2633 127.357L47.6 115.049C48.4049 114.246 49.7076 114.247 50.5106 115.049L92.1904 156.729C93.9615 158.5 94.9552 160.902 94.9552 163.406V206.893C94.9552 213.158 97.4445 219.166 101.874 223.596L133.654 255.375C141.726 255.029 149.595 253.925 157.204 252.141L116.946 211.869C114.954 209.878 113.835 207.176 113.835 204.36V162.336C113.835 155.446 111.099 148.838 106.226 143.966L63.9229 101.664C63.118 100.859 63.118 99.5531 63.9248 98.748L76.1762 86.5348C76.9806 85.7318 78.2835 85.7338 79.0866 86.5368L91.8266 72.4811C91.5888 72.2082 91.3631 71.9104 91.1381 71.6019C87.5009 66.6924 85.2898 58.5964 87.868 49.4665C89.4121 43.6216 92.6189 39.2138 98.5311 33.8576C99.0505 33.387 99.8704 33.3634 100.399 33.8212L115.711 47.0881L118.727 49.7063C119.887 50.711 121.271 51.4233 122.763 51.7776L170.506 63.1259C171.063 63.2567 171.575 63.5419 171.979 63.9344L221.018 112.856C221.875 113.675 222.361 114.818 222.361 116.006V126.408C222.361 128.007 221.958 129.583 221.187 130.983L196.919 175.199C195.862 177.136 193.494 177.946 191.474 177.065L180.287 172.19H139.404C136.777 172.19 134.649 174.32 134.649 176.945V195.174C134.649 197.683 135.641 200.092 137.409 201.873L179.753 244.541C224.347 224.687 255.447 179.963 255.447 127.974C255.447 54.552 193.426 -4.37165 118.942 0.773784L118.949 0.779234Z" fill="#F5FF80"/>
</g>
<defs>
<linearGradient id="paint0_linear_1_10" x1="111.79" y1="94.7794" x2="91.1463" y2="94.4722" gradientUnits="userSpaceOnUse">
<stop stop-color="#F5FF80" stop-opacity="0"/>
<stop offset="1" stop-color="#F5FF80"/>
</linearGradient>
<linearGradient id="paint1_linear_1_10" x1="72.0994" y1="161.168" x2="46.3757" y2="161.168" gradientUnits="userSpaceOnUse">
<stop stop-color="#F5FF80" stop-opacity="0"/>
<stop offset="0.96" stop-color="#F5FF80"/>
</linearGradient>
</defs>
</svg>
