<svg width="256" height="256" viewBox="0 0 256 256" fill="none" xmlns="http://www.w3.org/2000/svg">
<g clip-path="url(#clip0_1_21)">
<path d="M108.904 112.466L108.886 91.3715C108.886 90.1178 108.396 88.9187 107.505 88.0284L89.2457 69.7141L76.5093 83.7768L106.27 113.556C107.251 114.519 108.904 113.828 108.904 112.466Z" fill="url(#paint0_linear_1_21)"/>
<path d="M71.1494 166.064L27.871 122.895L11.3555 133.251L69.8957 191.609C70.8587 192.572 72.5302 191.9 72.5302 190.519V169.425C72.5302 168.171 72.0396 166.954 71.1494 166.064Z" fill="url(#paint1_linear_1_21)"/>
<path d="M118.952 0.781271C54.543 5.23265 3.07047 58.5402 0.635839 123.058C-1.72612 186.05 41.5886 239.357 100.074 252.421L22.1115 174.44C20.985 173.313 20.3673 171.805 20.3673 170.225L20.4218 145.024C20.4218 143.97 21.6936 143.444 22.4385 144.189L35.2658 130.253C34.4664 129.454 34.4664 128.145 35.2658 127.346L47.6025 115.046C48.4019 114.246 49.7101 114.246 50.5095 115.046L92.189 156.725C93.9695 158.506 94.9507 160.904 94.9507 163.411V206.889C94.9507 213.158 97.4398 219.172 101.873 223.587L133.65 255.364C141.717 255.019 149.585 253.911 157.197 252.13L116.935 211.85C114.936 209.851 113.828 207.162 113.828 204.346V162.339C113.828 155.453 111.085 148.84 106.215 143.97L63.9182 101.673C63.1187 100.874 63.1187 99.5657 63.9182 98.7662L76.164 86.5567C76.9634 85.7573 78.2716 85.7573 79.071 86.5567L91.8074 72.494C91.5713 72.2214 91.3532 71.9307 91.117 71.6219C87.4832 66.7163 85.2666 58.6129 87.8466 49.4921C89.391 43.6417 92.5887 39.2449 98.5118 33.885C99.0387 33.4126 99.8563 33.3945 100.383 33.8487L115.7 47.112L118.716 49.7283C119.878 50.7276 121.259 51.4544 122.749 51.7996L170.497 63.1552C171.06 63.2823 171.569 63.573 171.969 63.9728L221.007 112.902C221.861 113.719 222.351 114.864 222.351 116.045V126.437C222.351 128.036 221.951 129.617 221.17 131.016L196.896 175.239C195.843 177.183 193.481 177.983 191.446 177.111L180.254 172.241H139.374C136.739 172.241 134.613 174.367 134.613 177.002V195.225C134.613 197.732 135.613 200.149 137.375 201.929L179.727 244.59C224.313 224.731 255.419 180.018 255.419 128.018C255.455 54.5613 193.426 -4.3787 118.952 0.781271Z" fill="black"/>
</g>
<defs>
<linearGradient id="paint0_linear_1_21" x1="109.212" y1="92.0252" x2="88.5685" y2="91.7182" gradientUnits="userSpaceOnUse">
<stop stop-opacity="0"/>
<stop offset="1"/>
</linearGradient>
<linearGradient id="paint1_linear_1_21" x1="72.0041" y1="157.488" x2="40.5988" y2="157.488" gradientUnits="userSpaceOnUse">
<stop stop-opacity="0"/>
<stop offset="0.96"/>
</linearGradient>
<clipPath id="clip0_1_21">
<rect width="256" height="255.836" fill="white"/>
</clipPath>
</defs>
</svg>
