<svg width="428" height="390" viewBox="0 0 428 390" fill="none" xmlns="http://www.w3.org/2000/svg">
  <g clip-path="url(#clip0)">
    <path
      d="M214.15 352C308.591 352 385.15 275.441 385.15 181C385.15 86.5593 308.591 10 214.15 10C119.709 10 43.15 86.5593 43.15 181C43.15 275.441 119.709 352 214.15 352Z"
      fill="black" stroke="white" stroke-width="20" stroke-miterlimit="10" />
    <path
      d="M413 134.11H15.29C11.3118 134.11 7.49644 135.69 4.6834 138.503C1.87035 141.316 0.29 145.132 0.29 149.11V164.41C0.12 168 0 171.52 0 175.11C0 293.3 95.81 389.11 214 389.11C330.4 389.11 425.1 296.17 427.93 180.44C427.93 180 428 179.56 428 179.11V149.11C428 145.132 426.42 141.316 423.607 138.503C420.794 135.69 416.978 134.11 413 134.11Z"
      fill="white" />
  </g>
  <defs>
    <clipPath id="clip0">
      <rect width="428" height="389.11" fill="white" />
    </clipPath>
  </defs>
</svg>
