<svg width="551" height="622" viewBox="0 0 551 622" fill="none" xmlns="http://www.w3.org/2000/svg">
<path d="M551 435.4V145.133L299.485 0V111.442L398.016 168.458C401.906 171.05 401.906 176.233 398.016 177.529L281.334 244.913C277.445 247.504 273.555 246.208 270.962 244.913L154.28 177.529C150.391 176.233 150.391 169.754 154.28 168.458L252.812 111.442V0L0 145.133V435.4L95.9388 379.679V265.646C95.9388 261.758 101.125 259.167 103.718 260.463L220.4 327.846C224.289 330.437 225.586 333.029 225.586 336.917V471.683C225.586 475.571 220.4 478.162 217.807 476.867L119.275 419.85L23.3365 475.571L274.852 622L526.367 476.867L430.428 421.146L331.896 478.163C328.007 480.754 324.118 478.162 324.118 472.979V338.213C324.118 334.325 326.711 330.437 329.304 329.142L445.986 261.758C449.875 259.167 453.765 261.758 453.765 266.942V380.975L551 435.4Z" fill="#4C4C4C"/>
<path d="M274.852 622L526.367 476.867L430.428 421.146L331.896 478.162C328.007 480.754 324.117 478.162 324.117 472.979V338.212C324.117 334.325 326.71 330.437 329.303 329.142L445.986 261.758C449.875 259.167 453.765 261.758 453.765 266.942V380.975L549.703 436.696V145.133L274.852 304.521V622Z" fill="black"/>
<path d="M299.485 0V111.442L398.016 168.458C401.906 171.05 401.906 176.233 398.016 177.529L281.334 244.913C277.445 247.504 273.555 246.208 270.962 244.913L154.28 177.529C150.391 176.233 150.391 169.754 154.28 168.458L252.812 111.442V0L0 145.133L274.852 304.521L549.704 145.133L299.485 0Z" fill="#808080"/>
</svg>
