<svg xmlns="http://www.w3.org/2000/svg" xmlns:xlink="http://www.w3.org/1999/xlink" height="800" width="1200" viewBox="-50.25 -74.228 435.5 445.368"><radialGradient r="33.43" gradientUnits="userSpaceOnUse" gradientTransform="matrix(1 0 0 -1 -270.96 -122.075)" cy="-168.24" cx="232.245" id="ac"><stop stop-color="#d1e787" offset=".005"/><stop stop-color="#cee583" offset=".123"/><stop stop-color="#c4de76" offset=".247"/><stop stop-color="#b3d361" offset=".375"/><stop stop-color="#9cc443" offset=".505"/><stop stop-color="#7fb01d" offset=".636"/><stop stop-color="#7bae19" offset=".649"/><stop stop-color="#578d19" offset=".779"/><stop stop-color="#366e1a" offset=".922"/><stop stop-color="#29621a" offset="1"/></radialGradient><linearGradient id="a"><stop stop-color="#d3ed89" offset="0"/><stop stop-color="#5f821c" offset="1"/></linearGradient><linearGradient y2="-147.935" y1="-147.935" xlink:href="#a" x2="265.393" x1="241.248" gradientUnits="userSpaceOnUse" gradientTransform="matrix(1 0 0 -1 -270.96 -122.075)" id="ad"/><linearGradient y2="-156.511" y1="-156.675" x2="237.623" x1="238.196" gradientUnits="userSpaceOnUse" gradientTransform="matrix(1 0 0 -1 -270.96 -122.075)" id="ae"><stop stop-color="#d3ed89" offset=".282"/><stop stop-color="#d3ed89" offset=".405"/><stop stop-color="#5f821c" offset="1"/></linearGradient><linearGradient y2="-145.771" y1="-145.81" x2="240.721" x1="241.273" gradientUnits="userSpaceOnUse" gradientTransform="matrix(1 0 0 -1 -270.96 -122.075)" id="af"><stop stop-color="#7aa922" offset="0"/><stop stop-color="#d3ed89" offset=".2"/><stop stop-color="#d3ed89" offset=".525"/><stop stop-color="#7aa922" offset="1"/></linearGradient><linearGradient y2="-158.343" y1="-158.343" x2="266.219" x1="259.502" gradientUnits="userSpaceOnUse" gradientTransform="matrix(1 0 0 -1 -270.96 -122.075)" id="ag"><stop stop-color="#7aa922" offset=".006"/><stop stop-color="#1d4a20" offset=".169"/><stop stop-color="#26551b" offset=".382"/><stop stop-color="#7aa922" offset="1"/></linearGradient><linearGradient y2="-168.909" y1="-168.946" x2="258.996" x1="259.539" gradientUnits="userSpaceOnUse" gradientTransform="matrix(1 0 0 -1 -270.96 -122.075)" id="ah"><stop stop-color="#7aa922" offset="0"/><stop stop-color="#d3ed89" offset="1"/></linearGradient><linearGradient y2="-169.378" y1="-168.996" x2="259.439" x1="259.782" gradientUnits="userSpaceOnUse" gradientTransform="matrix(1 0 0 -1 -270.96 -122.075)" id="ai"><stop stop-color="#5f821c" offset="0"/><stop stop-color="#26551b" offset="1"/></linearGradient><linearGradient y2="-169.67" y1="-169.67" x2="259.277" x1="234.824" gradientUnits="userSpaceOnUse" gradientTransform="matrix(1 0 0 -1 -270.96 -122.075)" id="aj"><stop stop-color="#7aa922" offset="0"/><stop stop-color="#d3ed89" offset=".4"/><stop stop-color="#7aa922" offset="1"/></linearGradient><linearGradient y2="-167.368" y1="-167.797" x2="234.288" x1="234.675" gradientUnits="userSpaceOnUse" gradientTransform="matrix(1 0 0 -1 -270.96 -122.075)" id="ak"><stop stop-color="#1d3a19" offset="0"/><stop stop-color="#26551b" offset=".1"/><stop stop-color="#7aa922" offset=".65"/><stop stop-color="#d3ed89" offset="1"/></linearGradient><linearGradient y2="-167.611" y1="-167.104" x2="234.942" x1="234.661" gradientUnits="userSpaceOnUse" gradientTransform="matrix(1 0 0 -1 -270.96 -122.075)" id="al"><stop stop-color="#5f821c" offset="0"/><stop stop-color="#7aa922" offset=".405"/><stop stop-color="#5f821c" offset=".8"/><stop stop-color="#5f821c" offset="1"/></linearGradient><linearGradient id="b"><stop stop-color="#5b7f30" offset="0"/><stop stop-color="#d3ed89" offset="1"/></linearGradient><linearGradient y2="-147.38" y1="-147.652" xlink:href="#b" x2="266.023" x1="265.943" gradientUnits="userSpaceOnUse" gradientTransform="matrix(1 0 0 -1 -270.96 -122.075)" id="am"/><linearGradient y2="-144.031" y1="-151.081" x2="240.864" x1="265.448" gradientUnits="userSpaceOnUse" gradientTransform="matrix(1 0 0 -1 -270.96 -122.075)" id="an"><stop stop-color="#1d3419" offset="0"/><stop stop-color="#26551b" offset=".228"/><stop stop-color="#7aa922" offset="1"/></linearGradient><linearGradient y2="-157.978" y1="-158.141" x2="262.11" x1="262.679" gradientUnits="userSpaceOnUse" gradientTransform="matrix(1 0 0 -1 -270.96 -122.075)" id="ao"><stop stop-color="#5f821c" offset="0"/><stop stop-color="#75c146" offset="1"/></linearGradient><linearGradient y2="-147.547" y1="-147.547" xlink:href="#a" x2="266.354" x1="265.25" gradientUnits="userSpaceOnUse" gradientTransform="matrix(1 0 0 -1 -270.96 -122.075)" id="ap"/><linearGradient y2="-144.31" y1="-151.339" x2="240.831" x1="265.343" gradientUnits="userSpaceOnUse" gradientTransform="matrix(1 0 0 -1 -270.96 -122.075)" id="aq"><stop stop-color="#93bf81" offset="0"/><stop stop-color="#26551b" offset=".228"/><stop stop-color="#bde256" offset="1"/></linearGradient><linearGradient y2="-147.381" y1="-147.654" xlink:href="#b" x2="266.026" x1="265.945" gradientUnits="userSpaceOnUse" gradientTransform="matrix(1 0 0 -1 -270.96 -122.075)" id="ar"/><linearGradient y2="-147.548" y1="-147.548" xlink:href="#a" x2="266.356" x1="265.25" gradientUnits="userSpaceOnUse" gradientTransform="matrix(1 0 0 -1 -270.96 -122.075)" id="as"/><radialGradient r="29.215" gradientUnits="userSpaceOnUse" gradientTransform="matrix(1 0 0 -1 -270.96 -122.075)" cy="-164.997" cx="231.44" id="S"><stop stop-color="#efd916" offset=".004"/><stop stop-color="#efd516" offset=".105"/><stop stop-color="#edc715" offset=".216"/><stop stop-color="#ebb213" offset=".331"/><stop stop-color="#e89312" offset=".449"/><stop stop-color="#e36d0f" offset=".567"/><stop stop-color="#e04d0d" offset=".65"/><stop stop-color="#ce2907" offset=".785"/><stop stop-color="#bf0b02" offset=".922"/><stop stop-color="#b90000" offset="1"/></radialGradient><linearGradient id="c"><stop stop-color="#fd7e36" offset="0"/><stop stop-color="#bd6f4f" offset="1"/></linearGradient><linearGradient y2="-142.182" y1="-142.182" xlink:href="#c" x2="213.982" x1="213.862" gradientUnits="userSpaceOnUse" gradientTransform="matrix(1 0 0 -1 -270.96 -122.075)" id="T"/><linearGradient id="d"><stop stop-color="#fc2b21" offset="0"/><stop stop-color="#ff590a" offset=".236"/><stop stop-color="#fb570b" offset=".248"/><stop stop-color="#e74c0e" offset=".327"/><stop stop-color="#d84511" offset=".417"/><stop stop-color="#d04013" offset=".525"/><stop stop-color="#cd3f13" offset=".697"/><stop stop-color="#d04213" offset=".796"/><stop stop-color="#d84b14" offset=".869"/><stop stop-color="#e65b16" offset=".933"/><stop stop-color="#f97219" offset=".993"/><stop stop-color="#fc7519" offset="1"/></linearGradient><linearGradient y2="-141.493" y1="-141.493" xlink:href="#d" x2="238.016" x1="213.921" gradientUnits="userSpaceOnUse" gradientTransform="matrix(1 0 0 -1 -270.96 -122.075)" id="U"/><linearGradient y2="-153.405" y1="-153.405" xlink:href="#c" x2="214.489" x1="207.718" gradientUnits="userSpaceOnUse" gradientTransform="matrix(1 0 0 -1 -270.96 -122.075)" id="V"/><linearGradient id="e"><stop stop-color="#fe560d" offset="0"/><stop stop-color="#8c1501" offset="1"/></linearGradient><linearGradient y2="-139.359" y1="-144.728" xlink:href="#e" x2="215.336" x1="239.424" gradientUnits="userSpaceOnUse" gradientTransform="matrix(1 0 0 -1 -270.96 -122.075)" id="W"/><linearGradient y2="-136.954" y1="-144.433" xlink:href="#e" x2="225.681" x1="225.955" gradientUnits="userSpaceOnUse" gradientTransform="matrix(1 0 0 -1 -270.96 -122.075)" id="X"/><linearGradient y2="-154.559" y1="-154.559" x2="238.115" x1="231.084" gradientUnits="userSpaceOnUse" gradientTransform="matrix(1 0 0 -1 -270.96 -122.075)" id="Y"><stop stop-color="#fd7e36" offset="0"/><stop stop-color="#fc895b" offset="1"/></linearGradient><linearGradient y2="-163.009" y1="-163.009" x2="231.804" x1="207.735" gradientUnits="userSpaceOnUse" gradientTransform="matrix(1 0 0 -1 -270.96 -122.075)" id="Z"><stop stop-color="#fd9b20" offset="0"/><stop stop-color="#fd9b20" offset=".25"/><stop stop-color="#fdb830" offset=".337"/><stop stop-color="#fed23e" offset=".429"/><stop stop-color="#fedb43" offset=".485"/><stop stop-color="#fe8411" offset=".75"/><stop stop-color="#fe560d" offset="1"/></linearGradient><linearGradient y2="-142.182" y1="-142.182" xlink:href="#c" x2="213.983" x1="213.862" gradientUnits="userSpaceOnUse" gradientTransform="matrix(1 0 0 -1 -270.96 -122.075)" id="aa"/><linearGradient y2="-141.493" y1="-141.493" xlink:href="#d" x2="238.016" x1="213.92" gradientUnits="userSpaceOnUse" gradientTransform="matrix(1 0 0 -1 -270.96 -122.075)" id="ab"/><radialGradient r="30.777" gradientUnits="userSpaceOnUse" gradientTransform="matrix(1 0 0 -1 -270.96 -122.075)" cy="-169.231" cx="232.379" id="B"><stop stop-color="#fcf5b0" offset="0"/><stop stop-color="#f7eda0" offset=".166"/><stop stop-color="#f3e591" offset=".285"/><stop stop-color="#fcd118" offset=".65"/><stop stop-color="#f7a50c" offset=".802"/><stop stop-color="#f38603" offset=".929"/><stop stop-color="#f27b00" offset="1"/></radialGradient><linearGradient y2="-194.736" y1="-194.258" x2="252.693" x1="252.821" gradientUnits="userSpaceOnUse" gradientTransform="matrix(1 0 0 -1 -270.96 -122.075)" id="C"><stop stop-color="#de980d" offset="0"/><stop stop-color="#a85d10" offset="1"/></linearGradient><linearGradient y2="-184.025" y1="-184.025" x2="258.914" x1="252.829" gradientUnits="userSpaceOnUse" gradientTransform="matrix(1 0 0 -1 -270.96 -122.075)" id="D"><stop stop-color="#deb150" offset="0"/><stop stop-color="#fff8b3" offset="1"/></linearGradient><linearGradient y2="-173.69" y1="-173.294" x2="258.853" x1="258.853" gradientUnits="userSpaceOnUse" gradientTransform="matrix(1 0 0 -1 -270.96 -122.075)" id="E"><stop stop-color="#c67c0c" offset=".006"/><stop stop-color="#de980d" offset="1"/></linearGradient><linearGradient id="f"><stop stop-color="#fed40f" offset=".006"/><stop stop-color="#a85d10" offset="1"/></linearGradient><linearGradient y2="-173.24" y1="-172.829" xlink:href="#f" x2="258.228" x1="257.981" gradientUnits="userSpaceOnUse" gradientTransform="matrix(1 0 0 -1 -270.96 -122.075)" id="F"/><linearGradient y2="-173.327" y1="-173.145" xlink:href="#f" x2="258.473" x1="258.626" gradientUnits="userSpaceOnUse" gradientTransform="matrix(1 0 0 -1 -270.96 -122.075)" id="G"/><linearGradient y2="-173.117" y1="-173.117" x2="257.971" x1="233.971" gradientUnits="userSpaceOnUse" gradientTransform="matrix(1 0 0 -1 -270.96 -122.075)" id="H"><stop stop-color="#fff8fb" offset="0"/><stop stop-color="#fec236" offset="1"/></linearGradient><linearGradient y2="-183.377" y1="-183.53" x2="254.807" x1="255.342" gradientUnits="userSpaceOnUse" gradientTransform="matrix(1 0 0 -1 -270.96 -122.075)" id="I"><stop stop-color="#b37e00" offset="0"/><stop stop-color="#ff9e00" offset="1"/></linearGradient><linearGradient y2="-194.577" y1="-193.978" x2="252.283" x1="252.55" gradientUnits="userSpaceOnUse" gradientTransform="matrix(1 0 0 -1 -270.96 -122.075)" id="J"><stop stop-color="#ffd100" offset=".006"/><stop stop-color="#a8710a" offset="1"/></linearGradient><linearGradient y2="-194.564" y1="-194.564" x2="252.086" x1="227.626" gradientUnits="userSpaceOnUse" gradientTransform="matrix(1 0 0 -1 -270.96 -122.075)" id="K"><stop stop-color="#de980d" offset="0"/><stop stop-color="#fdda10" offset=".4"/><stop stop-color="#de980d" offset="1"/></linearGradient><linearGradient y2="-192.445" y1="-192.882" x2="227.063" x1="227.456" gradientUnits="userSpaceOnUse" gradientTransform="matrix(1 0 0 -1 -270.96 -122.075)" id="L"><stop stop-color="#de980d" offset="0"/><stop stop-color="#de980d" offset=".1"/><stop stop-color="#fdda10" offset=".7"/><stop stop-color="#de980d" offset="1"/></linearGradient><linearGradient y2="-192.65" y1="-192.15" x2="227.745" x1="227.468" gradientUnits="userSpaceOnUse" gradientTransform="matrix(1 0 0 -1 -270.96 -122.075)" id="M"><stop stop-color="#de980d" offset="0"/><stop stop-color="#febf0f" offset=".4"/><stop stop-color="#fed40f" offset=".8"/><stop stop-color="#de980d" offset="1"/></linearGradient><radialGradient r=".302" gradientUnits="userSpaceOnUse" gradientTransform="matrix(1 0 0 -1 -270.96 -122.075)" cy="-170.85" cx="233.66" id="N"><stop stop-color="#feeb71" offset="0"/><stop stop-color="#de980d" offset="1"/></radialGradient><linearGradient y2="-181.61" y1="-181.772" x2="230.383" x1="230.946" gradientUnits="userSpaceOnUse" gradientTransform="matrix(1 0 0 -1 -270.96 -122.075)" id="O"><stop stop-color="#ffefbb" offset=".006"/><stop stop-color="#ffbf00" offset="1"/></linearGradient><linearGradient y2="-173.376" y1="-173.376" x2="258.867" x1="232.795" gradientUnits="userSpaceOnUse" gradientTransform="matrix(1 0 0 -1 -270.96 -122.075)" id="P"><stop stop-color="#fca859" offset=".006"/><stop stop-color="#fdc30f" offset=".213"/><stop stop-color="#b51c00" offset="1"/></linearGradient><linearGradient y2="-173.716" y1="-173.716" x2="258.914" x1="233.006" gradientUnits="userSpaceOnUse" gradientTransform="matrix(1 0 0 -1 -270.96 -122.075)" id="Q"><stop stop-color="#fff6d8" offset=".006"/><stop stop-color="#fdda10" offset=".525"/><stop stop-color="#f9bd0c" offset="1"/></linearGradient><linearGradient y2="-193.704" y1="-194.017" x2="251.763" x1="252.125" gradientUnits="userSpaceOnUse" gradientTransform="matrix(1 0 0 -1 -270.96 -122.075)" id="R"><stop stop-color="#eab949" offset="0"/><stop stop-color="#edc25a" offset=".072"/><stop stop-color="#f3d883" offset=".278"/><stop stop-color="#f8e9a4" offset=".478"/><stop stop-color="#fcf5bc" offset=".67"/><stop stop-color="#fefcca" offset=".848"/><stop stop-color="#ffffcf" offset="1"/></linearGradient><radialGradient r="33.058" gradientUnits="userSpaceOnUse" gradientTransform="matrix(1 0 0 -1 -270.96 -122.075)" cy="-168.505" cx="232.407" id="o"><stop stop-color="#d1e7ee" offset=".001"/><stop stop-color="#cde4ec" offset=".098"/><stop stop-color="#c0dce8" offset=".203"/><stop stop-color="#add0e1" offset=".298"/><stop stop-color="#3982b1" offset=".65"/><stop stop-color="#3474aa" offset=".72"/><stop stop-color="#285699" offset=".899"/><stop stop-color="#244b93" offset="1"/></radialGradient><linearGradient id="g"><stop stop-color="#d8eeed" offset=".004"/><stop stop-color="#98d8d7" offset=".173"/><stop stop-color="#8ed3d3" offset=".224"/><stop stop-color="#74c6ca" offset=".309"/><stop stop-color="#49b1ba" offset=".418"/><stop stop-color="#3caab5" offset=".448"/><stop stop-color="#2e81a4" offset=".56"/><stop stop-color="#215b94" offset=".684"/><stop stop-color="#19448b" offset=".783"/><stop stop-color="#163b87" offset=".845"/><stop stop-color="#0b317d" offset="1"/></linearGradient><radialGradient xlink:href="#g" r="33.26" gradientUnits="userSpaceOnUse" gradientTransform="matrix(1 0 0 -1 -270.96 -122.075)" cy="-168.276" cx="232.389" id="p"/><linearGradient id="h"><stop stop-color="#d8eeed" offset=".004"/><stop stop-color="#98d8d7" offset=".173"/><stop stop-color="#8ed3d3" offset=".224"/><stop stop-color="#74c6ca" offset=".309"/><stop stop-color="#49b1ba" offset=".418"/><stop stop-color="#3caab5" offset=".448"/><stop stop-color="#2e81a4" offset=".56"/><stop stop-color="#215b94" offset=".684"/><stop stop-color="#19448b" offset=".783"/><stop stop-color="#163b87" offset=".845"/><stop stop-color="#152469" offset="1"/></linearGradient><radialGradient xlink:href="#h" r="33.178" gradientUnits="userSpaceOnUse" gradientTransform="matrix(1 0 0 -1 -270.96 -122.075)" cy="-168.443" cx="232.386" id="q"/><radialGradient xlink:href="#g" r="33.192" gradientUnits="userSpaceOnUse" gradientTransform="matrix(1 0 0 -1 -270.96 -122.075)" cy="-168.416" cx="232.41" id="r"/><linearGradient y2="-187.729" y1="-169.541" x2="225.406" x1="230.576" gradientUnits="userSpaceOnUse" gradientTransform="matrix(1 0 0 -1 -270.96 -122.075)" id="s"><stop stop-color="#98d8d7" offset="0"/><stop stop-color="#152469" offset="1"/></linearGradient><radialGradient xlink:href="#h" r="33.31" gradientUnits="userSpaceOnUse" gradientTransform="matrix(1 0 0 -1 -270.96 -122.075)" cy="-168.404" cx="232.418" id="t"/><linearGradient id="i"><stop stop-color="#def3f1" offset="0"/><stop stop-color="#5085bc" offset="1"/></linearGradient><linearGradient y2="-178.688" y1="-178.688" xlink:href="#i" x2="207.315" x1="200.45" gradientUnits="userSpaceOnUse" gradientTransform="matrix(1 0 0 -1 -270.96 -122.075)" id="u"/><linearGradient y2="-179.954" y1="-179.954" xlink:href="#i" x2="230.89" x1="223.903" gradientUnits="userSpaceOnUse" gradientTransform="matrix(1 0 0 -1 -270.96 -122.075)" id="v"/><linearGradient y2="-167.061" y1="-167.061" x2="230.795" x1="206.641" gradientUnits="userSpaceOnUse" gradientTransform="matrix(1 0 0 -1 -270.96 -122.075)" id="w"><stop stop-color="#094992" offset="0"/><stop stop-color="#8bcde2" offset=".668"/><stop stop-color="#e6f6f9" offset="1"/></linearGradient><linearGradient y2="-167.477" y1="-167.477" x2="230.318" x1="207.226" gradientUnits="userSpaceOnUse" gradientTransform="matrix(1 0 0 -1 -270.96 -122.075)" id="x"><stop stop-color="#bbc7e1" offset=".006"/><stop stop-color="#7090c3" offset=".225"/><stop stop-color="#c8eaef" offset=".545"/><stop stop-color="#fff" offset="1"/></linearGradient><linearGradient y2="-166.776" y1="-166.776" x2="230.795" x1="206.696" gradientUnits="userSpaceOnUse" gradientTransform="matrix(1 0 0 -1 -270.96 -122.075)" id="y"><stop stop-color="#7090c3" offset=".006"/><stop stop-color="#c1e7ed" offset=".545"/><stop stop-color="#fff" offset="1"/></linearGradient><radialGradient r=".082" gradientUnits="userSpaceOnUse" gradientTransform="matrix(1 0 0 -1 -270.96 -122.075)" cy="-167.599" cx="206.623" id="z"><stop stop-color="#7e9ec4" offset="0"/><stop stop-color="#0a50a1" offset="1"/></radialGradient><radialGradient r="40.777" gradientUnits="userSpaceOnUse" gradientTransform="matrix(1 0 0 -1 -270.96 -122.075)" cy="-188.167" cx="190.719" id="A"><stop stop-color="#d8eeed" offset=".004"/><stop stop-color="#98d8d7" offset=".173"/><stop stop-color="#8ed3d3" offset=".224"/><stop stop-color="#74c6ca" offset=".309"/><stop stop-color="#49b1ba" offset=".418"/><stop stop-color="#3caab5" offset=".448"/><stop stop-color="#369fb5" offset=".499"/><stop stop-color="#2a88b4" offset=".631"/><stop stop-color="#257fb4" offset=".713"/><stop stop-color="#4161ab" offset="1"/></radialGradient><linearGradient id="j"><stop stop-color="#fff" offset=".25"/><stop offset="1"/></linearGradient><radialGradient xlink:href="#j" r="30.869" gradientUnits="userSpaceOnUse" gradientTransform="matrix(.9732 0 0 -.9795 -286.102 -136.415)" cy="-191.691" cx="256.776" id="k"/><radialGradient xlink:href="#j" r="30.867" gradientUnits="userSpaceOnUse" gradientTransform="matrix(.9732 0 0 -.9795 -286.102 -136.415)" cy="-191.692" cx="256.778" id="l"/><radialGradient xlink:href="#j" r="30.869" gradientUnits="userSpaceOnUse" gradientTransform="matrix(.9732 0 0 -.9795 -286.102 -136.415)" cy="-191.693" cx="256.777" id="m"/><radialGradient xlink:href="#j" r="30.871" gradientUnits="userSpaceOnUse" gradientTransform="matrix(.9732 0 0 -.9795 -286.102 -136.415)" cy="-191.693" cx="256.776" id="n"/><path opacity=".2" fill="url(#k)" d="M-51.028 44.956c-1.092.027-2.244.14-3.425.336a33.83 33.83 0 00-3.903.903c-1.408.408-2.905.93-4.445 1.549l-.011.002a.19.19 0 00-.107.122l-6.138 20.796c-.034.11.027.223.097.283l.411.305s.007.004.013.01a.356.356 0 00.239.057l.013-.004c2.299-.863 4.348-1.482 6.266-1.896 1.869-.401 3.552-.592 5.146-.584 1.333.009 2.586.146 3.833.417 1.125.247 2.219.599 3.343 1.078 1.576.686 3.021 1.549 4.104 2.223l.01.006v.003c.034.017.134.063.23.021 0 0 .271-.155.352-.203l.028-.019c.055-.037.13-.088.152-.183l.004-.021.003.005 6.109-20.252.21-.694a.332.332 0 00.006-.057.239.239 0 00-.094-.195l-.007-.001v-.001c-2.601-1.706-5.54-3.353-9.414-3.853a19.782 19.782 0 00-3.025-.153z" transform="translate(350.115 -85.539) scale(4.96547)"/><path opacity=".2" fill="url(#l)" d="M-35.767 51.116a.546.546 0 00-.255.101h-.003l-.001.003c-.028.019-.099.066-.18.128-.165.125-.266.227-.294.296h-.001a.074.074 0 01-.006.018l.001-.005-.001.007v.002l-6.145 20.606c-.106.309.177.478.209.495 1.577 1.024 3.08 1.831 4.596 2.462a22.72 22.72 0 002.702.94c.981.275 1.989.488 3 .63 1.084.149 2.202.226 3.323.223a26.903 26.903 0 003.668-.277 31.477 31.477 0 004.037-.866 39.51 39.51 0 004.428-1.546l.009-.005c.042-.026.142-.087.192-.188l6.003-20.277-.002-.004v-.002a.342.342 0 00.009-.088c0-.167-.107-.268-.108-.27 0 .002-.503-.386-.503-.386l-.001-.004c-.033-.035-.121-.091-.336-.06A53.48 53.48 0 01-15.85 54.3a37.176 37.176 0 01-3.885.699c-2.321.284-4.421.284-6.418 0a19.504 19.504 0 01-5.084-1.444c-1.343-.582-2.711-1.336-4.305-2.377l-.005-.002h.002a.576.576 0 00-.222-.06z" transform="translate(350.115 -85.539) scale(4.96547)"/><path opacity=".2" fill="url(#m)" d="M-28.746 26.02a9.55 9.55 0 00-.105.073c-.211.153-.337.271-.372.352l-.001.002-.001.001-.021.07c0 .004-6.165 20.654-6.165 20.654a.425.425 0 00-.024.136c0 .226.209.342.213.343h.001c.489.317.993.622 1.5.903 2.366 1.429 4.704 2.378 7.148 2.9 1.416.307 2.888.468 4.376.481a25.656 25.656 0 005-.465c2.535-.389 5.111-1.154 7.653-2.268 0-.002.007-.004.007-.004a.504.504 0 00.206-.19c0-.005 6.269-20.843 6.269-20.843a.348.348 0 00.018-.107c0-.179-.157-.329-.309-.459a1.235 1.235 0 00-.281-.211c-.17-.078-.344-.053-.396-.022l-.004.004-.001.001a47.056 47.056 0 01-4.433 1.531 32.8 32.8 0 01-3.898.874c-1.18.186-2.334.287-3.432.303a19.942 19.942 0 01-3.03-.183 18.756 18.756 0 01-5.124-1.493c-1.683-.753-3.192-1.692-4.32-2.426-.193-.085-.278-.079-.474.043z" transform="translate(350.115 -85.539) scale(4.96547)"/><path opacity=".2" fill="url(#n)" d="M-48.7 20.242c-2.127.446-4.451 1.172-6.906 2.155-.022.009-.091.035-.114.124l-.319 1.063-5.911 19.8a.22.22 0 00-.009.07c0 .096.043.215.091.25.009.007.021.012.028.016l.001.002.041.03.364.276.011.006a.537.537 0 00.033.023c.075.03.094.03.113.028h.007c0-.002.003-.002.003-.002v-.001l.011-.003a.78.78 0 00.181-.061c5.384-2.067 9.69-2.819 13.551-2.361 1.647.195 3.24.617 4.872 1.287 1.299.535 2.641 1.235 4.217 2.202l.022.01h.005l.019.01h.003l.005.003.006.004h-.002c.001 0 .125.06.228.033l.388-.17.018-.012c.051-.036.131-.091.154-.19l3.888-13.001 2.089-6.986.14-.461.001-.01.101-.339c.003-.01.004-.022.006-.035v-.028a.216.216 0 00-.091-.185c-1.235-.81-2.215-1.395-3.178-1.893l-.065-.033c-2.779-1.434-5.454-2.13-8.417-2.19-1.736-.036-3.616.154-5.585.569z" transform="translate(350.115 -85.539) scale(4.96547)"/><path fill="url(#o)" d="M-64.246 45.578c12.532-5.162 18.598-2.408 24.03 1.28l-6.274 21.563c-5.452-3.666-11.38-6.685-23.962-1.483l6.132-21.329z" transform="translate(350.115 -85.539) scale(4.96547)"/><path fill="url(#p)" d="M-69.99 67.572c.041.005.113-.034.113-.034.09.063.162.104.162.104s-.142.033-.275-.07z" transform="translate(350.115 -85.539) scale(4.96547)"/><path fill="#152469" d="M118.188 255.41s.407.393.893.274l-1.862 1.112c-.596.268-1.226-.164-1.226-.164z"/><path fill="url(#q)" d="M-69.869 67.541s-.075.042-.116.036l-.414-.318-.007-.008a.39.39 0 00.151.004z" transform="translate(350.115 -85.539) scale(4.96547)"/><path fill="#152469" d="M119.245 253.926c.209.124.427.313.63.735-.108.566-.555.839-.848 1.038-.378.079-.909-.259-.909-.259.308-.253.804-.615 1.127-1.514z"/><path fill="#172e65" d="M.55 248.434c-.397-.338-.665-.933-.501-1.465l.362-.164c-.144.8.413 1.361.84 1.63.005 0-.293.128-.7 0z"/><path fill="url(#r)" d="M-69.895 67.522c11.97-4.675 17.33-2.127 22.784 1.377-3.266-2.103-6.622-3.775-11.257-3.809-3.104-.016-6.77.769-11.359 2.552 0 0-.091-.037-.168-.12z" transform="translate(350.115 -85.539) scale(4.96547)"/><path fill="#094b8f" d="M118.173 255.495C91.096 237.272 63.046 223.373 1.3 248.459c-.412-.253-1.072-.884-.903-1.654 62.674-26.67 91.806-11.092 118.878 7.12-.283.974-.795 1.332-1.102 1.57z"/><path fill="#094b8f" d="M118.212 255.495l-2.2 1.132c-27.056-17.399-54.45-29.45-112.83-6.793l-1.936-1.4c61.76-25.09 89.875-11.162 116.966 7.061z"/><path fill="url(#s)" d="M-46.498 68.37l6.282-21.513a.628.628 0 01.142.121l-6.294 21.546c-.036-.097-.13-.154-.13-.154z" transform="translate(350.115 -85.539) scale(4.96547)"/><path fill="url(#t)" d="M-40.176 46.709l.01.002c.08.057.112.167.092.267l-.004.013c-.036-.037-.072-.077-.14-.123z" transform="translate(350.115 -85.539) scale(4.96547)"/><path opacity=".66" fill="#063367" d="M.049 246.974l30.329-106.142.363.09L.41 246.805z"/><path opacity=".42" fill="url(#u)" d="M-64.392 45.589l-.29 1.024-5.818 20.352c-.032.106.021.227.101.295l.414.317h.001a.412.412 0 00.149.062l6.19-21.452-.014-.017-.66-.562zm-6.024 21.338v-.004l.086-.031c-.03.011-.056.022-.086.035zm.158.332a.472.472 0 01-.124-.118c.036.05.084.091.124.114v.004z" transform="translate(350.115 -85.539) scale(4.96547)"/><path opacity=".42" fill="url(#v)" d="M-40.099 46.802l-.119.071-.521.513c.002 0 .002 0 .002.004-.847 2.893-5.601 19.126-6.321 21.557.045.013.1.017.153-.005l.375-.224h-.004c.056-.042.14-.095.165-.203v.008l6.086-20.831.208-.715c.006-.039 0-.074-.006-.11-.003-.023-.01-.041-.018-.065z" transform="translate(350.115 -85.539) scale(4.96547)"/><path fill="url(#w)" d="M-40.218 46.867l-.521.52c-1.808-1.201-6.789-4.293-12.414-3.834-4.566.372-8.586 1.84-10.493 2.633l-.674-.578.048-.149c12.585-5.206 18.653-2.438 24.1 1.251l-.004.002h.009z" transform="translate(350.115 -85.539) scale(4.96547)"/><path opacity=".33" fill="url(#x)" d="M-63.734 46.108c12.587-5.205 18.208-1.765 23.092 1.184l-.096.095c-5.028-3.115-10.375-6.311-22.905-1.196z" transform="translate(350.115 -85.539) scale(4.96547)"/><path opacity=".33" fill="url(#y)" d="M-64.264 45.44c12.585-5.205 18.4-2.531 24.098 1.271l-.049.147c-5.984-3.873-11.428-6.449-23.958-1.336z" transform="translate(350.115 -85.539) scale(4.96547)"/><path fill="url(#z)" d="M-64.319 45.607l-.073-.018c.027-.088.092-.123.112-.128l.009-.003c0-.001-.012.043-.048.149z" transform="translate(350.115 -85.539) scale(4.96547)"/><path opacity=".5" fill="url(#A)" d="M-46.696 68.677c-5.452-3.666-11.102-6.466-23.536-1.417-.083-.049-.217-.174-.184-.331 12.624-5.374 18.49-2.233 23.942 1.432-.056.199-.159.266-.222.316z" transform="translate(350.115 -85.539) scale(4.96547)"/><path fill="url(#B)" d="M-36.929 48.943c5.448 3.665 11.02 6.353 23.825 1.975l-5.977 20.791c-12.568 5.198-18.603 2.255-24.045-1.435z" transform="translate(350.115 -85.539) scale(4.96547)"/><path fill="url(#C)" d="M-18.02 72.447a.509.509 0 01-.204.202c-.01 0-.017.005-.017.005s-.104.01-.197-.061a.71.71 0 00.317-.405s.144.121.101.259z" transform="translate(350.115 -85.539) scale(4.96547)"/><path fill="url(#D)" d="M-18.02 72.447c.022-.118-.111-.228-.111-.228l5.959-20.766s.096.085.125.152z" transform="translate(350.115 -85.539) scale(4.96547)"/><path fill="url(#E)" d="M-12.049 51.615s-.018-.064-.125-.149c.048-.202.012-.247.012-.247l.015.01c0-.001.153.144.098.386z" transform="translate(350.115 -85.539) scale(4.96547)"/><path fill="url(#F)" d="M-12.644 51.112s-.162-.198-.499-.14c.017-.075.045-.166.153-.209.202-.031.298.019.342.065a.113.113 0 01.032.042.42.42 0 01-.028.242z" transform="translate(350.115 -85.539) scale(4.96547)"/><path fill="url(#G)" d="M-12.648 50.829l.501.399c.025.132-.027.268-.027.268l-.493-.395c0-.001.048-.153.019-.272z" transform="translate(350.115 -85.539) scale(4.96547)"/><path opacity=".66" fill="#b37e00" d="M260.155 273.167l-.129.258-2.587-2.234 29.758-103.168 2.498 2.006z"/><path fill="url(#H)" d="M-13.122 50.993c-12.621 4.304-18.399 1.746-23.845-1.924.011-.041.036-.134-.022-.229 5.447 3.668 11.472 6.167 24 1.924-.098.065-.108.154-.133.229z" transform="translate(350.115 -85.539) scale(4.96547)"/><path fill="#d9a200" d="M131.306 264.885v-.249l30.399-105.248 2.08-1.41-30.13 105.04z"/><path opacity=".66" fill="url(#I)" d="M-19.143 71.726l6-20.76c.01 0 .021-.018.036-.019.313-.03.463.133.463.133l-5.978 20.733c0 .001-.251-.198-.521-.087z" transform="translate(350.115 -85.539) scale(4.96547)"/><path fill="#a85d10" d="M259.63 275.198c-61.2 26.153-100.443 10.06-127.485-8.138l.283-.259c27.023 18.204 68.663 33.373 126.129 7.99.466.392 1.072.407 1.072.407z"/><path opacity=".66" fill="url(#J)" d="M-18.627 71.806l.51.434s-.068.242-.342.359l-.518-.425c.273-.117.35-.368.35-.368z" transform="translate(350.115 -85.539) scale(4.96547)"/><path fill="url(#K)" d="M-19.133 71.698c-.048.321.259.519.259.519-13.061 4.725-18.658 1.903-24.46-1.593.093-.074.145-.129.201-.353.011.004.085-.009.098 0 5.61 3.453 12.093 6.314 23.902 1.427z" transform="translate(350.115 -85.539) scale(4.96547)"/><path fill="#c67c0c" d="M132.438 266.94l2.503-1.802c24.783 15.448 59.491 32.35 121.103 7.622l2.532 2.14c-57.247 25.384-99.11 10.229-126.138-7.96z"/><path fill="#de980d" d="M132.652 267.015l-.288.203s-1.624-.903-1.058-2.577c.14 1.639 1.346 2.374 1.346 2.374z"/><path fill="url(#L)" d="M-44.066 70.522l.473-.388c-.026.346.309.475.309.475l-.519.397a.502.502 0 01-.263-.484z" transform="translate(350.115 -85.539) scale(4.96547)"/><path fill="url(#M)" d="M-43.627 70.149c.169-.065.325.011.505.115-.06.223-.102.301-.194.366-.115-.064-.339-.197-.311-.481z" transform="translate(350.115 -85.539) scale(4.96547)"/><path fill="#de980d" d="M164.193 157.094l-.457.894-2.09 1.5c.148-.7 1.866-1.942 2.398-2.304.074-.06.149-.09.149-.09z"/><path fill="url(#N)" d="M-36.972 49.066a.588.588 0 00-.563-.022c.015-.047.067-.167.067-.167.203-.127.293-.127.479-.037a.271.271 0 01.017.226z" transform="translate(350.115 -85.539) scale(4.96547)"/><path fill="url(#O)" d="M-43.076 70.3c-.179-.105-.383-.184-.556-.115l6.106-21.143a.58.58 0 01.559.027z" transform="translate(350.115 -85.539) scale(4.96547)"/><path opacity=".33" fill="url(#P)" d="M-37.838 49.185c1.864 1.617 9.958 8.234 25.691 2.043l-.501-.399c-.043-.046-.139-.097-.341-.065-12.528 4.243-18.553 1.744-24-1.924v.005c-.183-.093-.274-.093-.475.037-.252.174-.252.172-.374.303z" transform="translate(350.115 -85.539) scale(4.96547)"/><path opacity=".33" fill="url(#Q)" d="M-12.147 51.228c-15.733 6.191-23.828-.426-25.691-2.043a.445.445 0 00-.105.136v.005l-.006.016-.002.004h.002l-.003.01c1.625 1.422 9.755 8.508 25.908 2.101-.018-.142-.103-.229-.103-.229z" transform="translate(350.115 -85.539) scale(4.96547)"/><path fill="url(#R)" d="M-18.944 72.16s-.232-.141-.188-.462a.54.54 0 01.513.115s-.051.229-.325.347z" transform="translate(350.115 -85.539) scale(4.96547)"/><path fill="url(#S)" d="M-39.171 42.971c-3.279-2.209-6.808-4.274-11.821-4.311-3.306-.026-7.244.915-12.243 2.979l6.193-21.462c12.574-5.2 18.616-2.252 24.063 1.432z" transform="translate(350.115 -85.539) scale(4.96547)"/><path fill="#bc1b00" d="M155.578 127.803l30.77-106.038c.338.214.477.392.646.601l-30.751 106.192c-.174-.447-.665-.755-.665-.755zm-116.5-3.491c9.851-4.037 18.953-7.031 27.409-9.092 2.06-.506 3.883-.933 6.058-1.355 1.986-.407 3.957-.79 5.874-1.078 3.004-.442 5.929-.829 8.799-1.057 2.423-.194 4.792-.328 7.11-.348 2.24-.02 4.45 0 6.595.114 1.896.11 3.758.258 5.6.472 1.555.174 3.07.377 4.579.63a89.557 89.557 0 019.19 2.051c11.968 3.387 22.594 9.157 32.366 15.656-.08.045-.313-.064-.402-.114-.095-.044-.14-.044-.234-.1-13.203-8.366-27.374-15.665-44.888-17.815-17.9-2.19-38.805.894-66.94 12.041 0 0-.63.293-.898.323-.218.064-.169-.11-.218-.328z"/><path fill="#bc1b00" d="M154.52 129.362s.402.283.874.184l-1.927.869c-.526.139-1.152-.18-1.152-.18z"/><path fill="#b81a00" d="M39.087 124.327l.209.343c-.169.024-.213.07-.675-.14-.07-.02-.15-.094-.234-.163l-2-1.56-.19-.148c.269-.015.467.104.606.089z"/><path fill="#e82e00" d="M155.612 127.823c.209.134.467.213.65.65-.133.586-.61.874-.873 1.068-.482.134-.939-.224-.939-.224.303-.223.85-.605 1.162-1.494z"/><path fill="#f83603" d="M186.532 21.035l.035.01c.397.278.541.795.422 1.311l-.025.045c-.159-.189-.278-.388-.62-.646z"/><path fill="#e32e00" d="M36.237 122.723c-.303-.218-.586-1.127-.417-1.663l.397-.124c-.158.77.313 1.663.74 1.911.005 0-.293.174-.72-.124z"/><path fill="url(#T)" d="M-57.04 20.181l-.059-.015c.024-.095.089-.124.113-.131l.008-.002a.628.628 0 00-.062.148z" transform="translate(350.115 -85.539) scale(4.96547)"/><path fill="#e82e00" d="M154.58 129.382c-29.103-20.19-64.745-32.862-117.682-6.56l2.165 1.53c57.852-23.636 88.003-10.865 113.396 5.879z"/><path fill="#e82e00" d="M154.52 129.362c-16.664-10.874-32.236-19.892-56.934-20.597-18.025.363-31.874 2.667-60.634 14.082-.427-.233-.968-.839-.829-1.623 24.922-10.607 44.694-15.2 61.105-15.036 24.877.243 42.102 10.661 58.384 21.61-.278.973-.81 1.336-1.092 1.564z"/><path fill="#e32e00" d="M66.591 14.585l.283.084-30.681 106.505c-.07-.05-.378-.12-.378-.12z"/><path opacity=".66" fill="url(#U)" d="M-32.979 21.61c-5.451-3.688-11.545-6.541-24.06-1.429.026-.109.053-.146.053-.146 12.576-5.2 18.597-2.26 24.042 1.428z" transform="translate(350.115 -85.539) scale(4.96547)"/><path opacity=".33" fill="#fe8411" d="M182.783 25.276C160.737 10.96 131.594-6.97 69.451 18.408c.14-.53.298-.809.298-.809 62.436-25.815 91.867-6.147 113.258 6.902z"/><path opacity=".36" fill="url(#V)" d="M-56.835 20.323c-.035.014-.156-.003-.156-.003l-6.25 21.645.462.31a.177.177 0 00.047.033c.079.035.095.035.12.03l6.123-21.497.019-.064z" transform="translate(350.115 -85.539) scale(4.96547)"/><path opacity=".5" fill="url(#W)" d="M-33.668 22.178l.007.008.001-.014z" transform="translate(350.115 -85.539) scale(4.96547)"/><path opacity=".5" fill="url(#X)" d="M-33.516 21.686c-2.067-1.385-5.508-3.633-10.541-3.985-5.339-.375-12.104 2.342-12.778 2.622l.364.453-.019.064c.019-.004.037-.015.055-.022 12.466-5.361 20.144-.52 22.767 1.36l.009-.006.392-.321-.249-.165z" transform="translate(350.115 -85.539) scale(4.96547)"/><path opacity=".5" fill="#fff4c5" d="M67.902 15.375c3.352-1.39 36.938-14.882 63.449-13.02 24.991 1.748 42.077 12.915 52.341 19.788.422.283.834.556 1.227.819l1.921-1.544c-.084-.13-.139-.279-.278-.368-26.446-17.915-55.668-32.26-115.343-8.744-1.336.541-2.671 1.058-4.032 1.629z"/><path opacity=".6" fill="url(#Y)" d="M-32.944 21.471l-.035.139-.29.241-.391.321-.001.014c-1.298 4.452-5.355 18.351-6.215 21.248.01.004.017.006.028.014l.013.007s.126.064.232.036l.388-.175c-.001.002-.004 0-.011.002.004-.002.007 0 .009-.002.049-.04.144-.097.171-.2l.001-.007c0-.003.003-.003.003-.007l5.938-20.508.147-.505.005-.021.099-.336c.02-.072.007-.217-.091-.261z" transform="translate(350.115 -85.539) scale(4.96547)"/><path opacity=".5" fill="url(#Z)" d="M-39.378 43.268c-3.354-2.19-6.492-4.007-11.463-4.15-3.632.074-6.42.537-12.212 2.836-.089-.045-.195-.167-.167-.324 5.019-2.138 9.001-3.063 12.308-3.029 5.008.052 8.478 2.145 11.756 4.352-.057.195-.164.27-.222.315z" transform="translate(350.115 -85.539) scale(4.96547)"/><path fill="none" d="M66.884 14.093a.945.945 0 00-.293.492l-1.579 5.422L35.82 121.055c-.169.541.114 1.445.417 1.663.03.02.05.02.08.035l.064.06-.293.02L67.123 15.36s.605.084.774.015z"/><path fill="#f83603" d="M186.532 21.035l.035.02c.397.268.541.785.422 1.301l-.025.045c-.159-.189-.278-.378-.62-.646z"/><path fill="url(#aa)" d="M-57.04 20.181l-.058-.015a.183.183 0 01.112-.131l.009-.002c0-.001-.03.044-.063.148z" transform="translate(350.115 -85.539) scale(4.96547)"/><path opacity=".66" fill="url(#ab)" d="M-32.979 21.61c-5.448-3.688-11.545-6.539-24.061-1.428.027-.106.054-.146.054-.146 12.576-5.2 18.597-2.26 24.042 1.428z" transform="translate(350.115 -85.539) scale(4.96547)"/><path fill="url(#ac)" d="M-5.684 25.25c-12.557 5.189-18.59 2.271-24.026-1.391l-6.195 21.481c5.432 3.683 11.996 6.703 24.035 1.317z" transform="translate(350.115 -85.539) scale(4.96547)"/><path fill="url(#ad)" d="M-5.71 25.266c-12.556 5.188-18.566 2.269-24.002-1.389a.388.388 0 000-.231c5.436 3.66 11.595 6.608 24.144 1.417-.103.059-.111.131-.142.203z" transform="translate(350.115 -85.539) scale(4.96547)"/><path fill="#8cac42" d="M167.251 140.296v-.238l30.558-105.76 2.24-1.594-30.454 105.725z"/><path fill="url(#ae)" d="M-35.892 45.348c-.188-.109-.329-.325-.499-.257l6.146-21.267a.53.53 0 01.557.053z" transform="translate(350.115 -85.539) scale(4.96547)"/><path fill="#5f821c" d="M200.321 32.029l-.307.75-2.225 1.603c.199-.725 1.912-1.921 2.408-2.299a3.41 3.41 0 00.124-.054z"/><path fill="url(#af)" d="M-29.709 23.859a.573.573 0 00-.539-.03c.013-.047.055-.141.055-.141.203-.126.287-.131.48-.042a.285.285 0 01.004.213z" transform="translate(350.115 -85.539) scale(4.96547)"/><path opacity=".81" fill="url(#ag)" d="M-10.985 47.166l-.473-.411 6.21-21.385.507.402z" transform="translate(350.115 -85.539) scale(4.96547)"/><path fill="#476e32" d="M296.175 149.442c.074-.615-.556-1.102-.556-1.102l30.91-106.008s.501.437.626.745z"/><path fill="#1d3419" d="M295.142 150.426c-16.659 7.572-32.41 11.48-47.048 12.746-25.284 2.845-45.737-2.632-62.426-10.84a124.306 124.306 0 01-17.582-9.871l.288-.214c5.283 3.53 11.018 7.007 17.294 10.085 16.972 7.791 38.15 12.935 62.426 10.845 13.82-1.58 29.098-5.666 45.976-13.134.476.358 1.072.383 1.072.383z"/><path fill="url(#ah)" d="M-11.75 47.123s-.237-.214-.197-.526a.58.58 0 01.536.117s-.065.291-.339.409z" transform="translate(350.115 -85.539) scale(4.96547)"/><path fill="url(#ai)" d="M-11.411 46.714l.444.397s-.067.246-.337.364l-.465-.395a.658.658 0 00.358-.366z" transform="translate(350.115 -85.539) scale(4.96547)"/><path fill="url(#aj)" d="M-11.87 46.586c-.044.314.188.545.188.545-12.55 5.191-19.016 2.14-24.454-1.545.096-.066.109-.066.172-.291 5.434 3.682 13.648 6.261 24.094 1.291z" transform="translate(350.115 -85.539) scale(4.96547)"/><path fill="#26551b" d="M168.374 142.352l2.323-1.545c26.998 17.385 58.886 32.41 121.163 7.38l2.234 1.956c-59.779 26.376-98.013 11.703-125.72-7.791z"/><path fill="#5f821c" d="M296.175 149.442c-.288.571-.844.904-1.033.984-.04.024-.064.024-.064.024s-.413.08-1.003-.312c1.24-.65 1.584-2.016 1.584-2.016s.705.625.516 1.32z"/><path fill="#26551b" d="M168.468 142.327l-.273.218s-1.505-.829-.939-2.487c.14 1.653 1.212 2.269 1.212 2.269z"/><path fill="url(#ak)" d="M-36.827 45.433l.453-.357a.5.5 0 00.267.485l-.458.355a.505.505 0 01-.262-.483z" transform="translate(350.115 -85.539) scale(4.96547)"/><path fill="url(#al)" d="M-36.385 45.076c.156-.051.293.114.481.264-.063.22-.114.181-.21.248a.518.518 0 01-.271-.512z" transform="translate(350.115 -85.539) scale(4.96547)"/><path opacity=".72" fill="url(#am)" d="M-4.7 25.551c.006.079-.053.212-.053.212l-.482-.388s.07-.159.035-.279c.162.068.473.408.5.455z" transform="translate(350.115 -85.539) scale(4.96547)"/><path opacity=".33" fill="url(#an)" d="M-4.71 25.531c-.094-.127-.238-.24-.351-.343-.212-.194-.476-.152-.538-.115l-.003.007c-12.523 5.17-18.676 2.222-24.109-1.435.012.027.013.054.016.08-.003-.026-.004-.053-.016-.08-.192-.088-.277-.084-.48.042a2.87 2.87 0 00-.397.333c2.089 1.76 10.971 8.719 25.878 1.511zm-24.999-1.672l-.003.004c0-.004-.001-.004-.003-.005l.006.001c.013-.029.013-.056.015-.084a.264.264 0 01-.015.084z" transform="translate(350.115 -85.539) scale(4.96547)"/><path opacity=".72" fill="url(#ao)" d="M-11.928 46.635L-5.72 25.26c.339-.063.501.13.501.13l-6.192 21.322c0 .002-.254-.189-.517-.077z" transform="translate(350.115 -85.539) scale(4.96547)"/><path opacity=".6" fill="url(#ap)" d="M-5.71 25.266a.292.292 0 01.11-.193c.063-.037.326-.079.538.115.212.191.538.413.438.714-.026-.062-.121-.14-.121-.14l-.474-.373s-.153-.183-.491-.123z" transform="translate(350.115 -85.539) scale(4.96547)"/><path opacity=".3" fill="url(#aq)" d="M-30.589 24.021c-.032.039-.063.073-.078.107l-.005.006-.022.073c1.891 1.6 10.857 8.963 26.083 1.551a.455.455 0 00-.098-.228c-14.908 7.209-23.79.25-25.88-1.509z" transform="translate(350.115 -85.539) scale(4.96547)"/><path opacity=".72" fill="url(#ar)" d="M-4.7 25.552c.006.078-.053.21-.053.21l-.481-.388s.07-.158.038-.279c.158.07.469.411.496.457z" transform="translate(350.115 -85.539) scale(4.96547)"/><path opacity=".6" fill="url(#as)" d="M-5.71 25.266a.287.287 0 01.112-.193c.062-.037.326-.079.536.117.212.19.539.41.439.713a.531.531 0 00-.122-.14l-.474-.375c.001.001-.153-.182-.491-.122z" transform="translate(350.115 -85.539) scale(4.96547)"/></svg>