<svg width="512" height="512" viewBox="0 0 512 512" fill="none" xmlns="http://www.w3.org/2000/svg">
<rect width="512" height="512" fill="#4E9DEF"/>
<g filter="url(#filter0_d_20_2)">
<path fill-rule="evenodd" clip-rule="evenodd" d="M184.938 403.455C208.131 414.792 234.234 421.182 261.803 421.182C358.471 421.182 436.846 342.785 436.846 246.091C436.846 149.397 358.471 71 261.803 71C165.136 71 86.7607 149.397 86.7607 246.091C86.7607 273.296 92.9528 299.034 104.024 321.993L57.7036 397.283L43 421.182L70.8318 417.703L184.938 403.433V403.455ZM374.706 167.75C371.174 166.069 367.298 165.237 363.386 165.321C359.947 165.235 356.527 165.857 353.34 167.149C350.153 168.441 347.267 170.374 344.863 172.829C342.426 175.37 340.525 178.374 339.273 181.661C338.021 184.949 337.443 188.454 337.573 191.969C337.445 196.421 338.512 200.827 340.663 204.729C343.425 209.074 346.975 212.868 351.129 215.916C352.283 216.62 353.247 217.594 353.938 218.754C354.629 219.914 355.026 221.225 355.094 222.572C355.048 226.216 354.017 229.779 352.11 232.887C349.117 237.516 345.613 241.796 341.665 245.647C341.031 246.123 340.497 246.719 340.094 247.402C339.692 248.084 339.429 248.84 339.321 249.624C339.391 250.699 339.733 251.738 340.314 252.645C340.895 253.553 341.698 254.299 342.646 254.813C344.867 256.327 347.502 257.122 350.192 257.089C354.327 257.103 358.768 254.884 363.514 250.432C371.731 242.812 378.517 233.787 383.551 223.785C388.128 214.97 390.588 205.213 390.734 195.287C390.903 187.905 388.415 180.707 383.721 174.998C381.325 171.912 378.237 169.43 374.706 167.75ZM239.249 167.791C250.882 162.732 264.701 168.679 270.115 181.073L327.751 313.008C333.165 325.402 328.125 339.551 316.492 344.609C304.859 349.668 291.04 343.721 285.626 331.327L227.99 199.392C222.576 186.997 227.616 172.849 239.249 167.791ZM147.752 168.559C159.342 163.519 172.834 168.807 177.885 180.371L214.005 263.053C219.056 274.617 213.756 288.077 202.165 293.118C190.575 298.158 177.084 292.869 172.032 281.305L135.913 198.623C130.861 187.059 136.162 173.599 147.752 168.559ZM216.183 347.828C228.732 347.828 238.905 337.677 238.905 325.157C238.905 312.636 228.732 302.486 216.183 302.486C203.633 302.486 193.46 312.636 193.46 325.157C193.46 337.677 203.633 347.828 216.183 347.828Z" fill="white"/>
</g>
<defs>
<filter id="filter0_d_20_2" x="39" y="71" width="401.846" height="358.182" filterUnits="userSpaceOnUse" color-interpolation-filters="sRGB">
<feFlood flood-opacity="0" result="BackgroundImageFix"/>
<feColorMatrix in="SourceAlpha" type="matrix" values="0 0 0 0 0 0 0 0 0 0 0 0 0 0 0 0 0 0 127 0" result="hardAlpha"/>
<feOffset dy="4"/>
<feGaussianBlur stdDeviation="2"/>
<feComposite in2="hardAlpha" operator="out"/>
<feColorMatrix type="matrix" values="0 0 0 0 0 0 0 0 0 0 0 0 0 0 0 0 0 0 0.25 0"/>
<feBlend mode="normal" in2="BackgroundImageFix" result="effect1_dropShadow_20_2"/>
<feBlend mode="normal" in="SourceGraphic" in2="effect1_dropShadow_20_2" result="shape"/>
</filter>
</defs>
</svg>
