<?xml version="1.0" standalone="no"?>
<!DOCTYPE svg PUBLIC "-//W3C//DTD SVG 20010904//EN"
 "http://www.w3.org/TR/2001/REC-SVG-20010904/DTD/svg10.dtd">
<svg version="1.0" xmlns="http://www.w3.org/2000/svg"
 width="120.000000pt" height="22.000000pt" viewBox="0 0 120.000000 22.000000"
 preserveAspectRatio="xMidYMid meet">

<g transform="translate(0.000000,22.000000) scale(0.100000,-0.100000)"
fill="#000000" stroke="none">
<path d="M0 170 l0 -50 50 0 50 0 0 50 0 50 -50 0 -50 0 0 -50z"/>
<path d="M120 170 l0 -50 50 0 50 0 0 50 0 50 -50 0 -50 0 0 -50z"/>
<path d="M700 155 c0 -22 -4 -24 -23 -20 -30 8 -49 -15 -45 -52 3 -25 7 -28
41 -29 l37 -1 0 63 c0 35 -2 64 -5 64 -3 0 -5 -11 -5 -25z m-2 -69 c-4 -24
-37 -34 -49 -14 -12 18 -11 24 7 43 20 20 46 2 42 -29z"/>
<path d="M1106 165 c-11 -8 -14 -15 -8 -15 8 0 12 -18 12 -50 0 -27 5 -50 10
-50 6 0 10 28 10 65 0 36 -1 65 -2 65 -2 0 -12 -7 -22 -15z"/>
<path d="M1170 165 c-19 -11 -21 -14 -7 -15 14 0 17 -9 17 -50 0 -27 5 -50 10
-50 6 0 10 28 10 65 0 36 -1 65 -2 65 -2 -1 -14 -7 -28 -15z"/>
<path d="M300 158 c0 -27 27 -102 38 -106 7 -2 17 16 24 42 7 25 15 46 18 46
3 0 11 -21 18 -46 15 -57 32 -53 49 12 15 59 16 67 4 59 -6 -3 -13 -26 -17
-51 -7 -51 -15 -48 -33 14 -6 23 -16 42 -21 42 -5 0 -15 -20 -21 -45 -15 -61
-25 -64 -33 -10 -7 41 -26 74 -26 43z"/>
<path d="M548 133 c-14 -3 -18 -14 -17 -46 2 -34 3 -37 6 -12 10 62 53 70 53
9 0 -19 5 -34 10 -34 13 0 13 46 0 71 -11 19 -19 21 -52 12z"/>
<path d="M756 127 c-12 -9 -17 -23 -14 -42 2 -24 8 -31 31 -33 50 -6 75 38 41
72 -19 19 -35 20 -58 3z m52 -41 c-4 -24 -37 -34 -49 -14 -12 18 -11 24 7 43
20 20 46 2 42 -29z"/>
<path d="M997 133 c-14 -13 -6 -39 16 -52 l22 -15 -25 -7 -25 -7 28 -1 c33 -1
38 28 7 47 -22 14 -17 37 6 28 8 -3 14 -1 14 4 0 11 -33 14 -43 3z"/>
<path d="M480 90 c0 -22 5 -40 10 -40 6 0 10 18 10 40 0 22 -4 40 -10 40 -5 0
-10 -18 -10 -40z"/>
<path d="M853 90 c11 -39 37 -56 37 -24 0 8 -4 13 -9 10 -5 -4 -12 7 -16 24
-4 16 -10 30 -14 30 -5 0 -3 -18 2 -40z"/>
<path d="M897 123 c-4 -3 -7 -13 -7 -22 0 -13 2 -13 9 -3 6 10 11 6 19 -17 6
-17 15 -31 20 -31 9 0 34 71 27 78 -3 3 -7 -3 -10 -12 -16 -51 -18 -52 -28
-18 -10 32 -17 38 -30 25z"/>
<path d="M0 50 l0 -50 50 0 50 0 0 50 0 50 -50 0 -50 0 0 -50z"/>
<path d="M120 50 l0 -50 50 0 50 0 0 50 0 50 -50 0 -50 0 0 -50z"/>
</g>
</svg>
