<?xml version="1.0" encoding="UTF-8" standalone="no"?>
<svg
   xmlns:dc="http://purl.org/dc/elements/1.1/"
   xmlns:cc="http://creativecommons.org/ns#"
   xmlns:rdf="http://www.w3.org/1999/02/22-rdf-syntax-ns#"
   xmlns:svg="http://www.w3.org/2000/svg"
   xmlns="http://www.w3.org/2000/svg"
   viewBox="0 0 525.05334 526.37335"
   height="526.37335"
   width="525.05334"
   xml:space="preserve"
   id="svg2"
   version="1.1"><metadata
     id="metadata8"><rdf:RDF><cc:Work
         rdf:about=""><dc:format>image/svg+xml</dc:format><dc:type
           rdf:resource="http://purl.org/dc/dcmitype/StillImage" /></cc:Work></rdf:RDF></metadata><defs
     id="defs6" /><g
     transform="matrix(1.3333333,0,0,-1.3333333,0,526.37333)"
     id="g10"><g
       transform="scale(0.1)"
       id="g12"><path
         id="path14"
         style="fill:#4072c1;fill-opacity:1;fill-rule:nonzero;stroke:none"
         d="m 1803.9,3638.02 c 710.29,108.68 1421.92,211.06 2133.56,309.82 0.45,-623.7 0,-1246.95 0.45,-1870.64 -711.18,-2.71 -1422.37,-13.53 -2134.01,-15.79 -0.45,525.84 -0.45,1051.22 0,1576.61 v 0" /><path
         id="path16"
         style="fill:#4072c1;fill-opacity:1;fill-rule:nonzero;stroke:none"
         d="m 0,3386.38 c 534.855,82.53 1071.97,153.78 1609.08,220.98 0.45,-517.27 0.45,-1034.09 0.9,-1551.36 -536.66,0.45 -1073.32,-7.67 -1609.98,-6.31 v 1336.69 0" /><path
         id="path18"
         style="fill:#4072c1;fill-opacity:1;fill-rule:nonzero;stroke:none"
         d="m 0,1886.88 c 536.211,1.81 1072.42,-6.76 1608.63,-5.86 0,-518.62 1.35,-1037.239 0.45,-1555.86 C 1073.32,404.531 536.66,473.98 0,546.59 v 1340.29" /><path
         id="path20"
         style="fill:#4072c1;fill-opacity:1;fill-rule:nonzero;stroke:none"
         d="m 1800.74,1866.14 c 712.54,0 1424.63,0 2136.72,0 0.9,-621.9 0,-1243.788 0,-1866.14 -710.28,106.43 -1421.92,205.199 -2133.56,301.711 -0.9,521.32 -2.25,1042.649 -3.16,1564.429" /></g></g></svg>